<?xml version="1.0" standalone="no"?>
<!DOCTYPE svg PUBLIC "-//W3C//DTD SVG 1.1//EN" "http://www.w3.org/Graphics/SVG/1.1/DTD/svg11.dtd" >
<svg xmlns="http://www.w3.org/2000/svg" xmlns:xlink="http://www.w3.org/1999/xlink" version="1.1">
<metadata></metadata>
<defs>
<font id="fs_lolalight_italic" horiz-adv-x="500" >
<font-face units-per-em="1000" ascent="750" descent="-250" />
<missing-glyph horiz-adv-x="232" />
<glyph unicode="&#xfb01;" horiz-adv-x="533" d="M522 629q0 -18 -16 -33t-34 -15q-13 0 -22 9t-9 23q0 19 15 33t33 14q14 0 23.5 -9t9.5 -22zM204 485h281l-84 -398q-5 -23 -5 -32q0 -21 24 -21q21 0 42 13l-9 -41q-20 -15 -54 -15q-29 0 -44.5 15t-15.5 41q0 15 5 37l76 358h-225l-93 -442h-56l93 442h-69l9 43h69 l14 62q16 67 40 98q40 51 117 51q43 0 71 -13l-8 -39q-25 9 -57 9q-44 0 -69 -25q-24 -24 -40 -92z" />
<glyph unicode="&#xfb02;" horiz-adv-x="532" d="M470 684h56l-126 -597q-5 -23 -5 -32q0 -21 24 -21q21 0 42 13l-9 -41q-20 -15 -54 -15q-29 0 -44.5 15t-15.5 41q0 15 5 37zM390 683l-7 -39q-25 9 -58 9q-44 0 -69 -25q-24 -24 -40 -92l-12 -51h123l-9 -43h-123l-94 -442h-55l93 442h-69l9 43h69l14 62q16 67 40 98 q40 51 117 51q43 0 71 -13z" />
<glyph horiz-adv-x="0" />
<glyph horiz-adv-x="333" />
<glyph unicode=" "  horiz-adv-x="232" />
<glyph unicode="&#x09;" horiz-adv-x="232" />
<glyph unicode="&#xa0;" horiz-adv-x="232" />
<glyph unicode="!" horiz-adv-x="273" d="M253 615q0 -9 -4 -25l-109 -408h-32l63 408q8 52 50 52q32 0 32 -27zM135 46q0 -19 -16 -34t-35 -15q-14 0 -23 9t-9 23q0 19 15 34t35 15q14 0 23.5 -9t9.5 -23z" />
<glyph unicode="&#x22;" horiz-adv-x="268" d="M295 621q0 -11 -9 -36l-51 -140h-24l9 140q2 29 10.5 43t34.5 14q30 0 30 -21zM192 621q0 -11 -9 -36l-51 -140h-24l9 140q2 29 10.5 43t34.5 14q30 0 30 -21z" />
<glyph unicode="#" d="M386 421h99l-10 -46h-99l-24 -116h99l-10 -46h-99l-45 -213h-46l45 213h-110l-45 -213h-46l45 213h-100l10 46h100l24 116h-100l10 46h100l45 212h46l-45 -212h110l45 212h46zM306 259l24 116h-110l-24 -116h110z" />
<glyph unicode="$" d="M467 619l-9 -42q-46 19 -101 22l-55 -261q30 -17 47.5 -28.5t38 -30.5t30.5 -43t10 -53q0 -78 -53 -128q-54 -51 -146 -62l-22 -101h-44l21 99q-93 2 -150 39l11 45q58 -41 144 -41h4l58 272q-33 18 -49.5 28.5t-39.5 30t-33 43.5t-10 54q0 73 55.5 123t147.5 56l21 98 h44l-21 -98q56 -5 101 -22zM262 360l51 237q-61 -7 -98.5 -41t-37.5 -88q0 -35 22 -59.5t63 -48.5zM370 179q0 34 -20.5 58t-59.5 47l-52 -246q60 11 96 48.5t36 92.5z" />
<glyph unicode="%" horiz-adv-x="800" d="M740 239q0 -58 -21.5 -114t-65 -95t-97.5 -39q-51 0 -80 34t-29 92t21.5 114t65 95t97.5 39q51 0 80 -34t29 -92zM568 642h48l-356 -650h-48zM383 516q0 -58 -21.5 -114t-65 -95t-97.5 -39q-51 0 -80 34t-29 92t21.5 114t65 95t97.5 39q51 0 80 -34t29 -92zM691 238 q0 89 -66 89q-57 0 -93 -67.5t-36 -141.5q0 -89 66 -89q57 0 93 67.5t36 141.5zM334 515q0 89 -66 89q-57 0 -93 -67.5t-36 -141.5q0 -89 66 -89q57 0 93 67.5t36 141.5z" />
<glyph unicode="&#x26;" horiz-adv-x="638" d="M325 370h283l-9 -41h-104l-42 -198q-7 -30 -7 -52q0 -47 52 -47q38 0 76 25l-10 -43q-28 -23 -82 -23q-40 0 -65 20.5t-25 59.5q-25 -36 -73 -58t-101 -22q-79 0 -127.5 42.5t-48.5 120.5q0 67 45 123.5t121 77.5q-28 10 -47.5 38.5t-19.5 66.5q0 80 63.5 131t150.5 51 q69 0 130 -27l-8 -40q-52 27 -120 27q-70 0 -115.5 -40.5t-45.5 -95.5q0 -49 35 -72.5t94 -23.5zM416 214l25 115h-105q-110 0 -171 -45q-64 -48 -64 -131q0 -53 34 -85.5t89 -32.5q153 0 192 179z" />
<glyph unicode="'" horiz-adv-x="165" d="M192 621q0 -11 -9 -36l-51 -140h-24l9 140q2 29 10.5 43t34.5 14q30 0 30 -21z" />
<glyph unicode="(" horiz-adv-x="282" d="M351 685l11 -22q-102 -71 -160 -210q-35 -84 -61 -207t-26 -209q0 -136 71 -206l-21 -22q-105 67 -105 245q0 84 25.5 201t62.5 199q76 167 203 231z" />
<glyph unicode=")" horiz-adv-x="282" d="M222 440q0 -84 -25.5 -201t-62.5 -199q-76 -167 -203 -231l-11 22q102 71 160 210q35 84 61 207t26 209q0 136 -71 206l21 22q105 -67 105 -245z" />
<glyph unicode="*" horiz-adv-x="420" d="M436 540q0 -19 -33 -31l-123 -46l103 -46q21 -9 21 -22q0 -11 -11 -24t-22 -13q-10 0 -25 13l-81 72l-8 -118q-4 -41 -36 -41q-23 0 -23 18q0 11 5 23l42 119l-113 -73q-21 -13 -29 -13q-9 0 -14.5 9t-5.5 18q0 21 32 32l123 46l-103 46q-22 10 -22 22q0 11 11.5 24 t22.5 13q10 0 25 -13l81 -73l8 119q3 41 36 41q23 0 23 -18q0 -6 -5 -23l-42 -118l113 72q23 13 29 13q9 0 15 -9.5t6 -18.5z" />
<glyph unicode="+" horiz-adv-x="470" d="M270 342h121l-10 -44h-121l-25 -121h-44l25 121h-121l10 44h121l25 121h44z" />
<glyph unicode="," horiz-adv-x="218" d="M108 40q0 -40 -34.5 -83t-73.5 -65l-12 17q53 42 65 85q-31 7 -31 33q0 20 15 34.5t35 14.5q16 0 26 -10t10 -26z" />
<glyph unicode="-" horiz-adv-x="260" d="M30 261h204l-10 -47h-204z" />
<glyph unicode="." horiz-adv-x="224" d="M112 46q0 -19 -16 -34t-35 -15q-14 0 -23 9t-9 23q0 19 15 34t35 15q14 0 23.5 -9t9.5 -23z" />
<glyph unicode="/" horiz-adv-x="280" d="M306 642h54l-348 -651h-54z" />
<glyph unicode="0" d="M477 470q0 -47 -10 -106.5t-32.5 -125.5t-54.5 -120.5t-81 -90.5t-106 -36q-65 0 -102 46.5t-37 125.5q0 47 10 106.5t32.5 125.5t54.5 120.5t81 90.5t106 36q65 0 102 -46.5t37 -125.5zM420 469q0 66 -24 99t-65 33q-53 0 -97.5 -52t-69.5 -126t-39 -143.5t-14 -115.5 q0 -66 24 -99t65 -33q53 0 97.5 52t69.5 126t39 143.5t14 115.5z" />
<glyph unicode="1" d="M337 633h35l-126 -592h91l-8 -41h-251l8 41h104l113 529l-114 -57l-16 37z" />
<glyph unicode="2" d="M477 496q0 -59 -34 -105.5t-85 -81t-103.5 -68.5t-97 -84.5t-57.5 -112.5h283l-9 -44h-338l5 26q15 77 60 136.5t97.5 95.5t103.5 68.5t85 74t34 93.5q0 48 -27 77t-72 29q-96 0 -156 -105l-39 22q65 125 199 125q70 0 110.5 -39.5t40.5 -106.5z" />
<glyph unicode="3" d="M457 505q0 -60 -37.5 -107t-93.5 -61q43 -11 68.5 -45.5t25.5 -82.5q0 -94 -66 -155q-68 -63 -175 -63q-90 0 -153 36l9 46q55 -39 137 -39q90 0 141 49q49 46 49 122q0 104 -129 106l9 44q73 3 116.5 44.5t43.5 103.5q0 47 -27.5 72t-70.5 25q-92 0 -139 -92l-40 21 q24 53 73 83t106 30q68 0 110.5 -37t42.5 -100z" />
<glyph unicode="4" d="M364 184h83l-10 -44h-83l-29 -140h-49l29 140h-266l-17 31l352 472l41 -25l-326 -434h226l25 119h49z" />
<glyph unicode="5" d="M190 633h277l-9 -44h-231l-45 -212h47q111 0 157 -40q43 -37 43 -100q0 -110 -70 -178t-182 -68q-79 0 -131 32l9 43q51 -32 119 -32q90 0 144 55.5t54 143.5q0 50 -29 75q-32 27 -117 27h-99z" />
<glyph unicode="6" d="M483 630l-8 -41q-31 11 -73 11q-90 0 -157 -68.5t-103 -180.5q69 56 156 56q67 0 107.5 -39.5t40.5 -108.5q0 -109 -63.5 -188.5t-162.5 -79.5q-81 0 -120.5 54.5t-39.5 140.5q0 124 47.5 229.5t127 166t169.5 60.5q46 0 79 -12zM390 253q0 52 -26 81t-75 29 q-86 0 -161 -66q-11 -55 -11 -109q0 -157 108 -157q75 0 120 71t45 151z" />
<glyph unicode="7" d="M481 633l15 -30l-345 -603h-58l340 589h-308l9 44h347z" />
<glyph unicode="8" d="M478 525q0 -65 -42.5 -114.5t-106.5 -73.5q51 -32 79 -68.5t28 -86.5q0 -85 -63 -138t-151 -53q-74 0 -122 40.5t-48 108.5q0 75 49 127.5t124 75.5q-81 57 -81 131q0 73 52 122.5t135 49.5q60 0 103.5 -31.5t43.5 -89.5zM426 522q0 38 -26 62t-72 24q-60 0 -96.5 -35.5 t-36.5 -90.5q0 -40 24 -67t70 -54q56 21 96.5 62.5t40.5 98.5zM382 182q0 41 -24.5 67t-92.5 68q-158 -47 -158 -174q0 -51 34 -81.5t86 -30.5q68 0 111.5 41.5t43.5 109.5z" />
<glyph unicode="9" d="M470 447q0 -124 -47.5 -229.5t-127 -166t-169.5 -60.5q-46 0 -79 12l8 41q30 -11 73 -11q90 0 157 68.5t103 180.5q-69 -56 -156 -56q-67 0 -107.5 39.5t-40.5 108.5q0 109 63.5 188.5t162.5 79.5q81 0 120.5 -54.5t39.5 -140.5zM413 445q0 157 -108 157q-75 0 -120 -71 t-45 -151q0 -52 26 -81t75 -29q86 0 161 66q11 55 11 109z" />
<glyph unicode=":" horiz-adv-x="230" d="M174 339q0 -19 -15.5 -34t-34.5 -15q-14 0 -23.5 9.5t-9.5 23.5q0 19 15.5 33.5t34.5 14.5q14 0 23.5 -9t9.5 -23zM112 46q0 -19 -16 -34t-35 -15q-14 0 -23 9t-9 23q0 19 14.5 34t34.5 15q14 0 24 -9t10 -23z" />
<glyph unicode=";" horiz-adv-x="223" d="M167 339q0 -19 -15.5 -34t-34.5 -15q-14 0 -23.5 9.5t-9.5 23.5q0 19 15.5 33.5t34.5 14.5q14 0 23.5 -9t9.5 -23zM108 40q0 -40 -34.5 -83t-73.5 -65l-12 17q53 42 65 85q-31 7 -31 33q0 20 14.5 34.5t34.5 14.5q17 0 27 -9.5t10 -26.5z" />
<glyph unicode="&#x3c;" horiz-adv-x="470" d="M103 339l311 119l-10 -48l-249 -90l211 -88l-10 -48l-261 117z" />
<glyph unicode="=" horiz-adv-x="470" d="M124 416h286l-9 -44h-286zM93 268h286l-9 -44h-286z" />
<glyph unicode="&#x3e;" horiz-adv-x="470" d="M141 458l261 -119l-8 -38l-311 -117l10 48l249 88l-211 90z" />
<glyph unicode="?" horiz-adv-x="392" d="M410 502q0 -88 -60.5 -140.5t-148.5 -63.5l-33 -117h-31l23 149q79 6 136 47.5t57 121.5q0 47 -27.5 73.5t-75.5 26.5q-79 0 -142 -71l-32 28q29 37 76.5 61.5t100.5 24.5q68 0 112.5 -37t44.5 -103zM165 46q0 -19 -16 -34t-35 -15q-14 0 -23 9t-9 23q0 19 15 34t35 15 q14 0 23.5 -9t9.5 -23z" />
<glyph unicode="@" horiz-adv-x="728" d="M701 403q0 -117 -51 -194.5t-138 -77.5q-28 0 -48.5 14.5t-20.5 38.5q-17 -26 -48.5 -41.5t-65.5 -15.5q-56 0 -86.5 34t-30.5 92q0 98 69 175t164 77q39 0 72 -15l34 9l-60 -282q-10 -49 31 -49q55 0 89 68t34 166q0 96 -58 146.5t-146 50.5q-144 0 -238 -102t-94 -245 q0 -105 66 -162.5t172 -57.5q140 0 258 60l-10 -44q-117 -57 -256 -57q-125 0 -205 66t-80 192q0 162 110 278t281 116q109 0 182.5 -65t73.5 -175zM469 332l25 127q-25 9 -46 9q-79 0 -133 -68t-54 -144q0 -90 76 -90q49 0 82 39t50 127z" />
<glyph unicode="A" horiz-adv-x="546" d="M380 633l96 -633h-62l-22 153h-272l-83 -153h-61l324 589h-57l9 44h128zM143 196h243l-44 316q-5 33 -2 59q-6 -27 -24 -59z" />
<glyph unicode="B" horiz-adv-x="541" d="M511 505q0 -59 -36.5 -106.5t-92.5 -63.5q48 -11 75 -46t27 -84q0 -83 -56 -137q-69 -68 -214 -68h-178l125 589h-55l9 44h222q93 0 134 -33q40 -31 40 -95zM453 501q0 50 -30.5 69t-93.5 19h-106l-51 -238h97q85 0 134.5 39.5t49.5 110.5zM421 207q0 46 -33 73 q-35 28 -109 28h-116l-57 -264h95q110 0 159 37q61 46 61 126z" />
<glyph unicode="C" horiz-adv-x="546" d="M555 484v-5h-54q0 58 -30 88t-85 30q-65 0 -119.5 -40.5t-86.5 -102.5t-49 -129t-17 -127q0 -76 36.5 -118t109.5 -42q105 0 186 55l-12 -55q-83 -47 -177 -47q-100 0 -153 52t-53 152q0 73 22.5 150t63.5 144t107 110t144 43q77 0 122 -41.5t45 -116.5z" />
<glyph unicode="D" horiz-adv-x="593" d="M572 422q0 -105 -43 -214t-122 -159q-78 -49 -216 -49h-155l125 589h-55l9 44h164q51 0 90 -4.5t79 -17.5t66 -36t42 -61.5t16 -91.5zM509 421q0 88 -51 128q-52 40 -178 40h-58l-116 -545h79q129 0 197 50q62 46 94.5 143t32.5 184z" />
<glyph unicode="E" horiz-adv-x="489" d="M167 633h344l-9 -44h-283l-52 -246h230l-10 -43h-230l-54 -256h305l-9 -44h-366z" />
<glyph unicode="F" horiz-adv-x="461" d="M167 633h344l-9 -44h-283l-52 -246h230l-10 -43h-230l-63 -300h-61z" />
<glyph unicode="G" horiz-adv-x="572" d="M552 483v-6h-54q0 57 -30 88t-85 31q-84 0 -147 -65q-57 -59 -89.5 -154t-32.5 -180q0 -160 148 -160q36 0 75.5 14t66.5 34l30 143h-91l8 39h149l-56 -267h-43v36q-66 -45 -156 -45q-95 0 -144.5 53.5t-49.5 148.5q0 97 37.5 199.5t104.5 168.5q83 81 195 81 q72 0 118 -41.5t46 -117.5z" />
<glyph unicode="H" horiz-adv-x="599" d="M535 633h61l-134 -633h-61l62 292h-307l-62 -292h-61l134 633h61l-62 -293h307z" />
<glyph unicode="I" horiz-adv-x="325" d="M147 633h195l-8 -39h-67l-118 -555h67l-8 -39h-195l8 39h67l118 555h-67z" />
<glyph unicode="J" horiz-adv-x="380" d="M150 633h227l-97 -457q-20 -96 -55 -133q-47 -52 -132 -52q-66 0 -105 22l9 43q40 -21 87 -21q59 0 89 32.5t46 107.5l88 414h-166z" />
<glyph unicode="K" horiz-adv-x="522" d="M484 633h60l-241 -314l92 -245q16 -40 47 -40q23 0 45 12l-9 -40q-20 -15 -53 -15q-61 0 -84 63l-91 241h-93l-63 -295h-61l135 633h61l-62 -293h95z" />
<glyph unicode="L" horiz-adv-x="448" d="M103 44h287l-9 -44h-348l134 633h61z" />
<glyph unicode="M" horiz-adv-x="744" d="M682 633h59l-134 -633h-57l109 514q-20 -41 -49 -87l-264 -427h-47l-93 442q-8 40 -9 72l-109 -514h-55l134 633h56l110 -511q9 -37 7 -54q6 18 26 52z" />
<glyph unicode="N" horiz-adv-x="618" d="M561 633h54l-134 -633h-44l-215 476q-17 39 -21 63l-114 -539h-54l134 633h45l214 -472q15 -32 21 -66z" />
<glyph unicode="O" horiz-adv-x="584" d="M563 440q0 -56 -13.5 -117t-41 -120t-66 -106.5t-92.5 -76.5t-116 -29q-91 0 -137 55t-46 147q0 56 13.5 117t41 120t66 106.5t92.5 76.5t116 29q91 0 137 -55t46 -147zM500 436q0 69 -30 114.5t-94 45.5q-51 0 -95.5 -28t-74 -71.5t-51 -97.5t-31.5 -105.5t-10 -96.5 q0 -69 29.5 -114.5t93.5 -45.5q63 0 115.5 41.5t83.5 104.5t47.5 129.5t16.5 123.5z" />
<glyph unicode="P" horiz-adv-x="531" d="M541 477q0 -103 -71 -168q-76 -71 -219 -71h-104l-50 -238h-61l125 589h-55l9 44h214q116 0 167 -43q45 -38 45 -113zM479 473q0 66 -38.5 91t-113.5 25h-105l-65 -307h97q109 0 165 50q60 53 60 141z" />
<glyph unicode="Q" horiz-adv-x="584" d="M563 440q0 -56 -13 -116.5t-41 -120t-66 -107t-93 -76.5t-117 -29q-32 -27 -32 -61q0 -50 61 -50q76 0 159 71l-10 -48q-25 -25 -72 -44.5t-87 -19.5q-46 0 -76 22t-30 64q0 43 36 72q-65 15 -98 67t-33 129q0 56 13.5 117t41 120t66 106.5t92.5 76.5t116 29 q91 0 137 -55t46 -147zM500 436q0 69 -30 114.5t-94 45.5q-51 0 -95.5 -28t-74 -71.5t-51 -97.5t-31.5 -105.5t-10 -96.5q0 -69 29.5 -114.5t93.5 -45.5q63 0 115.5 41.5t83.5 104.5t47.5 129.5t16.5 123.5z" />
<glyph unicode="R" horiz-adv-x="564" d="M538 484q0 -101 -69 -162q-46 -41 -130 -58l71 -190q16 -40 47 -40q23 0 45 12l-9 -40q-20 -15 -53 -15q-61 0 -84 63l-76 203q-4 0 -12.5 -0.5t-13.5 -0.5h-102l-55 -256h-61l125 589h-55l9 44h209q114 0 165 -37q49 -37 49 -112zM476 484q0 57 -37.5 81t-111.5 24h-105 l-61 -289h97q99 0 153 41q65 48 65 143z" />
<glyph unicode="S" horiz-adv-x="475" d="M458 619l-9 -42q-50 20 -116 20q-67 0 -116.5 -33t-49.5 -96q0 -31 18 -56t45.5 -40.5t59 -34t59 -36.5t45.5 -49t18 -70q0 -93 -73.5 -142t-171.5 -49q-90 0 -150 39l10 48q58 -42 143 -42q74 0 128.5 36t54.5 106q0 32 -18 57t-45.5 40t-59 33.5t-59 36t-45.5 48 t-18 69.5q0 58 35.5 100.5t86.5 61t107 18.5q62 0 121 -23z" />
<glyph unicode="T" horiz-adv-x="466" d="M95 633h435l-9 -44h-187l-125 -589h-61l125 589h-187z" />
<glyph unicode="U" horiz-adv-x="593" d="M530 633h61l-82 -386q-26 -126 -77 -184q-65 -72 -182 -72q-85 0 -133 41q-51 43 -51 121q0 35 14 103l80 377h61l-86 -402q-9 -41 -9 -76q0 -59 35 -91q33 -30 96 -30q77 0 124 49q40 41 62 142z" />
<glyph unicode="V" horiz-adv-x="495" d="M504 633h58l-338 -633h-63l-60 633h61l46 -501q4 -45 -1 -72h1q7 28 30 72z" />
<glyph unicode="W" horiz-adv-x="772" d="M787 633h54l-311 -633h-59l-36 461l-234 -461h-58l-44 633h58l33 -503q2 -42 -3 -72h1q12 45 24 68l215 427l-6 80h57l37 -499q3 -50 -2 -76h1q6 24 30 75z" />
<glyph unicode="X" horiz-adv-x="495" d="M469 633h62l-236 -309l80 -250q12 -40 43 -40q23 0 45 12l-11 -40q-22 -15 -54 -15q-31 0 -49 14t-29 49l-71 219l-209 -273h-64l256 326l-101 307h65l82 -255z" />
<glyph unicode="Y" horiz-adv-x="477" d="M490 633h56l-283 -410l-47 -223h-61l48 226l-111 407h63l81 -300q11 -41 9 -64h1q6 19 35 61z" />
<glyph unicode="Z" horiz-adv-x="473" d="M146 633h361q-4 -28 -39 -74l-390 -515h170q62 0 101 6q38 6 64 18l-11 -49q-25 -10 -70 -15q-32 -4 -92 -4h-240q4 27 35 69l393 520h-291z" />
<glyph unicode="[" horiz-adv-x="228" d="M161 684h133l-9 -44h-77l-166 -781h77l-9 -44h-133z" />
<glyph unicode="\" horiz-adv-x="278" d="M140 642l72 -651h-54l-72 651h54z" />
<glyph unicode="]" horiz-adv-x="228" d="M118 684h133l-184 -869h-133l9 44h77l166 781h-77z" />
<glyph unicode="^" horiz-adv-x="470" d="M342 626l76 -189h-56l-61 162l-134 -162h-56l160 190q12 15 24 15h27q14 0 20 -16z" />
<glyph unicode="_" d="M-44 -49h478l-8 -40h-478z" />
<glyph unicode="`" horiz-adv-x="250" d="M279 561l-14 -18q-50 55 -107 55q-18 0 -39 -7q-6 11 -6 26q0 19 13.5 30.5t35.5 11.5q36 0 67.5 -30t49.5 -68z" />
<glyph unicode="a" horiz-adv-x="521" d="M442 473l40 12l-83 -394q-5 -23 -5 -32q0 -21 24 -21q21 0 42 13l-9 -41q-20 -15 -56 -15q-27 0 -43.5 14t-16.5 39q0 11 2 16q-18 -29 -59 -51t-85 -22q-72 0 -113.5 44.5t-41.5 122.5q0 131 92.5 233.5t219.5 102.5q48 0 92 -21zM380 265l36 174q-29 13 -63 13 q-108 0 -182.5 -93t-74.5 -197q0 -58 27.5 -92.5t77.5 -34.5q63 0 111 56q43 51 68 174z" />
<glyph unicode="b" horiz-adv-x="517" d="M479 332q0 -87 -33.5 -164t-100 -127t-151.5 -50q-88 0 -155 41l129 609h-63l9 43h119l-56 -265q25 33 66 54t83 21q67 0 108 -41q45 -45 45 -121zM421 326q0 57 -26.5 90t-77.5 33q-59 0 -105 -48q-50 -53 -73 -162l-39 -184q29 -22 90 -22q104 0 167.5 86.5t63.5 206.5 z" />
<glyph unicode="c" horiz-adv-x="458" d="M445 369v-8h-51q0 89 -86 89q-63 0 -113.5 -46t-74.5 -110t-24 -128q0 -61 29 -93q32 -37 98 -37q79 0 153 50l-10 -51q-65 -44 -155 -44q-85 0 -129 46t-44 125q0 55 18.5 112t51.5 107t87.5 81.5t118.5 31.5q56 0 93.5 -33t37.5 -92z" />
<glyph unicode="d" horiz-adv-x="528" d="M412 684h119l-125 -593q-5 -23 -5 -32q0 -21 24 -21q21 0 42 13l-9 -41q-20 -15 -57 -15q-27 0 -43.5 14t-16.5 39q0 11 2 16q-18 -29 -60.5 -51t-88.5 -22q-74 0 -115 45.5t-41 121.5q0 131 93 233.5t220 102.5q46 0 81 -14l34 161h-63zM387 265l36 174q-30 13 -68 13 q-73 0 -134 -46t-93 -112.5t-32 -131.5q0 -61 29 -94t80 -33q66 0 114 56q43 51 68 174z" />
<glyph unicode="e" horiz-adv-x="472" d="M452 379q0 -76 -64.5 -129.5t-175.5 -53.5q-61 0 -112 18q-4 -20 -4 -46q0 -132 124 -132q39 0 85 15t76 35l-10 -51q-69 -44 -163 -44q-82 0 -126 44.5t-44 126.5q0 70 28.5 138t77.5 116q35 35 83 56.5t96 21.5q58 0 93.5 -30t35.5 -85zM397 376q0 74 -80 74 q-52 0 -99 -34q-76 -54 -109 -164q48 -15 102 -15q81 0 133.5 39t52.5 100z" />
<glyph unicode="f" horiz-adv-x="299" d="M390 683l-7 -39q-25 9 -58 9q-44 0 -69 -25q-24 -24 -40 -92l-12 -51h123l-9 -43h-123l-93 -442h-56l93 442h-69l9 43h69l14 62q16 67 40 98q40 51 117 51q43 0 71 -13z" />
<glyph unicode="g" horiz-adv-x="523" d="M458 473l38 12l-98 -465q-23 -105 -67 -156q-30 -34 -77 -55t-102 -21q-76 0 -120.5 33t-44.5 85q0 47 36 76t92 38q-31 18 -48 56t-17 81q0 132 92.5 234.5t223.5 102.5q52 0 92 -21zM392 256l39 184q-24 12 -61 12q-78 0 -139.5 -45t-92 -111t-30.5 -135 q0 -57 26.5 -88t76.5 -31q72 0 118 57q40 49 63 157zM340 11l12 58q-44 -59 -163 -73q-80 -10 -115.5 -28t-35.5 -60q0 -37 31 -59t80 -22q83 0 132 52q41 43 59 132z" />
<glyph unicode="h" horiz-adv-x="544" d="M486 47l-9 -41q-20 -15 -54 -15q-29 0 -44.5 15t-15.5 41q0 15 5 37l42 194q13 60 13 87q0 39 -25 60.5t-72 21.5q-74 0 -123 -59q-39 -47 -58 -137l-54 -251h-56l145 684h56l-55 -262q26 31 67 51.5t86 20.5q62 0 103.5 -31.5t41.5 -89.5q0 -26 -14 -96l-40 -190 q-5 -23 -5 -32q0 -21 24 -21q21 0 42 13z" />
<glyph unicode="i" horiz-adv-x="252" d="M241 629q0 -18 -16 -33t-34 -15q-13 0 -22 9t-9 23q0 19 15 33t33 14q14 0 23.5 -9t9.5 -22zM85 485h119l-84 -398q-5 -23 -5 -32q0 -21 24 -21q21 0 42 13l-9 -41q-20 -15 -54 -15q-29 0 -44.5 15t-15.5 41q0 15 5 37l76 358h-63z" />
<glyph unicode="j" horiz-adv-x="228" d="M238 629q0 -18 -16 -33t-34 -15q-13 0 -22 9t-9 23q0 19 15 33t33 14q14 0 23.5 -9t9.5 -22zM82 485h119l-96 -451q-21 -96 -43 -137q-36 -70 -110 -105l-33 23q56 35 83.5 82t44.5 127l89 418h-63z" />
<glyph unicode="k" horiz-adv-x="526" d="M492 377q0 -68 -53 -117t-142 -65l68 -129q17 -33 41 -33q22 0 39 12l-9 -40q-19 -14 -47 -14q-40 0 -67 52l-76 147q-63 -2 -111 9l-42 -199h-56l136 641h-63l9 43h119l-61 -291q32 44 80.5 72.5t101.5 28.5q58 0 95.5 -31.5t37.5 -85.5zM440 374q0 38 -25 57.5 t-61 19.5q-79 0 -135 -65.5t-76 -150.5q34 -8 83 -8q101 0 157.5 41t56.5 106z" />
<glyph unicode="l" horiz-adv-x="244" d="M119 684h119l-126 -597q-5 -23 -5 -32q0 -21 24 -21q21 0 42 13l-9 -41q-20 -15 -54 -15q-29 0 -44.5 15t-15.5 41q0 15 5 37l118 557h-63z" />
<glyph unicode="m" horiz-adv-x="851" d="M793 47l-9 -41q-20 -15 -54 -15q-29 0 -44.5 15t-15.5 41q0 15 5 37l42 194q13 60 13 87q0 82 -93 82q-71 0 -120 -59q-40 -50 -62 -154l-50 -234h-56l60 278q13 60 13 87q0 82 -93 82q-71 0 -120 -59q-40 -50 -62 -154l-50 -234h-56l94 442h-63l9 43h108l-7 -69 q25 34 66 56t89 22q52 0 90 -24t48 -68q31 45 76 68.5t94 23.5q61 0 101 -31.5t40 -89.5q0 -26 -14 -96l-40 -190q-5 -23 -5 -32q0 -21 24 -21q21 0 42 13z" />
<glyph unicode="n" horiz-adv-x="550" d="M492 47l-9 -41q-20 -15 -54 -15q-29 0 -44.5 15t-15.5 41q0 15 5 37l42 194q13 60 13 87q0 39 -25 60.5t-72 21.5q-74 0 -123 -59q-40 -50 -62 -154l-50 -234h-56l94 442h-63l9 43h108l-7 -69q24 34 66.5 56t91.5 22q62 0 103.5 -31.5t41.5 -89.5q0 -26 -14 -96l-40 -190 q-5 -23 -5 -32q0 -21 24 -21q21 0 42 13z" />
<glyph unicode="o" horiz-adv-x="510" d="M472 329q0 -72 -27.5 -144.5t-75.5 -121.5q-70 -72 -169 -72q-73 0 -117.5 43t-44.5 122q0 72 27.5 144.5t75.5 121.5q70 72 169 72q71 0 116.5 -43.5t45.5 -121.5zM414 324q0 59 -29.5 92.5t-83.5 33.5q-62 0 -114 -50q-42 -42 -66.5 -108t-24.5 -131q0 -59 29.5 -92.5 t83.5 -33.5q62 0 114 50q42 42 66.5 108t24.5 131z" />
<glyph unicode="p" horiz-adv-x="516" d="M478 332q0 -87 -33 -163t-103.5 -127t-165.5 -51q-44 0 -75 13l-43 -203h-56l127 599q-44 -23 -80 -51l12 56q38 27 79 46l23 106l58 14l-20 -95q44 18 101 18q82 0 128 -41q48 -42 48 -121zM420 326q0 123 -123 123q-53 0 -106 -20l-81 -385q28 -11 70 -11 q103 0 171.5 87t68.5 206z" />
<glyph unicode="q" horiz-adv-x="519" d="M450 473l41 12l-115 -545q-8 -40 -8 -59q0 -42 31 -67l-46 -22q-42 31 -42 84q0 25 8 62l27 127q-19 -30 -61 -52t-89 -22q-75 0 -116.5 45.5t-41.5 121.5q0 130 93.5 233t220.5 103q57 0 98 -21zM389 265l36 174q-30 13 -70 13q-73 0 -134 -46t-93 -112.5t-32 -131.5 q0 -62 29.5 -94.5t81.5 -32.5q66 0 114 56q43 51 68 174z" />
<glyph unicode="r" horiz-adv-x="330" d="M344 491l-11 -52q-12 2 -26 2q-67 0 -103.5 -59t-63.5 -184l-43 -198h-56l94 442h-63l10 43h107l-8 -71q23 39 59 59.5t75 20.5q21 0 29 -3z" />
<glyph unicode="s" horiz-adv-x="406" d="M386 473l-8 -41q-48 20 -107 20t-94.5 -25.5t-35.5 -63.5q0 -30 21.5 -50t63.5 -42q68 -36 95 -64t27 -71q0 -73 -59 -109t-139 -36q-82 0 -140 37l10 45q56 -40 133 -40q61 0 100 26t39 73q0 31 -22.5 51.5t-79.5 50.5q-33 18 -51.5 31t-35.5 38t-17 56q0 57 51 96 t137 39q70 0 112 -21z" />
<glyph unicode="t" horiz-adv-x="332" d="M202 485h117l-9 -43h-117l-65 -307q-5 -25 -5 -42q0 -58 62 -58q46 0 84 25l-9 -45q-38 -24 -90 -24q-47 0 -76 24.5t-29 67.5q0 19 6 49l66 310h-70l9 43h70l28 129l61 24z" />
<glyph unicode="u" horiz-adv-x="532" d="M438 485h56l-84 -394q-5 -23 -5 -32q0 -21 24 -21q22 0 43 13l-9 -41q-20 -15 -54 -15q-30 0 -47 19t-13 49q-23 -31 -66 -51.5t-88 -20.5q-62 0 -103.5 31.5t-41.5 89.5q0 26 14 96l58 277h57l-60 -278q-13 -60 -13 -87q0 -39 25 -60.5t72 -21.5q74 0 123 59 q40 50 62 154z" />
<glyph unicode="v" horiz-adv-x="421" d="M401 485h53l-279 -485h-47l-71 485h59l42 -336q8 -64 8 -90q10 25 47 92z" />
<glyph unicode="w" horiz-adv-x="638" d="M622 485h51l-253 -485h-46l-36 311l-172 -311h-45l-60 485h57l36 -330q7 -50 8 -89q12 29 47 92l121 222l-12 105h56l33 -331q2 -17 5 -88q27 63 43 93z" />
<glyph unicode="x" horiz-adv-x="437" d="M393 485h55l-203 -236l71 -178q9 -22 18.5 -31t25.5 -9q21 0 42 12l-8 -38q-21 -14 -52 -14q-29 0 -46 15.5t-31 48.5l-59 144l-172 -199h-57l212 241l-98 244h60l77 -194z" />
<glyph unicode="y" horiz-adv-x="522" d="M440 485h56l-97 -464q-21 -102 -68 -157q-30 -34 -77 -55t-102 -21q-76 0 -120.5 33t-44.5 85q0 84 117 109q-51 34 -51 97q0 26 14 96l58 277h57l-60 -278q-13 -60 -13 -87q0 -39 25 -60.5t72 -21.5q74 0 123 59q40 50 62 154zM340 11l12 58q-47 -63 -163 -76 q-82 -10 -116.5 -27t-34.5 -58q0 -36 31 -58.5t80 -22.5q83 0 132 52q41 43 59 132z" />
<glyph unicode="z" horiz-adv-x="423" d="M123 485h304q-6 -34 -36 -71l-312 -371h159q71 0 104 14l-9 -44q-33 -13 -102 -13h-223q5 37 49 88l299 354h-242z" />
<glyph unicode="{" horiz-adv-x="287" d="M303 684h20l-6 -30h-16q-33 0 -48 -15.5t-23 -50.5q-9 -41 -17 -122t-16 -120q-9 -43 -30.5 -68t-63.5 -38q52 -18 52 -70q0 -38 -34 -146.5t-39 -131.5q-3 -14 -3 -28q0 -38 46 -38h16l-6 -30h-20q-88 0 -88 76q0 17 5 39q8 42 28.5 125t28.5 124q0 2 1 6.5t1.5 8 t0.5 6.5q0 33 -54 48l4 22q39 9 56 22t25 47q9 41 24 124.5t25 124.5q25 115 131 115z" />
<glyph unicode="|" horiz-adv-x="216" d="M191 750h48l-212 -1000h-48z" />
<glyph unicode="}" horiz-adv-x="287" d="M260 608q0 -17 -5 -39q-9 -41 -29 -124t-28 -125l-3 -21q0 -33 54 -48l-4 -22q-39 -9 -56 -22t-25 -47q-10 -41 -24.5 -124.5t-24.5 -124.5q-25 -115 -131 -115h-20l6 30h16q33 0 48 15.5t23 50.5q9 41 17 122t16 120q9 43 30.5 68t63.5 38q-52 18 -52 70q0 38 34 146.5 t39 131.5q3 14 3 28q0 38 -46 38h-16l6 30h20q88 0 88 -76z" />
<glyph unicode="~" horiz-adv-x="470" d="M422 314l20 -19q-69 -111 -147 -111q-20 0 -36 7.5t-27.5 19t-22 22.5t-25 18.5t-32.5 7.5q-23 0 -45.5 -17t-57.5 -56l-21 19q69 111 147 111q32 0 56 -19t44 -37.5t43 -18.5t46.5 17t57.5 56z" />
<glyph unicode="&#xa1;" horiz-adv-x="273" d="M24 -124q0 9 4 25l109 408h32l-63 -408q-8 -52 -50 -52q-32 0 -32 27zM142 445q0 19 16 34t35 15q14 0 23 -9t9 -23q0 -19 -15 -34t-35 -15q-14 0 -23.5 9t-9.5 23z" />
<glyph unicode="&#xa2;" d="M464 361h-51q0 86 -82 89l-88 -414q80 0 152 50l-10 -51q-65 -43 -152 -44l-21 -99h-43l22 102q-56 9 -90 43q-44 46 -44 125q0 69 26 138.5t83 124.5t131 66l22 102h43l-21 -99q55 -2 90.5 -37.5t32.5 -95.5zM201 41l86 404q-78 -20 -125 -104.5t-47 -174.5 q0 -61 29 -93q22 -23 57 -32z" />
<glyph unicode="&#xa3;" d="M512 492l-52 -5q-6 49 -38.5 79.5t-84.5 30.5q-67 0 -108 -41t-41 -110q0 -31 21 -113h197l-8 -38h-180q13 -54 13 -81q0 -102 -109 -170h307l-9 -44h-377l8 39q53 26 87 70.5t34 100.5q0 33 -14 85h-102l8 38h84q-18 65 -18 107q0 92 58.5 147t150.5 55q69 0 117.5 -40 t55.5 -110z" />
<glyph unicode="&#xa4;" d="M235 171q46 0 80 36q30 30 47 75.5t17 90.5q0 42 -20.5 66t-57.5 24q-46 0 -80 -36q-30 -30 -47 -75.5t-17 -90.5q0 -42 20.5 -66t57.5 -24zM231 136q-59 0 -90 35l-55 -59h-56l90 95q-8 20 -8 54q0 91 55 163l-50 98h56l30 -61q45 37 102 37q59 0 90 -35l55 59h56 l-90 -95q8 -20 8 -54q0 -91 -55 -163l50 -98h-56l-30 61q-45 -37 -102 -37z" />
<glyph unicode="&#xa5;" d="M502 633h56l-270 -391h140l-9 -43h-149l-10 -47h149l-9 -43h-149l-23 -109h-61l23 109h-139l9 43h139l10 47h-139l9 43h132l-107 391h63l81 -300q11 -41 9 -64h1q6 19 35 61z" />
<glyph unicode="&#xa6;" horiz-adv-x="215" d="M190 750h48l-80 -380h-48zM59 130h48l-80 -380h-48z" />
<glyph unicode="&#xa7;" d="M457 621l-7 -39q-52 18 -108 18q-62 0 -96 -32t-34 -80q0 -27 20.5 -50.5t49 -42t57.5 -38t49.5 -48.5t20.5 -65q0 -71 -53.5 -115.5t-124.5 -54.5q29 -18 43.5 -29t33.5 -29.5t27 -38.5t8 -45q0 -68 -55.5 -113.5t-130.5 -45.5q-64 0 -114 21l8 41q47 -20 107 -20t95 33 t35 79q0 27 -20.5 50.5t-49 42t-57.5 38t-49.5 48.5t-20.5 65q0 72 52.5 117t125.5 53q-30 20 -44 30t-33 28.5t-27 38.5t-8 45q0 72 54 115.5t133 43.5q59 0 113 -21zM353 240q0 37 -42 72q-80 -10 -122 -45.5t-42 -91.5q0 -37 42 -72q164 21 164 137z" />
<glyph unicode="&#xa8;" horiz-adv-x="250" d="M327 622q0 -22 -17.5 -38.5t-39.5 -16.5q-16 0 -26 9.5t-10 25.5q0 22 17 39t39 17q16 0 26.5 -10t10.5 -26zM169 622q0 -22 -17 -38.5t-39 -16.5q-16 0 -26.5 9.5t-10.5 25.5q0 22 17.5 39t39.5 17q16 0 26 -10t10 -26z" />
<glyph unicode="&#xa9;" horiz-adv-x="720" d="M701 401q0 -167 -114.5 -288t-283.5 -121q-114 0 -187 63t-73 178q0 167 114.5 288t283.5 121q115 0 187.5 -63t72.5 -178zM655 397q0 101 -60 154.5t-162 53.5q-149 0 -246.5 -109t-97.5 -259q0 -101 60 -154.5t162 -53.5q149 0 246.5 109t97.5 259zM510 394h-47 q0 63 -52 63q-41 0 -73.5 -34.5t-47 -79.5t-14.5 -88q0 -75 68 -75q58 0 111 35l-10 -51q-50 -28 -103 -28q-57 0 -87.5 30.5t-30.5 87.5q0 91 52.5 168.5t135.5 77.5q46 0 72.5 -27.5t25.5 -78.5z" />
<glyph unicode="&#xaa;" horiz-adv-x="330" d="M325 629l24 8l-49 -237q-3 -12 -3 -19q0 -13 14 -13q12 0 25 8l-5 -24q-13 -9 -34 -9q-36 0 -36 31q0 7 1 10q-10 -17 -36 -30.5t-54 -13.5q-45 0 -68.5 27t-23.5 73q0 79 55.5 140.5t131.5 61.5q28 0 58 -13zM288 505l22 104q-20 8 -41 8q-65 0 -109.5 -55.5 t-44.5 -118.5q0 -76 64 -76q41 0 68 33q24 28 41 105z" />
<glyph unicode="&#xab;" horiz-adv-x="376" d="M349 405l5 -39l-120 -124l68 -124l-23 -39l-100 147q-6 8 -6 14q0 8 12 18zM222 405l5 -39l-120 -124l68 -124l-23 -39l-100 147q-6 8 -6 14q0 8 12 18z" />
<glyph unicode="&#xac;" horiz-adv-x="470" d="M118 416h286l-40 -192h-45l31 148h-241z" />
<glyph unicode="&#xad;" horiz-adv-x="260" d="M30 261h204l-10 -47h-204z" />
<glyph unicode="&#xae;" horiz-adv-x="720" d="M701 401q0 -167 -114.5 -288t-283.5 -121q-114 0 -187 63t-73 178q0 167 114.5 288t283.5 121q115 0 187.5 -63t72.5 -178zM655 397q0 101 -60 154.5t-162 53.5q-149 0 -246.5 -109t-97.5 -259q0 -101 60 -154.5t162 -53.5q149 0 246.5 109t97.5 259zM516 415 q0 -47 -29 -82.5t-75 -48.5l33 -92q6 -16 21 -16q13 0 27 8l-8 -34q-12 -12 -33 -12q-40 0 -53 37l-36 102h-62l-29 -137h-49l67 315h-28l8 38h131q61 0 89 -22q26 -20 26 -56zM464 409q0 20 -13 31t-26.5 13t-35.5 2h-50l-30 -139h56q45 0 72 24t27 69z" />
<glyph unicode="&#xaf;" horiz-adv-x="250" d="M102 656h207l-10 -50h-207z" />
<glyph unicode="&#xb0;" horiz-adv-x="398" d="M398 525q0 -77 -53 -136t-132 -59q-54 0 -86.5 31.5t-32.5 85.5q0 77 53 136t132 59q54 0 86.5 -31.5t32.5 -85.5zM349 521q0 39 -20 61t-58 22q-57 0 -92.5 -47t-35.5 -106q0 -39 20 -61t58 -22q57 0 92.5 47t35.5 106z" />
<glyph unicode="&#xb1;" horiz-adv-x="470" d="M276 342h121l-9 -44h-121l-26 -121h-44l26 121h-121l9 44h121l26 121h44zM48 44h286l-9 -44h-286z" />
<glyph unicode="&#xb2;" horiz-adv-x="330" d="M347 550q0 -31 -17.5 -58.5t-35 -41t-52.5 -37.5q-34 -23 -51.5 -36t-39.5 -39t-29 -55h169l-7 -36h-213l4 22q7 40 30 73.5t43.5 50t54.5 39.5q2 2 13.5 9t15.5 10t14.5 10.5t15 12t13 12t12 14t8 14.5t6.5 16.5t2 17.5q0 27 -14.5 43t-39.5 16q-55 0 -92 -65l-32 18 q42 82 126 82q44 0 70 -25t26 -67z" />
<glyph unicode="&#xb3;" horiz-adv-x="330" d="M327 555q0 -34 -19 -61.5t-49 -39.5q46 -21 46 -77q0 -62 -43.5 -99t-106.5 -37q-56 0 -97 24l8 39q39 -27 85 -27q48 0 78.5 26t30.5 72q0 57 -78 58l7 37q44 1 69.5 25t25.5 59q0 26 -14.5 39.5t-38.5 13.5q-53 0 -82 -57l-32 17q17 36 47.5 55.5t66.5 19.5 q42 0 69 -23.5t27 -63.5z" />
<glyph unicode="&#xb4;" horiz-adv-x="250" d="M292 633q0 -24 -20 -42q-15 7 -37 7q-56 0 -129 -55l-8 18q35 38 78.5 68t80.5 30q35 0 35 -26z" />
<glyph unicode="&#xb5;" horiz-adv-x="548" d="M454 485h56l-84 -394q-5 -23 -5 -32q0 -21 24 -21q22 0 43 13l-9 -41q-20 -15 -54 -15q-30 0 -47 19t-13 49q-23 -31 -66 -51.5t-88 -20.5q-70 0 -111 39l-55 -250h-57l150 705h57l-60 -278q-13 -60 -13 -87q0 -39 25 -60.5t72 -21.5q74 0 123 59q40 50 62 154z" />
<glyph unicode="&#xb6;" horiz-adv-x="430" d="M278 633h187l-8 -38h-72l-174 -822h-46l174 822h-55l-174 -822h-45l127 598q-44 1 -73.5 30t-29.5 74q0 68 51 112q52 46 138 46z" />
<glyph unicode="&#xb7;" horiz-adv-x="222" d="M154 255q-4 -17 -19 -29t-31 -12t-25.5 12t-5.5 29t18.5 28.5t30.5 11.5q17 0 26.5 -12t5.5 -28z" />
<glyph unicode="&#xb8;" horiz-adv-x="250" d="M143 -92q0 -41 -40 -57.5t-87 -16.5l-1 24q83 4 83 36q0 14 -40.5 24.5t-40.5 27.5q0 28 67 84l25 -9q-16 -9 -31.5 -26t-15.5 -26q0 -7 12.5 -12.5t28 -9t28 -13.5t12.5 -26z" />
<glyph unicode="&#xb9;" horiz-adv-x="330" d="M251 642h28l-75 -355h54l-7 -35h-160l6 35h64l64 303l-64 -32l-14 32z" />
<glyph unicode="&#xba;" horiz-adv-x="330" d="M346 543q0 -43 -16.5 -87t-45.5 -73q-43 -43 -101 -43q-44 0 -71 26t-27 73q0 43 16.5 87t45.5 73q43 43 102 43q43 0 70 -26t27 -73zM311 540q0 36 -17.5 56t-50.5 20q-38 0 -68 -30q-26 -26 -40.5 -65.5t-14.5 -78.5q0 -36 17.5 -55.5t50.5 -19.5q38 0 68 30 q55 55 55 143z" />
<glyph unicode="&#xbb;" horiz-adv-x="376" d="M334 244q0 -8 -12 -18l-164 -147l-5 39l120 124l-68 124l23 39l100 -147q6 -8 6 -14zM207 244q0 -8 -12 -18l-164 -147l-5 39l120 124l-68 124l23 39l100 -147q6 -8 6 -14z" />
<glyph unicode="&#xbc;" horiz-adv-x="732" d="M610 120h50l-8 -36h-50l-17 -84h-40l17 84h-165l-12 24l217 289l34 -18l-195 -259h130l15 72h39zM526 642h43l-348 -651h-43zM242 642h28l-75 -355h54l-7 -35h-160l6 35h64l64 303l-64 -32l-14 32z" />
<glyph unicode="&#xbd;" horiz-adv-x="732" d="M676 303q0 -31 -17.5 -58.5t-35 -41t-52.5 -37.5q-34 -23 -51.5 -36t-39.5 -39t-29 -55h169l-7 -36h-213l4 22q7 40 30 73.5t43.5 50t54.5 39.5q2 2 13.5 9t15.5 10t14.5 10.5t15 12t13 12t12 14t8 14.5t6.5 16.5t2 17.5q0 27 -14.5 43t-39.5 16q-55 0 -92 -65l-32 18 q42 82 126 82q44 0 70 -25t26 -67zM525 642h43l-348 -651h-43zM242 642h28l-75 -355h54l-7 -35h-160l6 35h64l64 303l-64 -32l-14 32z" />
<glyph unicode="&#xbe;" horiz-adv-x="732" d="M617 120h50l-8 -36h-50l-17 -84h-40l17 84h-164l-13 24l218 289l33 -18l-195 -259h130l15 72h39zM553 642h43l-348 -651h-43zM343 555q0 -34 -19 -61.5t-49 -39.5q46 -21 46 -77q0 -62 -43.5 -99t-106.5 -37q-56 0 -97 24l8 39q39 -27 85 -27q48 0 78.5 26t30.5 72 q0 57 -78 58l7 37q44 1 69.5 25t25.5 59q0 26 -14.5 39.5t-38.5 13.5q-53 0 -82 -57l-32 17q17 36 47.5 55.5t66.5 19.5q42 0 69 -23.5t27 -63.5z" />
<glyph unicode="&#xbf;" horiz-adv-x="392" d="M-6 -11q0 88 60.5 140.5t148.5 63.5l33 117h31l-23 -149q-79 -6 -136 -47.5t-57 -121.5q0 -47 27.5 -73.5t75.5 -26.5q79 0 142 71l32 -28q-29 -37 -76.5 -61.5t-100.5 -24.5q-68 0 -112.5 37t-44.5 103zM239 445q0 19 16 34t35 15q14 0 23 -9t9 -23q0 -19 -15 -34 t-35 -15q-14 0 -23.5 9t-9.5 23z" />
<glyph unicode="&#xc0;" horiz-adv-x="546" d="M380 633l96 -633h-62l-22 153h-272l-83 -153h-61l324 589h-57l9 44h128zM143 196h243l-44 316q-5 33 -2 59q-6 -27 -24 -59zM444 701l-14 -18q-50 55 -107 55q-18 0 -39 -7q-6 11 -6 26q0 19 13.5 30.5t35.5 11.5q36 0 67.5 -30t49.5 -68z" />
<glyph unicode="&#xc1;" horiz-adv-x="546" d="M380 633l96 -633h-62l-22 153h-272l-83 -153h-61l324 589h-57l9 44h128zM143 196h243l-44 316q-5 33 -2 59q-6 -27 -24 -59zM446 773q0 -24 -20 -42q-15 7 -37 7q-56 0 -129 -55l-8 18q35 38 78.5 68t80.5 30q35 0 35 -26z" />
<glyph unicode="&#xc2;" horiz-adv-x="546" d="M380 633l96 -633h-62l-22 153h-272l-83 -153h-61l324 589h-57l9 44h128zM143 196h243l-44 316q-5 33 -2 59q-6 -27 -24 -59zM405 783l54 -94h-52l-43 78l-78 -78h-52l94 94q17 17 32 17h21q14 0 24 -17z" />
<glyph unicode="&#xc3;" horiz-adv-x="546" d="M380 633l96 -633h-62l-22 153h-272l-83 -153h-61l324 589h-57l9 44h128zM143 196h243l-44 316q-5 33 -2 59q-6 -27 -24 -59zM454 791h26q-25 -83 -86 -83q-25 0 -50 18.5t-40 18.5q-25 0 -44 -37h-26q25 83 86 83q23 0 48.5 -18.5t41.5 -18.5q25 0 44 37z" />
<glyph unicode="&#xc4;" horiz-adv-x="546" d="M380 633l96 -633h-62l-22 153h-272l-83 -153h-61l324 589h-57l9 44h128zM143 196h243l-44 316q-5 33 -2 59q-6 -27 -24 -59zM487 759q0 -22 -17.5 -38.5t-39.5 -16.5q-16 0 -26 9.5t-10 25.5q0 22 17 39t39 17q16 0 26.5 -10t10.5 -26zM329 759q0 -22 -17 -38.5 t-39 -16.5q-16 0 -26.5 9.5t-10.5 25.5q0 22 17.5 39t39.5 17q16 0 26 -10t10 -26z" />
<glyph unicode="&#xc5;" horiz-adv-x="546" d="M380 633l96 -633h-62l-22 153h-272l-83 -153h-61l324 589h-57l9 44h128zM143 196h243l-44 316q-5 33 -2 59q-6 -27 -24 -59zM446 783q0 -40 -29.5 -68t-69.5 -28q-28 0 -46.5 16t-18.5 44q0 39 30 67.5t69 28.5q28 0 46.5 -16t18.5 -44zM410 777q0 17 -10 26.5t-26 9.5 q-23 0 -39.5 -18t-16.5 -42q0 -17 10 -26.5t26 -9.5q23 0 39.5 18t16.5 42z" />
<glyph unicode="&#xc6;" horiz-adv-x="812" d="M354 633h480l-9 -44h-283l-52 -246h230l-10 -43h-230l-54 -256h305l-9 -44h-364h-2l33 154h-246l-119 -154h-67l466 589h-78zM398 197l82 389l-302 -389h220z" />
<glyph unicode="&#xc7;" horiz-adv-x="546" d="M310 -92q0 -41 -40 -57.5t-87 -16.5l-1 24q83 4 83 36q0 14 -40.5 24.5t-40.5 27.5q0 22 26 48q-159 23 -159 201q0 73 22.5 150t63.5 144t107 110t144 43q77 0 122 -41.5t45 -116.5v-5h-54q0 58 -30 88t-85 30q-65 0 -119.5 -40.5t-86.5 -102.5t-49 -129t-17 -127 q0 -76 36.5 -118t109.5 -42q105 0 186 55l-12 -55q-83 -47 -177 -47q-3 0 -8.5 0.5t-7.5 0.5q-12 -14 -12 -23t20.5 -14.5t40.5 -16t20 -30.5z" />
<glyph unicode="&#xc8;" horiz-adv-x="489" d="M167 633h344l-9 -44h-283l-52 -246h230l-10 -43h-230l-54 -256h305l-9 -44h-366zM445 701l-14 -18q-50 55 -107 55q-18 0 -39 -7q-6 11 -6 26q0 19 13.5 30.5t35.5 11.5q36 0 67.5 -30t49.5 -68z" />
<glyph unicode="&#xc9;" horiz-adv-x="489" d="M167 633h344l-9 -44h-283l-52 -246h230l-10 -43h-230l-54 -256h305l-9 -44h-366zM458 773q0 -24 -20 -42q-15 7 -37 7q-56 0 -129 -55l-8 18q35 38 78.5 68t80.5 30q35 0 35 -26z" />
<glyph unicode="&#xca;" horiz-adv-x="489" d="M167 633h344l-9 -44h-283l-52 -246h230l-10 -43h-230l-54 -256h305l-9 -44h-366zM405 783l54 -94h-52l-43 78l-78 -78h-52l94 94q17 17 32 17h21q14 0 24 -17z" />
<glyph unicode="&#xcb;" horiz-adv-x="489" d="M167 633h344l-9 -44h-283l-52 -246h230l-10 -43h-230l-54 -256h305l-9 -44h-366zM481 759q0 -22 -17.5 -38.5t-39.5 -16.5q-16 0 -26 9.5t-10 25.5q0 22 17 39t39 17q16 0 26.5 -10t10.5 -26zM323 759q0 -22 -17 -38.5t-39 -16.5q-16 0 -26.5 9.5t-10.5 25.5 q0 22 17.5 39t39.5 17q16 0 26 -10t10 -26z" />
<glyph unicode="&#xcc;" horiz-adv-x="325" d="M147 633h195l-8 -39h-67l-118 -555h67l-8 -39h-195l8 39h67l118 555h-67zM343 701l-14 -18q-50 55 -107 55q-18 0 -39 -7q-6 11 -6 26q0 19 13.5 30.5t35.5 11.5q36 0 67.5 -30t49.5 -68z" />
<glyph unicode="&#xcd;" horiz-adv-x="325" d="M147 633h195l-8 -39h-67l-118 -555h67l-8 -39h-195l8 39h67l118 555h-67zM359 773q0 -24 -20 -42q-15 7 -37 7q-56 0 -129 -55l-8 18q35 38 78.5 68t80.5 30q35 0 35 -26z" />
<glyph unicode="&#xce;" horiz-adv-x="325" d="M147 633h195l-8 -39h-67l-118 -555h67l-8 -39h-195l8 39h67l118 555h-67zM319 783l54 -94h-52l-43 78l-78 -78h-52l94 94q17 17 32 17h21q14 0 24 -17z" />
<glyph unicode="&#xcf;" horiz-adv-x="325" d="M147 633h195l-8 -39h-67l-118 -555h67l-8 -39h-195l8 39h67l118 555h-67zM392 759q0 -22 -17.5 -38.5t-39.5 -16.5q-16 0 -26 9.5t-10 25.5q0 22 17 39t39 17q16 0 26.5 -10t10.5 -26zM234 759q0 -22 -17 -38.5t-39 -16.5q-16 0 -26.5 9.5t-10.5 25.5q0 22 17.5 39 t39.5 17q16 0 26 -10t10 -26z" />
<glyph unicode="&#xd0;" horiz-adv-x="593" d="M572 422q0 -105 -43 -214t-122 -159q-78 -49 -216 -49h-155l65 306h-80l9 44h80l51 239h-55l9 44h164q51 0 90 -4.5t79 -17.5t66 -36t42 -61.5t16 -91.5zM509 421q0 88 -51 128q-52 40 -178 40h-58l-51 -239h99l-9 -44h-99l-56 -262h79q129 0 197 50q62 46 94.5 143 t32.5 184z" />
<glyph unicode="&#xd1;" horiz-adv-x="618" d="M561 633h54l-134 -633h-44l-215 476q-17 39 -21 63l-114 -539h-54l134 633h45l214 -472q15 -32 21 -66zM511 791h26q-25 -83 -86 -83q-25 0 -50 18.5t-40 18.5q-25 0 -44 -37h-26q25 83 86 83q23 0 48.5 -18.5t41.5 -18.5q25 0 44 37z" />
<glyph unicode="&#xd2;" horiz-adv-x="584" d="M563 440q0 -56 -13.5 -117t-41 -120t-66 -106.5t-92.5 -76.5t-116 -29q-91 0 -137 55t-46 147q0 56 13.5 117t41 120t66 106.5t92.5 76.5t116 29q91 0 137 -55t46 -147zM500 436q0 69 -30 114.5t-94 45.5q-51 0 -95.5 -28t-74 -71.5t-51 -97.5t-31.5 -105.5t-10 -96.5 q0 -69 29.5 -114.5t93.5 -45.5q63 0 115.5 41.5t83.5 104.5t47.5 129.5t16.5 123.5zM500 701l-14 -18q-50 55 -107 55q-18 0 -39 -7q-6 11 -6 26q0 19 13.5 30.5t35.5 11.5q36 0 67.5 -30t49.5 -68z" />
<glyph unicode="&#xd3;" horiz-adv-x="584" d="M563 440q0 -56 -13.5 -117t-41 -120t-66 -106.5t-92.5 -76.5t-116 -29q-91 0 -137 55t-46 147q0 56 13.5 117t41 120t66 106.5t92.5 76.5t116 29q91 0 137 -55t46 -147zM500 436q0 69 -30 114.5t-94 45.5q-51 0 -95.5 -28t-74 -71.5t-51 -97.5t-31.5 -105.5t-10 -96.5 q0 -69 29.5 -114.5t93.5 -45.5q63 0 115.5 41.5t83.5 104.5t47.5 129.5t16.5 123.5zM498 773q0 -24 -20 -42q-15 7 -37 7q-56 0 -129 -55l-8 18q35 38 78.5 68t80.5 30q35 0 35 -26z" />
<glyph unicode="&#xd4;" horiz-adv-x="584" d="M563 440q0 -56 -13.5 -117t-41 -120t-66 -106.5t-92.5 -76.5t-116 -29q-91 0 -137 55t-46 147q0 56 13.5 117t41 120t66 106.5t92.5 76.5t116 29q91 0 137 -55t46 -147zM500 436q0 69 -30 114.5t-94 45.5q-51 0 -95.5 -28t-74 -71.5t-51 -97.5t-31.5 -105.5t-10 -96.5 q0 -69 29.5 -114.5t93.5 -45.5q63 0 115.5 41.5t83.5 104.5t47.5 129.5t16.5 123.5zM467 783l54 -94h-52l-43 78l-78 -78h-52l94 94q17 17 32 17h21q14 0 24 -17z" />
<glyph unicode="&#xd5;" horiz-adv-x="584" d="M563 440q0 -56 -13.5 -117t-41 -120t-66 -106.5t-92.5 -76.5t-116 -29q-91 0 -137 55t-46 147q0 56 13.5 117t41 120t66 106.5t92.5 76.5t116 29q91 0 137 -55t46 -147zM500 436q0 69 -30 114.5t-94 45.5q-51 0 -95.5 -28t-74 -71.5t-51 -97.5t-31.5 -105.5t-10 -96.5 q0 -69 29.5 -114.5t93.5 -45.5q63 0 115.5 41.5t83.5 104.5t47.5 129.5t16.5 123.5zM506 791h26q-25 -83 -86 -83q-25 0 -50 18.5t-40 18.5q-25 0 -44 -37h-26q25 83 86 83q23 0 48.5 -18.5t41.5 -18.5q25 0 44 37z" />
<glyph unicode="&#xd6;" horiz-adv-x="584" d="M563 440q0 -56 -13.5 -117t-41 -120t-66 -106.5t-92.5 -76.5t-116 -29q-91 0 -137 55t-46 147q0 56 13.5 117t41 120t66 106.5t92.5 76.5t116 29q91 0 137 -55t46 -147zM500 436q0 69 -30 114.5t-94 45.5q-51 0 -95.5 -28t-74 -71.5t-51 -97.5t-31.5 -105.5t-10 -96.5 q0 -69 29.5 -114.5t93.5 -45.5q63 0 115.5 41.5t83.5 104.5t47.5 129.5t16.5 123.5zM527 759q0 -22 -17.5 -38.5t-39.5 -16.5q-16 0 -26 9.5t-10 25.5q0 22 17 39t39 17q16 0 26.5 -10t10.5 -26zM369 759q0 -22 -17 -38.5t-39 -16.5q-16 0 -26.5 9.5t-10.5 25.5 q0 22 17.5 39t39.5 17q16 0 26 -10t10 -26z" />
<glyph unicode="&#xd7;" horiz-adv-x="470" d="M360 437l24 -31l-104 -86l68 -86l-38 -31l-68 86l-104 -86l-24 31l104 86l-68 86l38 31l68 -86z" />
<glyph unicode="&#xd8;" horiz-adv-x="584" d="M544 702h54l-80 -117q45 -54 45 -145q0 -56 -13.5 -117t-41 -120t-66 -106.5t-92.5 -76.5t-116 -29q-58 0 -102 26l-58 -86h-54l78 114q-47 53 -47 148q0 56 13.5 117t41 120t66 106.5t92.5 76.5t116 29q64 0 105 -27zM134 99l320 470q-30 27 -78 27q-51 0 -95.5 -28 t-74 -71.5t-51 -97.5t-31.5 -105.5t-10 -96.5q0 -58 20 -98zM500 436q0 58 -18 95l-319 -470q29 -24 74 -24q63 0 115.5 41.5t83.5 104.5t47.5 129.5t16.5 123.5z" />
<glyph unicode="&#xd9;" horiz-adv-x="593" d="M530 633h61l-82 -386q-26 -126 -77 -184q-65 -72 -182 -72q-85 0 -133 41q-51 43 -51 121q0 35 14 103l80 377h61l-86 -402q-9 -41 -9 -76q0 -59 35 -91q33 -30 96 -30q77 0 124 49q40 41 62 142zM474 701l-14 -18q-50 55 -107 55q-18 0 -39 -7q-6 11 -6 26 q0 19 13.5 30.5t35.5 11.5q36 0 67.5 -30t49.5 -68z" />
<glyph unicode="&#xda;" horiz-adv-x="593" d="M530 633h61l-82 -386q-26 -126 -77 -184q-65 -72 -182 -72q-85 0 -133 41q-51 43 -51 121q0 35 14 103l80 377h61l-86 -402q-9 -41 -9 -76q0 -59 35 -91q33 -30 96 -30q77 0 124 49q40 41 62 142zM490 773q0 -24 -20 -42q-15 7 -37 7q-56 0 -129 -55l-8 18q35 38 78.5 68 t80.5 30q35 0 35 -26z" />
<glyph unicode="&#xdb;" horiz-adv-x="593" d="M530 633h61l-82 -386q-26 -126 -77 -184q-65 -72 -182 -72q-85 0 -133 41q-51 43 -51 121q0 35 14 103l80 377h61l-86 -402q-9 -41 -9 -76q0 -59 35 -91q33 -30 96 -30q77 0 124 49q40 41 62 142zM444 783l54 -94h-52l-43 78l-78 -78h-52l94 94q17 17 32 17h21 q14 0 24 -17z" />
<glyph unicode="&#xdc;" horiz-adv-x="593" d="M530 633h61l-82 -386q-26 -126 -77 -184q-65 -72 -182 -72q-85 0 -133 41q-51 43 -51 121q0 35 14 103l80 377h61l-86 -402q-9 -41 -9 -76q0 -59 35 -91q33 -30 96 -30q77 0 124 49q40 41 62 142zM520 759q0 -22 -17.5 -38.5t-39.5 -16.5q-16 0 -26 9.5t-10 25.5 q0 22 17 39t39 17q16 0 26.5 -10t10.5 -26zM362 759q0 -22 -17 -38.5t-39 -16.5q-16 0 -26.5 9.5t-10.5 25.5q0 22 17.5 39t39.5 17q16 0 26 -10t10 -26z" />
<glyph unicode="&#xdd;" horiz-adv-x="477" d="M490 633h56l-283 -410l-47 -223h-61l48 226l-111 407h63l81 -300q11 -41 9 -64h1q6 19 35 61zM436 773q0 -24 -20 -42q-15 7 -37 7q-56 0 -129 -55l-8 18q35 38 78.5 68t80.5 30q35 0 35 -26z" />
<glyph unicode="&#xde;" horiz-adv-x="506" d="M516 364q0 -103 -71 -168q-76 -71 -219 -71h-105l-27 -125h-61l134 633h62l-24 -113h99q116 0 167 -43q45 -38 45 -113zM453 360q0 66 -38.5 91t-113.5 25h-105l-65 -307h97q109 0 165 50q60 53 60 141z" />
<glyph unicode="&#xdf;" horiz-adv-x="539" d="M519 572q0 -38 -17.5 -66t-44.5 -41.5t-57.5 -26.5t-57.5 -22.5t-44.5 -27.5t-17.5 -43q0 -26 21.5 -45.5t52 -33t60.5 -28.5t51.5 -40.5t21.5 -61.5q0 -73 -59 -109t-139 -36q-82 0 -140 37l10 45q56 -40 133 -40q61 0 100 26t39 73q0 28 -21 48t-51.5 33.5t-60.5 28 t-51 40.5t-21 62q0 39 25 65t60 39.5t70.5 26.5t60.5 36t25 58q0 42 -30.5 63.5t-74.5 21.5q-70 0 -106 -42q-31 -35 -53 -135l-101 -477h-56l93 442h-69l9 43h69l2 9q23 103 70 148q54 54 143 54q65 0 110.5 -31t45.5 -93z" />
<glyph unicode="&#xe0;" horiz-adv-x="521" d="M442 473l40 12l-83 -394q-5 -23 -5 -32q0 -21 24 -21q21 0 42 13l-9 -41q-20 -15 -56 -15q-27 0 -43.5 14t-16.5 39q0 11 2 16q-18 -29 -59 -51t-85 -22q-72 0 -113.5 44.5t-41.5 122.5q0 131 92.5 233.5t219.5 102.5q48 0 92 -21zM380 265l36 174q-29 13 -63 13 q-108 0 -182.5 -93t-74.5 -197q0 -58 27.5 -92.5t77.5 -34.5q63 0 111 56q43 51 68 174zM453 556l-14 -18q-50 55 -107 55q-18 0 -39 -7q-6 11 -6 26q0 19 13.5 30.5t35.5 11.5q36 0 67.5 -30t49.5 -68z" />
<glyph unicode="&#xe1;" horiz-adv-x="521" d="M442 473l40 12l-83 -394q-5 -23 -5 -32q0 -21 24 -21q21 0 42 13l-9 -41q-20 -15 -56 -15q-27 0 -43.5 14t-16.5 39q0 11 2 16q-18 -29 -59 -51t-85 -22q-72 0 -113.5 44.5t-41.5 122.5q0 131 92.5 233.5t219.5 102.5q48 0 92 -21zM380 265l36 174q-29 13 -63 13 q-108 0 -182.5 -93t-74.5 -197q0 -58 27.5 -92.5t77.5 -34.5q63 0 111 56q43 51 68 174zM458 628q0 -24 -20 -42q-15 7 -37 7q-56 0 -129 -55l-8 18q35 38 78.5 68t80.5 30q35 0 35 -26z" />
<glyph unicode="&#xe2;" horiz-adv-x="521" d="M442 473l40 12l-83 -394q-5 -23 -5 -32q0 -21 24 -21q21 0 42 13l-9 -41q-20 -15 -56 -15q-27 0 -43.5 14t-16.5 39q0 11 2 16q-18 -29 -59 -51t-85 -22q-72 0 -113.5 44.5t-41.5 122.5q0 131 92.5 233.5t219.5 102.5q48 0 92 -21zM380 265l36 174q-29 13 -63 13 q-108 0 -182.5 -93t-74.5 -197q0 -58 27.5 -92.5t77.5 -34.5q63 0 111 56q43 51 68 174zM425 642l54 -94h-52l-43 78l-78 -78h-52l94 94q17 17 32 17h21q14 0 24 -17z" />
<glyph unicode="&#xe3;" horiz-adv-x="521" d="M442 473l40 12l-83 -394q-5 -23 -5 -32q0 -21 24 -21q21 0 42 13l-9 -41q-20 -15 -56 -15q-27 0 -43.5 14t-16.5 39q0 11 2 16q-18 -29 -59 -51t-85 -22q-72 0 -113.5 44.5t-41.5 122.5q0 131 92.5 233.5t219.5 102.5q48 0 92 -21zM380 265l36 174q-29 13 -63 13 q-108 0 -182.5 -93t-74.5 -197q0 -58 27.5 -92.5t77.5 -34.5q63 0 111 56q43 51 68 174zM466 646h26q-25 -83 -86 -83q-25 0 -50 18.5t-40 18.5q-25 0 -44 -37h-26q25 83 86 83q23 0 48.5 -18.5t41.5 -18.5q25 0 44 37z" />
<glyph unicode="&#xe4;" horiz-adv-x="521" d="M442 473l40 12l-83 -394q-5 -23 -5 -32q0 -21 24 -21q21 0 42 13l-9 -41q-20 -15 -56 -15q-27 0 -43.5 14t-16.5 39q0 11 2 16q-18 -29 -59 -51t-85 -22q-72 0 -113.5 44.5t-41.5 122.5q0 131 92.5 233.5t219.5 102.5q48 0 92 -21zM380 265l36 174q-29 13 -63 13 q-108 0 -182.5 -93t-74.5 -197q0 -58 27.5 -92.5t77.5 -34.5q63 0 111 56q43 51 68 174zM497 614q0 -22 -17.5 -38.5t-39.5 -16.5q-16 0 -26 9.5t-10 25.5q0 22 17 39t39 17q16 0 26.5 -10t10.5 -26zM339 614q0 -22 -17 -38.5t-39 -16.5q-16 0 -26.5 9.5t-10.5 25.5 q0 22 17.5 39t39.5 17q16 0 26 -10t10 -26z" />
<glyph unicode="&#xe5;" horiz-adv-x="521" d="M442 473l40 12l-83 -394q-5 -23 -5 -32q0 -21 24 -21q21 0 42 13l-9 -41q-20 -15 -56 -15q-27 0 -43.5 14t-16.5 39q0 11 2 16q-18 -29 -59 -51t-85 -22q-72 0 -113.5 44.5t-41.5 122.5q0 131 92.5 233.5t219.5 102.5q48 0 92 -21zM380 265l36 174q-29 13 -63 13 q-108 0 -182.5 -93t-74.5 -197q0 -58 27.5 -92.5t77.5 -34.5q63 0 111 56q43 51 68 174zM456 641q0 -40 -29.5 -68t-69.5 -28q-28 0 -46.5 16t-18.5 44q0 39 30 67.5t69 28.5q28 0 46.5 -16t18.5 -44zM420 635q0 17 -10 26.5t-26 9.5q-23 0 -39.5 -18t-16.5 -42 q0 -17 10 -26.5t26 -9.5q23 0 39.5 18t16.5 42z" />
<glyph unicode="&#xe6;" horiz-adv-x="780" d="M760 379q0 -75 -68.5 -129t-180.5 -54q-53 0 -104 18q-4 -20 -4 -46q0 -63 29 -95q32 -37 99 -37q39 0 83 15t74 35l-10 -51q-69 -44 -159 -44q-131 0 -164 104q-22 -49 -70 -76.5t-104 -27.5q-64 0 -105 36.5t-41 98.5q0 82 59 130t155 48q67 0 116 -26l12 56q4 17 4 39 q0 78 -103 78q-66 0 -142 -30l8 45q68 28 141 28q62 0 102.5 -25t45.5 -72q85 97 196 97q66 0 101 -35q30 -30 30 -80zM704 376q0 33 -19 52q-22 22 -62 22q-51 0 -98 -34q-76 -54 -109 -164q45 -14 93 -14q83 0 139 38.5t56 99.5zM345 184l12 56q-42 24 -106 24 q-75 0 -117.5 -36.5t-42.5 -95.5q0 -46 27.5 -72.5t73.5 -26.5q62 0 100 41.5t53 109.5z" />
<glyph unicode="&#xe7;" horiz-adv-x="458" d="M260 -92q0 -41 -40 -57.5t-87 -16.5l-1 24q83 4 83 36q0 14 -40.5 24.5t-40.5 27.5q0 22 28 50q-50 9 -80 41q-44 46 -44 125q0 55 18.5 112t51.5 107t87.5 81.5t118.5 31.5q56 0 93.5 -33t37.5 -92v-8h-51q0 89 -86 89q-63 0 -113.5 -46t-74.5 -110t-24 -128 q0 -61 29 -93q32 -37 98 -37q79 0 153 50l-10 -51q-65 -44 -155 -44q-14 0 -20 1q-12 -14 -12 -23t20.5 -14.5t40.5 -16t20 -30.5z" />
<glyph unicode="&#xe8;" horiz-adv-x="472" d="M452 379q0 -76 -64.5 -129.5t-175.5 -53.5q-61 0 -112 18q-4 -20 -4 -46q0 -132 124 -132q39 0 85 15t76 35l-10 -51q-69 -44 -163 -44q-82 0 -126 44.5t-44 126.5q0 70 28.5 138t77.5 116q35 35 83 56.5t96 21.5q58 0 93.5 -30t35.5 -85zM397 376q0 74 -80 74 q-52 0 -99 -34q-76 -54 -109 -164q48 -15 102 -15q81 0 133.5 39t52.5 100zM423 556l-14 -18q-50 55 -107 55q-18 0 -39 -7q-6 11 -6 26q0 19 13.5 30.5t35.5 11.5q36 0 67.5 -30t49.5 -68z" />
<glyph unicode="&#xe9;" horiz-adv-x="472" d="M452 379q0 -76 -64.5 -129.5t-175.5 -53.5q-61 0 -112 18q-4 -20 -4 -46q0 -132 124 -132q39 0 85 15t76 35l-10 -51q-69 -44 -163 -44q-82 0 -126 44.5t-44 126.5q0 70 28.5 138t77.5 116q35 35 83 56.5t96 21.5q58 0 93.5 -30t35.5 -85zM397 376q0 74 -80 74 q-52 0 -99 -34q-76 -54 -109 -164q48 -15 102 -15q81 0 133.5 39t52.5 100zM436 628q0 -24 -20 -42q-15 7 -37 7q-56 0 -129 -55l-8 18q35 38 78.5 68t80.5 30q35 0 35 -26z" />
<glyph unicode="&#xea;" horiz-adv-x="472" d="M452 379q0 -76 -64.5 -129.5t-175.5 -53.5q-61 0 -112 18q-4 -20 -4 -46q0 -132 124 -132q39 0 85 15t76 35l-10 -51q-69 -44 -163 -44q-82 0 -126 44.5t-44 126.5q0 70 28.5 138t77.5 116q35 35 83 56.5t96 21.5q58 0 93.5 -30t35.5 -85zM397 376q0 74 -80 74 q-52 0 -99 -34q-76 -54 -109 -164q48 -15 102 -15q81 0 133.5 39t52.5 100zM399 642l54 -94h-52l-43 78l-78 -78h-52l94 94q17 17 32 17h21q14 0 24 -17z" />
<glyph unicode="&#xeb;" horiz-adv-x="472" d="M452 379q0 -76 -64.5 -129.5t-175.5 -53.5q-61 0 -112 18q-4 -20 -4 -46q0 -132 124 -132q39 0 85 15t76 35l-10 -51q-69 -44 -163 -44q-82 0 -126 44.5t-44 126.5q0 70 28.5 138t77.5 116q35 35 83 56.5t96 21.5q58 0 93.5 -30t35.5 -85zM397 376q0 74 -80 74 q-52 0 -99 -34q-76 -54 -109 -164q48 -15 102 -15q81 0 133.5 39t52.5 100zM470 614q0 -22 -17.5 -38.5t-39.5 -16.5q-16 0 -26 9.5t-10 25.5q0 22 17 39t39 17q16 0 26.5 -10t10.5 -26zM312 614q0 -22 -17 -38.5t-39 -16.5q-16 0 -26.5 9.5t-10.5 25.5q0 22 17.5 39 t39.5 17q16 0 26 -10t10 -26z" />
<glyph unicode="&#xec;" horiz-adv-x="252" d="M85 485h119l-84 -398q-5 -23 -5 -32q0 -21 24 -21q21 0 42 13l-9 -41q-20 -15 -54 -15q-29 0 -44.5 15t-15.5 41q0 15 5 37l76 358h-63zM271 556l-14 -18q-50 55 -107 55q-18 0 -39 -7q-6 10 -6 26q0 19 13.5 30.5t35.5 11.5q36 0 67.5 -30t49.5 -68z" />
<glyph unicode="&#xed;" horiz-adv-x="252" d="M85 485h119l-84 -398q-5 -23 -5 -32q0 -21 24 -21q21 0 42 13l-9 -41q-20 -15 -54 -15q-29 0 -44.5 15t-15.5 41q0 15 5 37l76 358h-63zM263 628q0 -24 -20 -42q-15 7 -37 7q-56 0 -129 -55l-8 18q35 38 78.5 68t80.5 30q35 0 35 -26z" />
<glyph unicode="&#xee;" horiz-adv-x="252" d="M85 485h119l-84 -398q-5 -23 -5 -32q0 -21 24 -21q21 0 42 13l-9 -41q-20 -15 -54 -15q-29 0 -44.5 15t-15.5 41q0 15 5 37l76 358h-63zM240 642l54 -94h-52l-43 78l-78 -78h-52l94 94q17 17 32 17h21q14 0 24 -17z" />
<glyph unicode="&#xef;" horiz-adv-x="252" d="M85 485h119l-84 -398q-5 -23 -5 -32q0 -21 24 -21q21 0 42 13l-9 -41q-20 -15 -54 -15q-29 0 -44.5 15t-15.5 41q0 15 5 37l76 358h-63zM320 614q0 -22 -17.5 -38.5t-39.5 -16.5q-16 0 -26 9.5t-10 25.5q0 22 17 39t39 17q16 0 26.5 -10t10.5 -26zM162 614 q0 -22 -17 -38.5t-39 -16.5q-16 0 -26.5 9.5t-10.5 25.5q0 22 17.5 39t39.5 17q16 0 26 -10t10 -26z" />
<glyph unicode="&#xf0;" horiz-adv-x="502" d="M481 416q0 -56 -10 -114t-32.5 -114t-54.5 -99.5t-79.5 -70.5t-104.5 -27q-72 0 -116.5 43t-44.5 115q0 105 70.5 180.5t174.5 75.5q69 0 137 -36q2 18 2 55q0 103 -54 147l-38 -59l-27 16l39 61q-19 11 -62 11q-35 0 -65 -8l-7 39q29 11 80 11q45 0 80 -13l37 59l28 -15 l-37 -59q84 -50 84 -198zM415 327q-53 35 -121 35q-88 0 -142 -60.5t-54 -149.5q0 -53 27.5 -86t79.5 -33q53 0 93 29.5t63 78.5t35.5 93.5t18.5 92.5z" />
<glyph unicode="&#xf1;" horiz-adv-x="550" d="M492 47l-9 -41q-20 -15 -54 -15q-29 0 -44.5 15t-15.5 41q0 15 5 37l42 194q13 60 13 87q0 39 -25 60.5t-72 21.5q-74 0 -123 -59q-40 -50 -62 -154l-50 -234h-56l94 442h-63l9 43h108l-7 -69q24 34 66.5 56t91.5 22q62 0 103.5 -31.5t41.5 -89.5q0 -26 -14 -96l-40 -190 q-5 -23 -5 -32q0 -21 24 -21q21 0 42 13zM456 646h26q-25 -83 -86 -83q-25 0 -50 18.5t-40 18.5q-25 0 -44 -37h-26q25 83 86 83q23 0 48.5 -18.5t41.5 -18.5q25 0 44 37z" />
<glyph unicode="&#xf2;" horiz-adv-x="510" d="M472 329q0 -72 -27.5 -144.5t-75.5 -121.5q-70 -72 -169 -72q-73 0 -117.5 43t-44.5 122q0 72 27.5 144.5t75.5 121.5q70 72 169 72q71 0 116.5 -43.5t45.5 -121.5zM414 324q0 59 -29.5 92.5t-83.5 33.5q-62 0 -114 -50q-42 -42 -66.5 -108t-24.5 -131q0 -59 29.5 -92.5 t83.5 -33.5q62 0 114 50q42 42 66.5 108t24.5 131zM424 556l-14 -18q-50 55 -107 55q-18 0 -39 -7q-6 11 -6 26q0 19 13.5 30.5t35.5 11.5q36 0 67.5 -30t49.5 -68z" />
<glyph unicode="&#xf3;" horiz-adv-x="510" d="M472 329q0 -72 -27.5 -144.5t-75.5 -121.5q-70 -72 -169 -72q-73 0 -117.5 43t-44.5 122q0 72 27.5 144.5t75.5 121.5q70 72 169 72q71 0 116.5 -43.5t45.5 -121.5zM414 324q0 59 -29.5 92.5t-83.5 33.5q-62 0 -114 -50q-42 -42 -66.5 -108t-24.5 -131q0 -59 29.5 -92.5 t83.5 -33.5q62 0 114 50q42 42 66.5 108t24.5 131zM425 628q0 -24 -20 -42q-15 7 -37 7q-56 0 -129 -55l-8 18q35 38 78.5 68t80.5 30q35 0 35 -26z" />
<glyph unicode="&#xf4;" horiz-adv-x="510" d="M472 329q0 -72 -27.5 -144.5t-75.5 -121.5q-70 -72 -169 -72q-73 0 -117.5 43t-44.5 122q0 72 27.5 144.5t75.5 121.5q70 72 169 72q71 0 116.5 -43.5t45.5 -121.5zM414 324q0 59 -29.5 92.5t-83.5 33.5q-62 0 -114 -50q-42 -42 -66.5 -108t-24.5 -131q0 -59 29.5 -92.5 t83.5 -33.5q62 0 114 50q42 42 66.5 108t24.5 131zM391 642l54 -94h-52l-43 78l-78 -78h-52l94 94q17 17 32 17h21q14 0 24 -17z" />
<glyph unicode="&#xf5;" horiz-adv-x="510" d="M472 329q0 -72 -27.5 -144.5t-75.5 -121.5q-70 -72 -169 -72q-73 0 -117.5 43t-44.5 122q0 72 27.5 144.5t75.5 121.5q70 72 169 72q71 0 116.5 -43.5t45.5 -121.5zM414 324q0 59 -29.5 92.5t-83.5 33.5q-62 0 -114 -50q-42 -42 -66.5 -108t-24.5 -131q0 -59 29.5 -92.5 t83.5 -33.5q62 0 114 50q42 42 66.5 108t24.5 131zM429 646h26q-25 -83 -86 -83q-25 0 -50 18.5t-40 18.5q-25 0 -44 -37h-26q25 83 86 83q23 0 48.5 -18.5t41.5 -18.5q25 0 44 37z" />
<glyph unicode="&#xf6;" horiz-adv-x="510" d="M472 329q0 -72 -27.5 -144.5t-75.5 -121.5q-70 -72 -169 -72q-73 0 -117.5 43t-44.5 122q0 72 27.5 144.5t75.5 121.5q70 72 169 72q71 0 116.5 -43.5t45.5 -121.5zM414 324q0 59 -29.5 92.5t-83.5 33.5q-62 0 -114 -50q-42 -42 -66.5 -108t-24.5 -131q0 -59 29.5 -92.5 t83.5 -33.5q62 0 114 50q42 42 66.5 108t24.5 131zM458 614q0 -22 -17.5 -38.5t-39.5 -16.5q-16 0 -26 9.5t-10 25.5q0 22 17 39t39 17q16 0 26.5 -10t10.5 -26zM300 614q0 -22 -17 -38.5t-39 -16.5q-16 0 -26.5 9.5t-10.5 25.5q0 22 17.5 39t39.5 17q16 0 26 -10t10 -26z " />
<glyph unicode="&#xf7;" horiz-adv-x="470" d="M310 447q0 -18 -14 -32t-32 -14q-13 0 -22 8.5t-9 21.5q0 18 14.5 31.5t32.5 13.5q13 0 21.5 -8t8.5 -21zM109 342h286l-10 -44h-286zM260 210q0 -18 -14 -32t-32 -14q-13 0 -22 8.5t-9 21.5q0 18 14.5 31.5t32.5 13.5q13 0 21.5 -8t8.5 -21z" />
<glyph unicode="&#xf8;" horiz-adv-x="510" d="M433 549h49l-62 -92q52 -46 52 -128q0 -72 -27.5 -144.5t-75.5 -121.5q-70 -72 -169 -72q-44 0 -80 17l-51 -77h-49l66 99q-48 45 -48 126q0 72 27.5 144.5t75.5 121.5q70 72 169 72q43 0 76 -15zM414 324q0 53 -25 86l-241 -360q26 -15 61 -15q62 0 114 50 q42 42 66.5 108t24.5 131zM118 78l240 359q-26 13 -57 13q-62 0 -114 -50q-42 -42 -66.5 -108t-24.5 -131q0 -52 22 -83z" />
<glyph unicode="&#xf9;" horiz-adv-x="532" d="M438 485h56l-84 -394q-5 -23 -5 -32q0 -21 24 -21q22 0 43 13l-9 -41q-20 -15 -54 -15q-30 0 -47 19t-13 49q-23 -31 -66 -51.5t-88 -20.5q-62 0 -103.5 31.5t-41.5 89.5q0 26 14 96l58 277h57l-60 -278q-13 -60 -13 -87q0 -39 25 -60.5t72 -21.5q74 0 123 59 q40 50 62 154zM409 556l-14 -18q-50 55 -107 55q-18 0 -39 -7q-6 11 -6 26q0 19 13.5 30.5t35.5 11.5q36 0 67.5 -30t49.5 -68z" />
<glyph unicode="&#xfa;" horiz-adv-x="532" d="M438 485h56l-84 -394q-5 -23 -5 -32q0 -21 24 -21q22 0 43 13l-9 -41q-20 -15 -54 -15q-30 0 -47 19t-13 49q-23 -31 -66 -51.5t-88 -20.5q-62 0 -103.5 31.5t-41.5 89.5q0 26 14 96l58 277h57l-60 -278q-13 -60 -13 -87q0 -39 25 -60.5t72 -21.5q74 0 123 59 q40 50 62 154zM422 628q0 -24 -20 -42q-15 7 -37 7q-56 0 -129 -55l-8 18q35 38 78.5 68t80.5 30q35 0 35 -26z" />
<glyph unicode="&#xfb;" horiz-adv-x="532" d="M438 485h56l-84 -394q-5 -23 -5 -32q0 -21 24 -21q22 0 43 13l-9 -41q-20 -15 -54 -15q-30 0 -47 19t-13 49q-23 -31 -66 -51.5t-88 -20.5q-62 0 -103.5 31.5t-41.5 89.5q0 26 14 96l58 277h57l-60 -278q-13 -60 -13 -87q0 -39 25 -60.5t72 -21.5q74 0 123 59 q40 50 62 154zM379 642l54 -94h-52l-43 78l-78 -78h-52l94 94q17 17 32 17h21q14 0 24 -17z" />
<glyph unicode="&#xfc;" horiz-adv-x="532" d="M438 485h56l-84 -394q-5 -23 -5 -32q0 -21 24 -21q22 0 43 13l-9 -41q-20 -15 -54 -15q-30 0 -47 19t-13 49q-23 -31 -66 -51.5t-88 -20.5q-62 0 -103.5 31.5t-41.5 89.5q0 26 14 96l58 277h57l-60 -278q-13 -60 -13 -87q0 -39 25 -60.5t72 -21.5q74 0 123 59 q40 50 62 154zM453 614q0 -22 -17.5 -38.5t-39.5 -16.5q-16 0 -26 9.5t-10 25.5q0 22 17 39t39 17q16 0 26.5 -10t10.5 -26zM295 614q0 -22 -17 -38.5t-39 -16.5q-16 0 -26.5 9.5t-10.5 25.5q0 22 17.5 39t39.5 17q16 0 26 -10t10 -26z" />
<glyph unicode="&#xfd;" horiz-adv-x="522" d="M440 485h56l-97 -464q-21 -102 -68 -157q-30 -34 -77 -55t-102 -21q-76 0 -120.5 33t-44.5 85q0 84 117 109q-51 34 -51 97q0 26 14 96l58 277h57l-60 -278q-13 -60 -13 -87q0 -39 25 -60.5t72 -21.5q74 0 123 59q40 50 62 154zM340 11l12 58q-47 -63 -163 -76 q-82 -10 -116.5 -27t-34.5 -58q0 -36 31 -58.5t80 -22.5q83 0 132 52q41 43 59 132zM424 628q0 -24 -20 -42q-15 7 -37 7q-56 0 -129 -55l-8 18q35 38 78.5 68t80.5 30q35 0 35 -26z" />
<glyph unicode="&#xfe;" horiz-adv-x="519" d="M481 328q0 -77 -27 -152t-86.5 -130t-139.5 -55q-41 0 -75.5 23t-45.5 56l-59 -269h-56l187 882h56l-56 -264q22 35 61.5 55t84.5 20q74 0 115 -45.5t41 -120.5zM424 327q0 54 -27 89t-82 35q-67 0 -108.5 -47.5t-58.5 -128.5l-14 -68q-8 -44 -8 -67q0 -49 28.5 -77.5 t75.5 -28.5q49 0 88.5 29.5t61.5 75t33 94.5t11 94z" />
<glyph unicode="&#xff;" horiz-adv-x="522" d="M440 485h56l-97 -464q-21 -102 -68 -157q-30 -34 -77 -55t-102 -21q-76 0 -120.5 33t-44.5 85q0 84 117 109q-51 34 -51 97q0 26 14 96l58 277h57l-60 -278q-13 -60 -13 -87q0 -39 25 -60.5t72 -21.5q74 0 123 59q40 50 62 154zM340 11l12 58q-47 -63 -163 -76 q-82 -10 -116.5 -27t-34.5 -58q0 -36 31 -58.5t80 -22.5q83 0 132 52q41 43 59 132zM456 614q0 -22 -17.5 -38.5t-39.5 -16.5q-16 0 -26 9.5t-10 25.5q0 22 17 39t39 17q16 0 26.5 -10t10.5 -26zM298 614q0 -22 -17 -38.5t-39 -16.5q-16 0 -26.5 9.5t-10.5 25.5 q0 22 17.5 39t39.5 17q16 0 26 -10t10 -26z" />
<glyph unicode="&#x11e;" horiz-adv-x="572" d="M552 483v-6h-54q0 57 -30 88t-85 31q-84 0 -147 -65q-57 -59 -89.5 -154t-32.5 -180q0 -160 148 -160q36 0 75.5 14t66.5 34l30 143h-91l8 39h149l-56 -267h-43v36q-66 -45 -156 -45q-95 0 -144.5 53.5t-49.5 148.5q0 97 37.5 199.5t104.5 168.5q83 81 195 81 q72 0 118 -41.5t46 -117.5zM483 788h37q-27 -101 -123 -101q-39 0 -63 21t-24 57q0 7 2 23h37q2 -30 14 -44t40 -14q53 0 80 58z" />
<glyph unicode="&#x11f;" horiz-adv-x="523" d="M458 473l38 12l-98 -465q-23 -105 -67 -156q-30 -34 -77 -55t-102 -21q-76 0 -120.5 33t-44.5 85q0 47 36 76t92 38q-31 18 -48 56t-17 81q0 132 92.5 234.5t223.5 102.5q52 0 92 -21zM392 256l39 184q-24 12 -61 12q-78 0 -139.5 -45t-92 -111t-30.5 -135 q0 -57 26.5 -88t76.5 -31q72 0 118 57q40 49 63 157zM340 11l12 58q-44 -59 -163 -73q-80 -10 -115.5 -28t-35.5 -60q0 -37 31 -59t80 -22q83 0 132 52q41 43 59 132zM461 646h37q-27 -101 -123 -101q-39 0 -63 21t-24 57q0 7 2 23h37q2 -30 14 -44t40 -14q53 0 80 58z" />
<glyph unicode="&#x130;" horiz-adv-x="325" d="M147 633h195l-8 -39h-67l-118 -555h67l-8 -39h-195l8 39h67l118 555h-67zM319 760q0 -26 -22 -46.5t-48 -20.5q-19 0 -31 12.5t-12 31.5q0 26 21 46.5t47 20.5q19 0 32 -12.5t13 -31.5z" />
<glyph unicode="&#x131;" horiz-adv-x="252" d="M85 485h119l-84 -398q-5 -23 -5 -32q0 -21 24 -21q21 0 42 13l-9 -41q-20 -15 -54 -15q-29 0 -44.5 15t-15.5 41q0 15 5 37l76 358h-63z" />
<glyph unicode="&#x152;" horiz-adv-x="826" d="M553 633h295l-9 -44h-283l-52 -246h230l-10 -43h-230l-54 -256h305l-9 -44h-326q-35 0 -91.5 -4.5t-84.5 -4.5q-91 0 -137 55t-46 147q0 83 30 173.5t84 158.5q93 117 227 117q26 0 79 -4.5t82 -4.5zM397 126l85 398q8 37 -12 54q-22 18 -88 18q-63 0 -116 -41.5 t-85 -104t-49.5 -129.5t-17.5 -124q0 -69 29.5 -114.5t93.5 -45.5q86 0 118 17q30 17 42 72z" />
<glyph unicode="&#x153;" horiz-adv-x="830" d="M810 379q0 -75 -68.5 -129t-180.5 -54q-53 0 -104 18q-4 -20 -4 -46q0 -63 29 -95q32 -37 99 -37q39 0 83 15t74 35l-10 -51q-69 -44 -159 -44q-86 0 -130 46q-27 29 -37 67q-16 -24 -33 -41q-70 -72 -169 -72q-73 0 -117.5 43t-44.5 122q0 72 27.5 144.5t75.5 121.5 q70 72 169 72q60 0 102 -30.5t55 -87.5q15 21 34 40q35 35 82.5 56.5t95.5 21.5q66 0 101 -35q30 -30 30 -80zM753 376q0 33 -19 52q-22 22 -62 22q-51 0 -98 -34q-76 -54 -109 -164q45 -14 93 -14q83 0 139 38.5t56 99.5zM414 324q0 59 -29.5 92.5t-83.5 33.5 q-62 0 -114 -50q-42 -42 -66.5 -108t-24.5 -131q0 -59 29.5 -92.5t83.5 -33.5q62 0 114 50q42 42 66.5 108t24.5 131z" />
<glyph unicode="&#x15e;" horiz-adv-x="475" d="M250 -92q0 -41 -40 -57.5t-87 -16.5l-1 24q83 4 83 36q0 14 -40.5 24.5t-40.5 27.5q0 19 24 46q-82 6 -131 38l10 48q58 -42 143 -42q74 0 128.5 36t54.5 106q0 32 -18 57t-45.5 40t-59 33.5t-59 36t-45.5 48t-18 69.5q0 58 35.5 100.5t86.5 61t107 18.5q62 0 121 -23 l-9 -42q-50 20 -116 20q-67 0 -116.5 -33t-49.5 -96q0 -31 18 -56t45.5 -40.5t59 -34t59 -36.5t45.5 -49t18 -70q0 -90 -68.5 -138.5t-163.5 -51.5q-11 -14 -11 -23t20.5 -14.5t40.5 -16t20 -30.5z" />
<glyph unicode="&#x15f;" horiz-adv-x="406" d="M231 -92q0 -41 -40 -57.5t-87 -16.5l-1 24q83 4 83 36q0 14 -40.5 24.5t-40.5 27.5q0 19 24 46q-70 5 -119 36l10 45q56 -40 133 -40q61 0 100 26t39 73q0 31 -22.5 51.5t-79.5 50.5q-33 18 -51.5 31t-35.5 38t-17 56q0 57 51 96t137 39q70 0 112 -21l-8 -41 q-48 20 -107 20t-94.5 -25.5t-35.5 -63.5q0 -30 21.5 -50t63.5 -42q68 -36 95 -64t27 -71q0 -71 -55 -106.5t-132 -38.5q-11 -13 -11 -22q0 -7 12.5 -12.5t28 -9t28 -13.5t12.5 -26z" />
<glyph unicode="&#x178;" horiz-adv-x="477" d="M490 633h56l-283 -410l-47 -223h-61l48 226l-111 407h63l81 -300q11 -41 9 -64h1q6 19 35 61zM461 759q0 -22 -17.5 -38.5t-39.5 -16.5q-16 0 -26 9.5t-10 25.5q0 22 17 39t39 17q16 0 26.5 -10t10.5 -26zM303 759q0 -22 -17 -38.5t-39 -16.5q-16 0 -26.5 9.5t-10.5 25.5 q0 22 17.5 39t39.5 17q16 0 26 -10t10 -26z" />
<glyph unicode="&#x2c6;" horiz-adv-x="250" d="M241 642l54 -94h-52l-43 78l-78 -78h-52l94 94q17 17 32 17h21q14 0 24 -17z" />
<glyph unicode="&#x2da;" horiz-adv-x="250" d="M281 641q0 -40 -29.5 -68t-69.5 -28q-28 0 -46.5 16t-18.5 44q0 39 30 67.5t69 28.5q28 0 46.5 -16t18.5 -44zM245 635q0 17 -9.5 26.5t-26.5 9.5q-23 0 -39.5 -18t-16.5 -42q0 -17 9.5 -26.5t26.5 -9.5q23 0 39.5 18t16.5 42z" />
<glyph unicode="&#x2dc;" horiz-adv-x="250" d="M296 646h26q-25 -83 -86 -83q-25 0 -50 18.5t-40 18.5q-25 0 -44 -37h-26q25 83 86 83q23 0 48.5 -18.5t41.5 -18.5q25 0 44 37z" />
<glyph unicode="&#x2000;" horiz-adv-x="421" />
<glyph unicode="&#x2001;" horiz-adv-x="843" />
<glyph unicode="&#x2002;" horiz-adv-x="421" />
<glyph unicode="&#x2003;" horiz-adv-x="843" />
<glyph unicode="&#x2004;" horiz-adv-x="281" />
<glyph unicode="&#x2005;" horiz-adv-x="210" />
<glyph unicode="&#x2006;" horiz-adv-x="140" />
<glyph unicode="&#x2007;" horiz-adv-x="140" />
<glyph unicode="&#x2008;" horiz-adv-x="105" />
<glyph unicode="&#x2009;" horiz-adv-x="168" />
<glyph unicode="&#x200a;" horiz-adv-x="46" />
<glyph unicode="&#x2010;" horiz-adv-x="260" d="M30 261h204l-10 -47h-204z" />
<glyph unicode="&#x2011;" horiz-adv-x="260" d="M30 261h204l-10 -47h-204z" />
<glyph unicode="&#x2012;" horiz-adv-x="260" d="M30 261h204l-10 -47h-204z" />
<glyph unicode="&#x2013;" d="M4 299h500l-8 -40h-500z" />
<glyph unicode="&#x2014;" horiz-adv-x="1000" d="M4 299h1000l-8 -40h-1000z" />
<glyph unicode="&#x2018;" horiz-adv-x="148" d="M186 642l12 -17q-53 -42 -65 -85q31 -7 31 -33q0 -20 -15 -34.5t-35 -14.5q-16 0 -26 10t-10 26q0 40 34.5 83t73.5 65z" />
<glyph unicode="&#x2019;" horiz-adv-x="148" d="M192 606q0 -40 -34.5 -83t-73.5 -65l-12 17q53 42 65 85q-31 7 -31 33q0 20 15 34.5t35 14.5q16 0 26 -10t10 -26z" />
<glyph unicode="&#x201a;" horiz-adv-x="216" d="M108 25q0 -40 -34.5 -83t-73.5 -65l-12 17q53 42 65 85q-31 7 -31 33q0 20 15 34.5t35 14.5q16 0 26 -9.5t10 -26.5z" />
<glyph unicode="&#x201c;" horiz-adv-x="270" d="M308 643l12 -17q-53 -42 -65 -85q31 -7 31 -33q0 -20 -15 -34.5t-35 -14.5q-16 0 -26 9.5t-10 26.5q0 40 34.5 83t73.5 65zM186 643l12 -17q-53 -42 -65 -85q31 -7 31 -33q0 -20 -15 -34.5t-35 -14.5q-16 0 -26 9.5t-10 26.5q0 40 34.5 83t73.5 65z" />
<glyph unicode="&#x201d;" horiz-adv-x="270" d="M314 606q0 -40 -34.5 -83t-73.5 -65l-12 17q53 42 65 85q-31 7 -31 33q0 20 15 34.5t35 14.5q16 0 26 -10t10 -26zM192 606q0 -40 -34.5 -83t-73.5 -65l-12 17q53 42 65 85q-31 7 -31 33q0 20 15 34.5t35 14.5q16 0 26 -10t10 -26z" />
<glyph unicode="&#x201e;" horiz-adv-x="338" d="M230 24q0 -40 -34.5 -83t-73.5 -65l-12 17q53 42 65 85q-31 7 -31 33q0 20 15 34.5t35 14.5q16 0 26 -10t10 -26zM108 24q0 -40 -34.5 -83t-73.5 -65l-12 17q53 42 65 85q-31 7 -31 33q0 20 15 34.5t35 14.5q16 0 26 -10t10 -26z" />
<glyph unicode="&#x2022;" horiz-adv-x="300" d="M245 334q0 -38 -30.5 -68t-68.5 -30q-28 0 -47 18t-19 46q0 38 31 67.5t69 29.5q28 0 46.5 -17.5t18.5 -45.5z" />
<glyph unicode="&#x2026;" horiz-adv-x="525" d="M415 46q0 -19 -16 -34t-35 -15q-14 0 -23 9t-9 23q0 19 15 34t35 15q14 0 23.5 -9t9.5 -23zM263 46q0 -19 -16 -34t-35 -15q-14 0 -23 9t-9 23q0 19 15 34t35 15q14 0 23.5 -9t9.5 -23zM112 46q0 -19 -16 -34t-35 -15q-14 0 -23 9t-9 23q0 19 15 34t35 15q14 0 23.5 -9 t9.5 -23z" />
<glyph unicode="&#x202f;" horiz-adv-x="168" />
<glyph unicode="&#x2039;" horiz-adv-x="249" d="M222 405l5 -39l-120 -124l68 -124l-23 -39l-100 147q-7 12 -6 16q1 5 12 16z" />
<glyph unicode="&#x203a;" horiz-adv-x="249" d="M207 242q-1 -5 -12 -16l-164 -147l-5 39l120 124l-68 124l23 39l100 -147q7 -12 6 -16z" />
<glyph unicode="&#x205f;" horiz-adv-x="210" />
<glyph unicode="&#x20ac;" d="M520 479h-48q0 58 -27 88t-77 30q-77 0 -132 -63.5t-85 -161.5h176l-9 -45h-180q-6 -30 -8 -44h179l-8 -45h-177q-2 -28 -2 -40q0 -76 33 -118t99 -42q95 0 168 55l-11 -55q-75 -47 -160 -47q-90 0 -137.5 52t-47.5 152q0 28 1 43h-66l8 45h64q2 12 8 44h-63l8 45h67 q35 116 107 193t170 77q71 0 111 -43t39 -120z" />
<glyph unicode="&#x2122;" horiz-adv-x="643" d="M631 633h39l-72 -342h-39l53 251q-8 -12 -13 -23l-143 -228h-31l-52 236q-1 2 -1.5 7t-0.5 7l-53 -250h-38l72 342h37l65 -285zM76 633h243l-6 -31h-101l-66 -311h-41l66 311h-101z" />
<glyph unicode="&#x25fc;" horiz-adv-x="485" d="M0 485h485v-485h-485v485z" />
</font>
</defs>
</svg>
