<svg id="Capa_1" enable-background="new 0 0 512.003 512.003" height="512" viewBox="0 0 512.003 512.003" width="512" xmlns="http://www.w3.org/2000/svg"><g><path d="m327.002 360.003v72c0 8.28-6.72 15-15 15h-112c-8.28 0-15-6.72-15-15v-72c0-8.28 6.72-15 15-15h112c8.28 0 15 6.719 15 15z" fill="#865240"/><path d="m327.002 360.003v72c0 8.28-6.72 15-15 15h-56v-102h56c8.28 0 15 6.719 15 15z" fill="#5c3629"/><path d="m303.002 120.003c0 8.28-6.72 15-15 15h-17v49c0 8.28-6.72 15-15 15s-15-6.72-15-15v-49h-17c-8.28 0-15-6.72-15-15s6.72-15 15-15h64c8.28 0 15 6.719 15 15z" fill="#ffb454"/><path d="m303.002 120.003c0 8.28-6.72 15-15 15h-17v49c0 8.28-6.72 15-15 15v-94h32c8.28 0 15 6.719 15 15z" fill="#ff7d47"/><path d="m431.002 344.003c0 5.68-3.21 10.88-8.29 13.42-2.09 1.04-52.48 25.58-166.71 25.58s-164.62-24.54-166.71-25.58c-5.08-2.54-8.29-7.74-8.29-13.42 0-96.5 78.5-175 175-175s175 78.5 175 175z" fill="#fff16b"/><path d="m431.002 344.003c0 5.68-3.21 10.88-8.29 13.42-2.09 1.04-52.48 25.58-166.71 25.58v-214c96.5 0 175 78.5 175 175z" fill="#ffb454"/><path d="m448.002 512.003h-384c-11.072 0-18.36-11.627-13.47-21.6 22.091-45.104 23.693-48.419 23.76-48.52 7.67-15.35 23.1-24.88 40.25-24.88h282.92c17.15 0 32.58 9.53 40.25 24.88.066.1-.494-1 23.76 48.52 4.876 9.943-2.363 21.6-13.47 21.6z" fill="#af8663"/><path d="m448.002 512.003h-192v-95h141.46c17.15 0 32.58 9.53 40.25 24.88.066.1-.494-1 23.76 48.52 4.876 9.943-2.363 21.6-13.47 21.6z" fill="#865240"/><path d="m160.002 135.003h-40c-8.284 0-15-6.716-15-15s6.716-15 15-15h40c8.284 0 15 6.716 15 15s-6.715 15-15 15z" fill="#ff405c"/><path d="m392.002 135.003h-40c-8.284 0-15-6.716-15-15s6.716-15 15-15h40c8.284 0 15 6.716 15 15s-6.715 15-15 15z" fill="#c30047"/><path d="m212.016 65.646c-5.249 0-10.343-2.76-13.095-7.662l-20-35.641c-4.054-7.225-1.484-16.368 5.74-20.422 7.224-4.055 16.368-1.483 20.422 5.74l20 35.641c5.651 10.07-1.751 22.344-13.067 22.344z" fill="#ff405c"/><path d="m299.989 65.646c-11.293 0-18.727-12.257-13.067-22.344l20-35.641c4.055-7.225 13.199-9.792 20.422-5.74 7.225 4.054 9.794 13.197 5.74 20.422l-20 35.641c-2.752 4.903-7.847 7.662-13.095 7.662z" fill="#c30047"/></g></svg>