<svg height="512" viewBox="0 0 64 64" width="512" xmlns="http://www.w3.org/2000/svg"><g id="Racing_Car" data-name="Racing Car"><circle cx="17" cy="42" fill="#57565c" r="6"/><circle cx="49" cy="42" fill="#57565c" r="6"/><path d="m3 32v-4l4.18-2h14.46l12.36 16h-11a6 6 0 0 0 -12 0h-6a2.006 2.006 0 0 1 -2-2z" fill="#ff6243"/><path d="m61 38v2a2.006 2.006 0 0 1 -2 2h-4a6 6 0 0 0 -12 0h-9l-12.36-16h31.36a7.969 7.969 0 0 1 6.92 4h-3.92a1 1 0 0 0 -1 1v2a1 1 0 0 0 1 1h5z" fill="#ff7956"/><path d="m8 25.61 9.74-4.66 3.9 5.05h-14.46z" fill="#d1d3d4"/><path d="m61 34h-5a1 1 0 0 1 -1-1v-2a1 1 0 0 1 1-1h3.92a7.851 7.851 0 0 1 1.08 4z" fill="#e6e7e8"/><path d="m44 26h-22.36l-3.9-5.05 8.26-3.95h5z" fill="#e6e7e8"/><path d="m53 25h-8.688l-12.743-8.822a1 1 0 0 0 -.569-.178h-5a1 1 0 0 0 -.432.1l-16.568 7.922v-2.022h2v-2h-5.586l-1.707-1.707-1.414 1.414 2 2a1 1 0 0 0 .707.293h2v2.978l-4.432 2.122a1 1 0 0 0 -.568.9v12a3 3 0 0 0 3 3h5.08a6.991 6.991 0 0 0 13.84 0h18.16a6.991 6.991 0 0 0 13.84 0h3.08a3 3 0 0 0 3-3v-6a9.01 9.01 0 0 0 -9-9zm6.315 6a6.937 6.937 0 0 1 .605 2h-3.92v-2zm-33.088-13h4.46l10.113 7h-18.668l-2.844-3.682zm-6.622 7h-8.014l5.852-2.8zm-15.605 15v-7h3v-2h-3v-2.37l3.409-1.63h13.741l10.814 14h-8.044a6.991 6.991 0 0 0 -13.84 0h-5.08a1 1 0 0 1 -1-1zm13 7a5 5 0 1 1 5-5 5.006 5.006 0 0 1 -5 5zm32 0a5 5 0 1 1 5-5 5.006 5.006 0 0 1 -5 5zm10-6h-3.08a6.991 6.991 0 0 0 -13.84 0h-7.589l-10.814-14h29.323a6.971 6.971 0 0 1 4.889 2h-1.889a2 2 0 0 0 -2 2v2a2 2 0 0 0 2 2h4v2h-3v2h3v1a1 1 0 0 1 -1 1z"/><path d="m29 29h4v2h-4z"/><path d="m16 41h2v2h-2z"/><path d="m48 41h2v2h-2z"/></g></svg>