<svg height="512" viewBox="0 0 64 64" width="512" xmlns="http://www.w3.org/2000/svg"><g id="Taxi_Driver-Customer-Driver-Taxi-Transport" data-name="Taxi Driver-Customer-Driver-Taxi-Transport"><circle cx="58" cy="43" fill="#ebbf00" r="2"/><circle cx="24" cy="43" fill="#ebbf00" r="2"/><path d="m59 47v8a2.006 2.006 0 0 1 -2 2h-32a1.976 1.976 0 0 1 -1.5-.69 1.925 1.925 0 0 1 -.5-1.31v-8a2.006 2.006 0 0 1 2-2h32a2.006 2.006 0 0 1 2 2z" fill="#ffd422"/><path d="m29 57v3a1 1 0 0 1 -1 1h-4a1 1 0 0 1 -1-1v-5a1.925 1.925 0 0 0 .5 1.31 1.976 1.976 0 0 0 1.5.69z" fill="#57565c"/><path d="m59 55v5a1 1 0 0 1 -1 1h-4a1 1 0 0 1 -1-1v-3h4a2.006 2.006 0 0 0 2-2z" fill="#57565c"/><circle cx="53" cy="51" fill="#ff9811" r="2"/><path d="m54 37h-26l.81-3.24a1 1 0 0 1 .97-.76h22.44a1 1 0 0 1 .97.76z" fill="#ffd422"/><path d="m36 29h10v4h-10z" fill="#ebbf00"/><path d="m57 45h-32l3-8h26z" fill="#e6e7e8"/><circle cx="29" cy="51" fill="#ff9811" r="2"/><path d="m25 57h4v2h-4a1.976 1.976 0 0 1 -1.5-.69 1.925 1.925 0 0 1 -.5-1.31v-2a1.925 1.925 0 0 0 .5 1.31 1.976 1.976 0 0 0 1.5.69z" fill="#3e3d42"/><path d="m59 55v2a2.006 2.006 0 0 1 -2 2h-4v-2h4a2.006 2.006 0 0 0 2-2z" fill="#3e3d42"/><path d="m57 45h-14l8-8h3z" fill="#e0e0e2"/><path d="m15 61h-8v-13h16v7 5 1z" fill="#6c6b74"/><path d="m23.44 27.42-2.74-1.22-2.7 2.8-3-3-3 3-2.7-2.8-2.74 1.22a6 6 0 0 0 -3.56 5.48v14.1h4v1h16v-1h4v-14.1a6 6 0 0 0 -3.56-5.48z" fill="#787680"/><path d="m20.7 26.2-2.7 2.8-3-3 3-1z" fill="#57565c"/><path d="m15 26-3 3-2.7-2.8 2.7-1.2z" fill="#57565c"/><g fill="#ffc477"><path d="m27 47v1a3 3 0 0 1 -3 3h-1v-4z"/><path d="m7 48v3h-1a3 3 0 0 1 -3-3v-1h4z"/><path d="m12 22v.32.68 2l3 1 3-1v-2-.68-.32z"/></g><path d="m25 15a2.006 2.006 0 0 1 -2 2h-2v-4h2a2.006 2.006 0 0 1 2 2z" fill="#ffb655"/><path d="m9 13v4h-2a2 2 0 0 1 0-4z" fill="#ffb655"/><path d="m22 11v5a5.474 5.474 0 0 1 -.08 1 6.952 6.952 0 0 1 -3.92 5.32 6.982 6.982 0 0 1 -9.92-5.32 5.474 5.474 0 0 1 -.08-1v-5z" fill="#ffc477"/><path d="m24 5-.67 2h-16.66l-.67-2 2-2h14z" fill="#787680"/><path d="m23.33 7-1.33 4h-14l-1.33-4z" fill="#ffd422"/><path d="m18 22.32v2a6.958 6.958 0 0 1 -6 0v-2a6.958 6.958 0 0 0 6 0z" fill="#ffb655"/><path d="m22 11a3.989 3.989 0 0 1 -.54 2 3.574 3.574 0 0 1 -.46.64 3.984 3.984 0 0 1 -3 1.36h-6a3.984 3.984 0 0 1 -3-1.36 3.574 3.574 0 0 1 -.46-.64 3.989 3.989 0 0 1 -.54-2z" fill="#787680"/><path d="m23.85 26.51-4.85-2.16v-1.43a8.06 8.06 0 0 0 3.74-4.92h.26a3 3 0 0 0 0-6v-.84l1.95-5.84a1.028 1.028 0 0 0 -.24-1.03l-2-2a1.033 1.033 0 0 0 -.71-.29h-14a1.033 1.033 0 0 0 -.71.29l-2 2a1.028 1.028 0 0 0 -.24 1.03l1.95 5.84v.84a3 3 0 0 0 0 6h.26a8.06 8.06 0 0 0 3.74 4.92v1.43l-4.85 2.16a7 7 0 0 0 -4.15 6.39v15.1a4 4 0 0 0 4 4v9a1 1 0 0 0 1 1h16a1 1 0 0 0 1-1v-9a4 4 0 0 0 4-4v-15.1a7 7 0 0 0 -4.15-6.39zm-.85-12.51a1 1 0 0 1 0 2zm-16 2a1 1 0 0 1 0-2zm.14-10.73 1.27-1.27h13.18l1.27 1.27-.25.73h-15.22zm.91 2.73h13.9l-.67 2h-12.56zm12.78 4a3.014 3.014 0 0 1 -2.83 2h-6a3.014 3.014 0 0 1 -2.83-2zm-11.83 4v-1.03a4.924 4.924 0 0 0 3 1.03h6a4.924 4.924 0 0 0 3-1.03v1.03a6 6 0 0 1 -12 0zm4 8.28v-.54a7.822 7.822 0 0 0 4 0v.54l-2 .67zm.15 2.16-1.14 1.13-1-1.04 1.04-.46zm4.8-.37 1.04.46-1 1.04-1.14-1.13zm-11.95 23.93a2.006 2.006 0 0 1 -2-2h2zm16 10h-6v-8h-2v8h-6v-11h14zm2-10v-2h2a2.006 2.006 0 0 1 -2 2zm2-4h-2v-14h-2v15h-14v-15h-2v14h-2v-13.1a5.009 5.009 0 0 1 2.97-4.57l2.1-.93 2.21 2.29a.97.97 0 0 0 .71.31h.01a1.052 1.052 0 0 0 .71-.29l2.29-2.3 2.29 2.3a1.052 1.052 0 0 0 .71.29h.01a.97.97 0 0 0 .71-.31l2.21-2.29 2.1.93a5.009 5.009 0 0 1 2.97 4.57z"/><path d="m36 52h10v2h-10z"/><path d="m36 48h10v2h-10z"/><path d="m56 51a3 3 0 1 0 -3 3 3 3 0 0 0 3-3zm-4 0a1 1 0 1 1 1 1 1 1 0 0 1 -1-1z"/><path d="m29 54a3 3 0 0 0 0-6v2a1 1 0 1 1 -.867 1.5l-1.731 1a3.01 3.01 0 0 0 2.598 1.5z"/><path d="m61 43a3.009 3.009 0 0 0 -3-3 2.942 2.942 0 0 0 -1.62.49l-1.42-3.79-.8-3.19a1.992 1.992 0 0 0 -1.94-1.51h-5.22v-3a1 1 0 0 0 -1-1h-10a1 1 0 0 0 -1 1v3h-5v2h22.22l.5 2h-22.72v2h23.31l2.25 6h-17.7a3.983 3.983 0 0 0 -7.72 0h-.14v2h27a1 1 0 0 1 1 1v8a1 1 0 0 1 -1 1h-31v2h2v2h-2v2h2a2.006 2.006 0 0 0 2-2v-2h22v2a2.006 2.006 0 0 0 2 2h4a2.006 2.006 0 0 0 2-2v-13a2.942 2.942 0 0 0 -.4-1.47 2.983 2.983 0 0 0 1.4-2.53zm-16-11h-8v-2h8zm-12.72 12a1.979 1.979 0 0 1 3.44 0zm25.72 16h-4v-2h3a3 3 0 0 0 1-.18zm0-16a.96.96 0 0 1 -.33-.06l-.53-1.43a.973.973 0 0 1 .86-.51 1 1 0 0 1 0 2z"/></g></svg>