<svg id="filled_outline" height="512" viewBox="0 0 512 512" width="512" xmlns="http://www.w3.org/2000/svg" data-name="filled outline"><path d="m376 264-16-64h96v24l-40 56z" fill="#ffceb6"/><path d="m416 280-16 88-32 24h-96v96h-192v-56h-8l-48-40v-40l20.40991-88.43994a32.00181 32.00181 0 0 1 18.18018-22.05006l16.62991-7.38988 40.78-18.12012 17.14014-22.85986 16.09986-21.46021h45.52l16.09985 21.46021 17.14015 22.85986 40.78027 18.12012 31.21973 13.87988 34.71973 78.12988 37.28027-62.12988z" fill="#e0edff"/><path d="m80 432h128v-24l48 16 16-24v88h-192z" fill="#62798c"/><path d="m272.78 234.12-16.78 125.88h-160l-16.78-125.88 40.78-18.12 9.6 19.2 21.78 35.57 16.62 33.23 8 16 8-16 16.62-33.23 21.78-35.57 9.6-19.2z" fill="#62798c"/><path d="m214.86 193.14-38.86 38.86-38.86-38.86 16.1-21.46h45.52z" fill="#ffbfa1"/><path d="m192 265.6 24 14.4 16-8v-32l-16-8-24 14.4z" fill="#e35430"/><path d="m160 240h32v32h-32z" fill="#ef5e3b"/><path d="m160 265.6-24 14.4-16-8v-32l16-8 24 14.4z" fill="#e35430"/><path d="m208 360 40-16 48 32v16l-24 8-16 24-48-16z" fill="#ffceb6"/><path d="m208 360v80l-48 48h-40v-128z" fill="#ffc431"/><path d="m312 168h176a0 0 0 0 1 0 0 32 32 0 0 1 -32 32h-112a32 32 0 0 1 -32-32 0 0 0 0 1 0 0z" fill="#548aff"/><path d="m368 24h64a0 0 0 0 1 0 0v32a32 32 0 0 1 -32 32 32 32 0 0 1 -32-32v-32a0 0 0 0 1 0 0z" fill="#d1e4ff"/><path d="m360 168 24-24h32l24 24z" fill="#d1e4ff"/><path d="m432 56h-64a31.99994 31.99994 0 0 0 31.99994 32h.00012a31.99994 31.99994 0 0 0 31.99994-31.99994z" fill="#ef5e3b"/><path d="m232 64v68.76563a55.99994 55.99994 0 0 1 -55.99994 55.99994h-.00012a56 56 0 0 1 -55.99994-55.99995v-68.76562z" fill="#ffceb6"/><path d="m192 24h-36a36 36 0 0 0 -36 36v4h72z" fill="#a36522"/><path d="m232 64h-12.6863a27.31368 27.31368 0 0 0 -19.3137 8 27.31368 27.31368 0 0 1 -19.31369 8h-.68631a28 28 0 0 1 -28-28 28 28 0 0 1 28-28h20a32 32 0 0 1 32 32z" fill="#b1712c"/><path d="m160 152h8a24.0275 24.0275 0 0 0 24-24v-8h-16v8a8.00917 8.00917 0 0 1 -8 8h-8z"/><circle cx="152" cy="104" r="8"/><circle cx="200" cy="104" r="8"/><path d="m488 160h-44.68555l-21.65722-21.65723a8.00235 8.00235 0 0 0 -5.65723-2.34277h-8v-40.80493a40.06838 40.06838 0 0 0 32-39.19507v-32a8.00039 8.00039 0 0 0 -8-8h-64a8.00039 8.00039 0 0 0 -8 8v32a40.06838 40.06838 0 0 0 32 39.19507v40.80493h-8a8.00235 8.00235 0 0 0 -5.65723 2.34277l-21.65722 21.65723h-44.68555a8.00039 8.00039 0 0 0 -8 8 40.04584 40.04584 0 0 0 40 40h9.75391l13.68115 54.72461-27.65283 46.08789-23.47266-52.81445a39.9306 39.9306 0 0 0 -20.30757-20.30762l-58.85058-26.15527-20.51929-27.35938a63.89853 63.89853 0 0 0 23.36787-49.41016v-76.76562a40.04584 40.04584 0 0 0 -40-40h-44a44.04978 44.04978 0 0 0 -44 44v72.76562a63.89853 63.89853 0 0 0 23.36792 49.41016l-20.51929 27.35938-55.50488 24.668a40.1951 40.1951 0 0 0 -22.72949 27.5586l-20.40918 88.43941a7.96578 7.96578 0 0 0 -.20508 1.79883v40a7.99862 7.99862 0 0 0 2.87891 6.14551l48 40a7.99881 7.99881 0 0 0 5.12109 1.85449v48a8.00039 8.00039 0 0 0 8 8h192a8.00039 8.00039 0 0 0 8-8v-82.23389l17.2998-5.76611h70.7002a8.00115 8.00115 0 0 0 4.7998-1.59961l32-24a8.00431 8.00431 0 0 0 3.07129-4.96973l15.67969-86.2373 38.959-54.543a7.99979 7.99979 0 0 0 1.49022-4.65036v-16.80493a40.06838 40.06838 0 0 0 32-39.19507 8.00039 8.00039 0 0 0 -8-8zm-64-128v16h-48v-16zm-46.624 32h45.248a23.9952 23.9952 0 0 1 -45.248 0zm9.9375 88h25.373l8 8h-41.373zm-136.26687 184.61768a7.9792 7.9792 0 0 0 -6.01733-.04541l-38.5693 15.42773h-22.46v-30.11133l19.90723-39.81445 7.97656 4.78613a8.002 8.002 0 0 0 7.69433.29492l16-8a8.00022 8.00022 0 0 0 4.42188-7.15527v-32a8.00022 8.00022 0 0 0 -4.42188-7.15527l-2.44482-1.22242 2.60352-5.207 28.32518 12.58884zm-148.04272 15.38232-15.06591-112.99609 28.32567-12.58891 2.60327 5.207-2.44506 1.22266a8.00022 8.00022 0 0 0 -4.42188 7.15534v32a8.00022 8.00022 0 0 0 4.42188 7.15527l16 8a8.002 8.002 0 0 0 7.69433-.29492l7.97656-4.78613 19.90723 39.81445v30.11133zm45.93725-161.25464a63.81986 63.81986 0 0 0 54.11768 0l1.23486 1.64649-28.2937 28.2937-28.2937-28.2937zm27.05884 111.36597-11.05566-22.11133h22.11132zm-48-57.167 7.64941-3.8252 16.35059 9.81105v10.13964l-16.35059 9.811-7.64941-3.82516zm56 3.05567v16h-16v-16zm16 13.06982v-10.13964l16.35059-9.811 7.64941 3.82516v22.11132l-7.64941 3.8252zm18.79834-36.55517a7.99478 7.99478 0 0 0 -6.91455.625l-14.66919 8.80176a7.96083 7.96083 0 0 0 -5.2146-1.94141h-4.68652l26.67822-26.67749 8.6416 11.52222zm-54.11182 7.48535h-4.68652a7.96083 7.96083 0 0 0 -5.2146 1.94141l-14.66919-8.80176a7.993 7.993 0 0 0 -6.915-.62451l-3.835-7.66993 8.64209-11.5227zm35.31348-200a24.0275 24.0275 0 0 1 24 24h-4.68652a35.08246 35.08246 0 0 0 -24.97071 10.34277 19.18268 19.18268 0 0 1 -13.65625 5.65723h-.68652a20 20 0 0 1 0-40zm-50.38867.73535a35.77476 35.77476 0 0 0 -5.61133 19.26465 36.19361 36.19361 0 0 0 .22754 4h-15.94238a28.07744 28.07744 0 0 1 21.32617-23.26465zm-21.61133 100.03027v-60.76562h22.0835a35.99118 35.99118 0 0 0 29.9165 16h.68652a35.08246 35.08246 0 0 0 24.97071-10.34277 19.18268 19.18268 0 0 1 13.65625-5.65723h4.68652v60.76562a48 48 0 0 1 -96 0zm-96 255.48731v-35.3418l20.2041-87.55175a24.11908 24.11908 0 0 1 13.6377-16.53516l6.85766-3.04785 15.37085 115.28125a7.99961 7.99961 0 0 0 7.92969 6.94238h16v56h-37.10352zm56 51.74707h24v40h-24zm40-72h72v68.68652l-32 32v-52.68652h-16v64h-24zm51.31445 112 34.34278-34.34277a8.00235 8.00235 0 0 0 2.34277-5.65723v-20.8999l37.46973 12.48974a7.99678 7.99678 0 0 0 9.18652-3.15234l1.34375-2.01562v53.57812zm108.68555-93.76562-18.53027 6.17578a7.9967 7.9967 0 0 0 -4.126 3.15234l-12.61035 18.916-36.73338-12.2451v-36.8174l31.06348-12.42579 40.93652 27.29104zm104.69043-22.752-27.35743 20.51762h-61.333v-8a7.99943 7.99943 0 0 0 -3.5625-6.65625l-34.5425-23.02832 13.40527-100.53857 10.20362 4.53466a23.96417 23.96417 0 0 1 12.18457 12.18457l28.03564 63.08057-8.58447 14.30713 13.7207 8.23242 44.49414-74.1582 27.60553 11.04199zm55.30957-142.04586-34.85986 48.80371-30.37159-12.14892-12.52246-50.09131h3.08691l26.667 20v12h16v-16a8.0009 8.0009 0 0 0 -3.2002-6.40039l-12.79931-9.59961h47.99951zm8-29.43652h-112a24.04166 24.04166 0 0 1 -22.62891-16h157.25782a24.04166 24.04166 0 0 1 -22.62891 16z"/></svg>