<svg xmlns="http://www.w3.org/2000/svg" width="25" height="26" viewBox="0 0 25 26">
    <path fill="#B89A6D" fill-rule="nonzero" d="M2.363 7.922V18.34c0 2.66 2.145 4.814 4.791 4.814h10.49c2.644 0 4.79-2.156 4.79-4.814V7.922c0-2.66-2.144-4.814-4.79-4.814H7.153c-2.645 0-4.79 2.156-4.79 4.814zm-2.28 0C.083 3.997 3.25.815 7.154.815h10.49c3.905 0 7.071 3.18 7.071 7.107V18.34c0 3.925-3.167 7.107-7.072 7.107H7.154c-3.906 0-7.071-3.18-7.071-7.107V7.922zM12.43 19.748c3.581 0 6.484-2.919 6.484-6.519s-2.903-6.518-6.484-6.518c-3.58 0-6.484 2.918-6.484 6.518 0 3.6 2.903 6.519 6.484 6.519zm0-2.293c-2.32 0-4.203-1.892-4.203-4.226 0-2.333 1.882-4.225 4.203-4.225 2.322 0 4.204 1.892 4.204 4.225 0 2.334-1.882 4.226-4.204 4.226zm6.55-9.336c.863 0 1.563-.704 1.563-1.572 0-.868-.7-1.572-1.564-1.572-.863 0-1.563.704-1.563 1.572 0 .868.7 1.572 1.563 1.572z"/>
</svg>
