<svg xmlns="http://www.w3.org/2000/svg" width="106" height="131" viewBox="0 0 106 131">
    <g fill="#B89A6D" fill-rule="evenodd">
        <path d="M62.522 98.992c-.01.74-.275 1.745-1.707 1.561-2.225-.286-2.906-2.544-3.166-4.484-.26-1.939-1.847-2.773-1.847-2.773l-.39.17c1.103 6.939-.865 9.616-1.714 10.003-.85.387-2.075-2.043-2.075-2.043-1.452-3.965.125-7.715-.398-8.003-.523-.287-1.82 1.39-2.127 2.42-.305 1.028-.155 1.94-.43 2.987-.273 1.046-2.162 2.467-3.194 1.942-.73-.373-1.015-1.207-1.12-1.663C22.98 94.976 6.83 76.064 6.83 53.358a46.78 46.78 0 0 1 2.473-15.05c-.326-.354-.692-.9-.67-1.551.036-1.163 1.824-2.287 2.87-2.024 1.036.26 2.283.857 3.319 1.086 1.362.25 2.538.291 3.116-.663-.802-.525-4.503-1.343-6.92-4.136 0 0-1.53-2.25-.783-2.812.746-.563 4.025-1.012 9.542 3.3l.336-.263s.038-1.8-1.529-2.963c-1.565-1.161-3.206-2.849-2.385-4.95.528-1.35 1.532-1.101 2.182-.752C26.871 12.885 39.3 6.767 53.152 6.767 67 6.767 79.43 12.88 87.918 22.57l.01.427s1.975-1.763 2.795.337c.82 2.1-.82 3.788-2.386 4.95-1.566 1.162-1.528 2.962-1.528 2.962l.336.262c5.516-4.311 8.797-3.862 9.542-3.3.745.563-.782 2.813-.782 2.813-2.76 3.187-6.785 3.6-6.785 4.2 0 .599 2.088.936 3.13.712 1.045-.225 2.127-.937 3.17-1.199 1.044-.263 2.833.861 2.87 2.024.036 1.115-1.056 1.916-1.146 1.98a46.8 46.8 0 0 1 2.33 14.621c0 22.502-15.862 41.275-36.952 45.634m41.748-55.486l-4.144-5.66.045-7.031a8.444 8.444 0 0 0-4.242-7.389l-6.075-3.474-2.801-6.442a8.39 8.39 0 0 0-6.862-5.014l-6.955-.69-5.165-4.738a8.35 8.35 0 0 0-8.296-1.774L53.14 3.511 46.51 1.294a8.353 8.353 0 0 0-8.297 1.774l-5.164 4.739-6.956.689a8.394 8.394 0 0 0-6.864 5.014l-2.8 6.442-6.075 3.474a8.446 8.446 0 0 0-4.242 7.389l.045 7.03-4.144 5.661a8.48 8.48 0 0 0-.887 8.484l2.884 6.404-1.498 6.867a8.468 8.468 0 0 0 2.621 8.113l5.225 4.671 1.409 6.886a8.418 8.418 0 0 0 5.676 6.34l6.661 2.13 4.071 5.713a8.369 8.369 0 0 0 7.75 3.47l6.946-.78 6.03 3.555a8.351 8.351 0 0 0 8.482 0l6.031-3.555 6.947.78a8.368 8.368 0 0 0 7.748-3.47l4.07-5.714 6.663-2.13a8.415 8.415 0 0 0 5.675-6.34l1.41-6.885 5.225-4.671a8.471 8.471 0 0 0 2.62-8.113l-1.499-6.867 2.886-6.404a8.471 8.471 0 0 0-.888-8.484"/>
        <path d="M61.117 53.615l-7.38-16.785h-.63L45.41 53.614c2.554 2.067 5.202 4.727 7.823 8.153 2.63-3.426 5.3-6.086 7.883-8.152zm18.718-7.07l-.104.894c-.095-.01-6.906-.682-15.334 4.891l5.25 11.489c.752 1.657 1.207 2.619 1.366 2.883.382.69.869 1.148 1.463 1.373.328.119.665.22 1.008.298v.855H65.36v-.855c1.029-.133 1.543-.524 1.543-1.175 0-.305-.184-.862-.55-1.671l-4.862-11.061c-2.587 2.095-5.266 4.807-7.904 8.32l-.391.52-.381-.611c-2.61-3.475-5.246-6.163-7.788-8.244l-5.253 11.46c-.308.675-.462 1.152-.462 1.43 0 .516.527.861 1.582 1.034v.853h-7.61v-.855c.791-.146 1.404-.483 1.839-1.015.317-.384.758-1.205 1.324-2.465l5.772-12.535c-8.378-5.642-15.086-4.94-15.18-4.929l-.109-.893c.097-.013 7.034-.76 15.667 5.002l7.158-15.543c.33-.743.494-1.207.494-1.392 0-.504-.441-.856-1.324-1.055v-.875h8.838v.875c-.883.266-1.324.643-1.324 1.134 0 .159.165.596.495 1.313l7.086 15.51c8.674-5.685 15.715-4.97 15.815-4.96zm17.139-7.518c-.894.206-1.704-.205-2.078-1.078-.22-.583-.074-1.314.73-1.67a.387.387 0 0 1 .311.709c-.328.146-.438.371-.326.671.337.788 1.046.659 1.256.6.544-.151 1.044-.662.95-1.343-.023-.47-.3-.915-.744-1.218-.73-.498-1.771-.568-2.855-.193-.233.08-.47.169-.708.258-1.62.604-3.449 1.28-4.905-.132a23.78 23.78 0 0 1-5.249.943c-.553.861-1.044 1.76-1.484 2.686l2.13.23c1.326-1.017 2.83-1.56 4.368-1.56.236 0 .473.014.71.04 1.826.196 3.525 1.165 4.783 2.727.065.08.096.184.084.286a.387.387 0 0 1-.142.261c-1.566 1.264-3.384 1.845-5.248 1.649-.16-.017-.318-.047-.476-.077.637.295 1.28.528 1.915.753.804.286 1.564.556 2.281.946 1.702.925 2.807 2.343 3.037 3.887.006.043.008.087.013.13 0 .006.005.011.006.02 1.036 9.068-.822 18.05-5.371 25.978-4.642 8.084-11.608 14.263-20.145 17.866-.007.003-.016.002-.024.005-1.456.56-3.254.28-4.942-.772-.694-.43-1.306-.957-1.955-1.515-.32-.275-.645-.551-.982-.82 1.033 1.477 1.441 3.353 1.144 5.302a.393.393 0 0 1-.154.254.391.391 0 0 1-.289.07c-1.974-.314-3.658-1.31-4.738-2.802-1.037-1.426-1.465-3.246-1.234-5.146-.013-.025-.02-.052-.028-.08l-1.232-1.698a23.893 23.893 0 0 0-1.568 2.635 24.17 24.17 0 0 1 1.81 5.043c1.944.565 2.276 2.495 2.565 4.207.042.252.085.503.132.745.22 1.134.8 2.004 1.594 2.39.483.237 1.003.258 1.39.056.664-.273.854-.965.713-1.514-.053-.212-.304-.895-1.164-.793-.296.05-.435.259-.395.618a.388.388 0 0 1-.342.428.387.387 0 0 1-.425-.343c-.084-.772.33-1.35 1.054-1.47.997-.118 1.778.421 2.02 1.367.01.036.012.073.019.11 12.787-2.682 23.841-10.714 30.371-22.09 6.54-11.394 7.923-25.064 3.817-37.556zm-41.715 56.04a22.634 22.634 0 0 0-1.491-5.455v13.386c1.068-1.206 2.038-4.019 1.491-7.931zm-2.263 7.967V89.615a22.618 22.618 0 0 0-1.49 5.452c-.592 4.235.428 6.868 1.49 7.967zM51.14 92.872a24.11 24.11 0 0 1 1.812-5.043 24.239 24.239 0 0 0-1.57-2.635l-1.264 1.741c.242 1.913-.187 3.747-1.23 5.184-1.082 1.49-2.764 2.485-4.738 2.8a.385.385 0 0 1-.442-.323c-.305-1.987.122-3.904 1.203-5.397.094-.13.2-.252.304-.374-.573.407-1.095.85-1.605 1.29-.649.557-1.26 1.084-1.955 1.514-1.564.97-3.181 1.304-4.72.902-.195-.038-.307-.107-.428-.16-8.327-3.631-14.982-9.675-19.532-17.602-4.542-7.913-6.421-16.805-5.454-25.739.003-.159.013-.32.037-.486.24-1.616 1.403-3.101 3.192-4.074.71-.386 1.435-.648 2.2-.926.605-.219 1.22-.443 1.834-.736a6.263 6.263 0 0 1-.525.085c-1.867.199-3.683-.385-5.248-1.649a.39.39 0 0 1-.058-.547c1.258-1.562 2.957-2.531 4.782-2.727.238-.026.474-.04.71-.04 1.538 0 3.043.543 4.369 1.56l2.13-.23a24.285 24.285 0 0 0-1.485-2.686 23.78 23.78 0 0 1-5.248-.943c-1.456 1.41-3.284.736-4.904.132-.239-.09-.475-.177-.709-.258-1.083-.375-2.124-.306-2.853.193-.446.303-.724.746-.743 1.184-.098.715.402 1.226.946 1.378.208.058.919.187 1.264-.618.105-.283-.005-.508-.334-.654a.387.387 0 0 1 .31-.71c.708.314.998.963.74 1.654-.39.91-1.227 1.324-2.148 1.083-4.09 12.48-2.702 26.133 3.83 37.513 6.532 11.378 17.59 19.41 30.38 22.091.003-.018.004-.038.009-.056.241-.947 1.033-1.485 2-1.37.743.123 1.157.7 1.073 1.473a.386.386 0 0 1-.767-.085c.04-.359-.1-.568-.414-.62-.848-.096-1.093.583-1.146.795-.14.549.05 1.24.682 1.499.416.215.938.194 1.422-.04.793-.386 1.374-1.257 1.593-2.39.047-.243.09-.495.132-.747.29-1.711.622-3.642 2.566-4.206zM16.504 34.214a22.356 22.356 0 0 0 5.442 1.43l-11.557-6.712c.415 1.474 2.172 3.68 6.115 5.282zm-5.696-5.934l11.527 6.694a22.538 22.538 0 0 0-3.954-4.028c-3.096-2.433-6-2.993-7.573-2.666zm70.25 10.891a25.18 25.18 0 0 1 1.36-2.552c-.96.027-1.92-.008-2.877-.092l-1.04 2.367 2.558.277zm-.327.744l-2.556-.277-.991 2.254c.925.055 1.828.177 2.692.366a24.43 24.43 0 0 1 .855-2.343zm9.255 16.29a.936.936 0 0 0 .808.469.933.933 0 0 0 .805-1.406.952.952 0 0 0-1.273-.344.942.942 0 0 0-.34 1.281zm-1.984 11.8c-.581-1.062-1.529-1.848-2.75-2.298.211 2.504 1.206 4.66 3.228 5.806.257-1.255.097-2.46-.478-3.507zM81.147 43.4a14.151 14.151 0 0 0-.737-.219 22.667 22.667 0 0 0-.681 3.469c1.577.102 2.54 1.195 2.906 2.172.414 1.102.18 2.213-.613 2.9a2.223 2.223 0 0 1-2.57.259c-.689-.387-1.062-1.066-1-1.818a.383.383 0 0 1 .416-.354c.213.018.37.204.353.418-.053.634.408.965.608 1.076a1.44 1.44 0 0 0 1.69-.168c.549-.476.696-1.238.395-2.04-.31-.823-1.176-1.76-2.607-1.676-1.805.102-2.518 1.162-2.797 2.033-.522 1.618.083 3.713 1.373 4.77 1.412 1.151 3.143 1.63 4.756 1.31 1.48-.292 2.679-1.21 3.465-2.654 1.131-2.082.895-4.658-.617-6.722-.006-.008-.007-.016-.011-.024-1.074-1.213-2.526-2.142-4.329-2.732zm6.457 8.117a9.868 9.868 0 0 0-.066-.688 6.575 6.575 0 0 1-.758 2.42c-.566 1.041-1.35 1.855-2.281 2.396a.394.394 0 0 1-.064.164c-.58.821-.795 1.841-.63 2.968 1.105-.214 1.986-.751 2.566-1.566.113-.373.24-.745.37-1.12.475-1.39.968-2.826.863-4.574zM58.738 19.529c.226-1.292.024-2.514-.603-3.553-.617-1.028-1.577-1.771-2.791-2.174-.027 2.338 1.339 4.288 3.394 5.727zm12.2-.258a.953.953 0 0 0-1.274-.344.942.942 0 0 0-.341 1.281c.167.29.475.47.808.47a.93.93 0 0 0 .9-.695.94.94 0 0 0-.094-.712zm-6.884 5.1c.888.706 1.873 1.028 2.872.934a.367.367 0 0 1 .11.013c.9-.532 1.95-.814 3.085-.814h.159a6.5 6.5 0 0 1 2.465.55c-.18-.138-.367-.272-.56-.4-1.453-.967-2.936-1.256-4.37-1.535-.36-.07-.714-.14-1.064-.22-.017.005-.032.014-.05.016-.997.095-1.905.596-2.647 1.456zm8.383 9.575a22.3 22.3 0 0 0 3.327 1.142c.068-.252.127-.503.18-.753.393-1.865.32-3.595-.188-5.136-.004-.008-.01-.013-.014-.021-1.022-2.35-3.121-3.843-5.48-3.896-1.616-.04-3.026.546-4.018 1.69-1.08 1.244-1.536 2.992-1.25 4.795.264 1.654 1.767 3.228 3.421 3.584.888.19 2.158.098 3.148-1.423.786-1.203.416-2.426-.139-3.108-.54-.663-1.271-.913-1.954-.674a1.456 1.456 0 0 0-.99 1.387c-.003.23.05.796.624 1.068a.389.389 0 0 1 .183.516.386.386 0 0 1-.513.185c-.68-.323-1.078-.989-1.065-1.78a2.243 2.243 0 0 1 1.506-2.108c.987-.346 2.062.004 2.806.915.656.808 1.112 2.199.416 3.617zm5.26 4.86l1.04-2.365c-.822-.1-1.636-.244-2.443-.427-.27.848-.618 1.696-1.033 2.528l2.435.264zm-5.862 2.023a1.683 1.683 0 0 0-.61 2.29c.297.517.85.84 1.446.84a1.67 1.67 0 0 0 1.608-1.244 1.67 1.67 0 0 0-.166-1.272c-.443-.77-1.504-1.062-2.278-.614zm4.519 1.032l1.015-2.31-2.495-.27c-.206.373-.43.741-.663 1.106.225.185.42.407.57.668.15.262.243.544.29.834.33-.016.658-.034.985-.034.1 0 .198.004.298.006zm7.18-16.34c-1.255.686-2.194 1.684-2.743 2.93-.549 1.247-.651 2.622-.311 4.02l3.054-6.95zm.681.37l-2.999 6.823c1.218-.684 2.13-1.668 2.666-2.887.539-1.224.649-2.567.333-3.936zm-61.28 3.936c.534 1.22 1.446 2.203 2.664 2.888L22.6 25.892c-.317 1.367-.206 2.711.334 3.935zm3.09-1.377c-.549-1.245-1.49-2.244-2.744-2.93l3.055 6.951c.34-1.398.237-2.773-.311-4.02zm10.658-7.773a.938.938 0 0 0 .469-1.75.953.953 0 0 0-1.273.344.935.935 0 0 0-.093.711.927.927 0 0 0 .897.695zm11.395-1.148c2.054-1.439 3.42-3.389 3.395-5.727-1.216.403-2.177 1.146-2.793 2.174-.626 1.04-.829 2.261-.602 3.553zM31.052 35.088a22.35 22.35 0 0 0 3.327-1.142c-.695-1.418-.24-2.809.416-3.617.743-.91 1.817-1.261 2.805-.915a2.244 2.244 0 0 1 1.507 2.107c.013.793-.386 1.458-1.065 1.781a.389.389 0 0 1-.33-.702c.573-.271.627-.837.624-1.067a1.458 1.458 0 0 0-.99-1.387c-.683-.24-1.416.011-1.955.675-.554.681-.923 1.904-.138 3.107.99 1.521 2.256 1.613 3.148 1.423 1.654-.356 3.156-1.93 3.42-3.584.287-1.803-.168-3.551-1.248-4.795-.992-1.144-2.38-1.74-4.02-1.69-2.358.053-4.457 1.546-5.479 3.896-.003.008-.01.013-.015.021-.507 1.54-.58 3.271-.187 5.136.053.25.112.501.18.753zm7.95-11.97c-1.434.28-2.917.569-4.37 1.535-.193.128-.379.262-.558.4a6.485 6.485 0 0 1 2.462-.548h.158c1.135 0 2.186.281 3.084.812.037-.008.074-.015.112-.012.995.094 1.983-.228 2.872-.934-.741-.86-1.65-1.36-2.647-1.456-.018-.002-.033-.011-.05-.015-.35.079-.704.149-1.063.219zM21.565 65.708c-1.222.45-2.17 1.236-2.75 2.299-.575 1.048-.736 2.252-.479 3.507 2.022-1.145 3.017-3.301 3.229-5.806zm-6.349-10.44a.932.932 0 0 0-.093.713.926.926 0 0 0 .899.694c.333 0 .642-.18.808-.469a.942.942 0 0 0-.341-1.28.952.952 0 0 0-1.273.343zm7.101.378c-.93-.541-1.714-1.355-2.28-2.395a6.595 6.595 0 0 1-.76-2.419c-.029.225-.051.453-.066.686-.105 1.748.388 3.184.864 4.574.13.375.256.747.37 1.12.579.814 1.46 1.352 2.567 1.566.164-1.126-.052-2.147-.632-2.968a.393.393 0 0 1-.063-.164zm1.863-6.823c.367-.976 1.346-2.065 2.906-2.172a22.673 22.673 0 0 0-.68-3.469c-.25.067-.497.14-.739.22-1.802.59-3.254 1.518-4.328 2.73-.003.009-.004.017-.01.025-1.514 2.064-1.748 4.64-.616 6.722.786 1.444 1.984 2.362 3.463 2.655 1.612.316 3.344-.159 4.756-1.312 1.292-1.056 1.896-3.15 1.374-4.769-.28-.87-.993-1.93-2.798-2.033-1.437-.084-2.297.854-2.607 1.677-.3.801-.152 1.563.397 2.039a1.44 1.44 0 0 0 1.689.168c.2-.111.66-.442.607-1.076a.387.387 0 1 1 .77-.064c.06.752-.313 1.431-1.002 1.818-.837.47-1.844.369-2.567-.258-.793-.687-1.029-1.799-.615-2.9zm1.904-8.907c.326.767.61 1.549.855 2.343.865-.189 1.768-.31 2.693-.366l-.991-2.253-2.557.276zm1.19-3.388c-.955.085-1.916.119-2.876.092.502.822.954 1.677 1.358 2.552l2.558-.277-1.04-2.367zm4.28 2.015a17.828 17.828 0 0 1-1.032-2.528c-.806.184-1.62.327-2.442.427l1.04 2.365 2.434-.264zm1.051 1.845a19.85 19.85 0 0 1-.664-1.107l-2.495.272 1.016 2.31c.1-.003.198-.007.299-.007.326 0 .654.02.983.036.047-.29.14-.574.29-.836.15-.26.346-.484.571-.668zm.653.5c-.224.137-.42.321-.555.556-.13.224-.196.47-.214.721a.38.38 0 0 1 .02.156c-.002.032-.014.06-.023.089a1.663 1.663 0 0 0 .828 1.325c.253.146.54.225.83.225a1.674 1.674 0 0 0 1.613-2.111 1.666 1.666 0 0 0-.776-1.019c-.484-.28-1.082-.27-1.57-.035-.016.016-.028.034-.045.047-.034.023-.072.034-.108.045zM21.63 39.618c-1.002-.596-2.087-.912-3.184-.912-.208 0-.418.01-.63.034-1.321.143-2.533.718-3.553 1.677l7.367-.799zm-7.346 1.578c1.21.743 2.539 1.068 3.892.925 1.35-.146 2.585-.745 3.618-1.74l-7.51.815zm30.76 52.722c1.336-.41 2.437-1.178 3.222-2.258.781-1.077 1.172-2.363 1.153-3.764l-4.376 6.022zm-.66-.407l4.458-6.137c-1.375.403-2.507 1.18-3.307 2.282-.799 1.101-1.188 2.419-1.15 3.855zm-11.65-9.724a.918.918 0 0 0-.657.276.927.927 0 0 0-.273.661c0 .519.417.939.93.939.25 0 .484-.098.66-.276a.936.936 0 0 0-.66-1.6zM20.3 74.815c.955.857 2.075 1.322 3.267 1.346 1.204.029 2.362-.41 3.362-1.253-2.267-1.07-4.63-1.285-6.629-.093zm27.88 7.678c.189-.172.375-.35.558-.534a22.423 22.423 0 0 0-2.647-2.326c-.874 1.314-2.295 1.613-3.322 1.445-1.156-.19-1.995-.952-2.191-1.985a2.251 2.251 0 0 1 1.061-2.368c.677-.406 1.45-.392 2.066.038.176.123.22.365.097.54a.384.384 0 0 1-.536.098c-.52-.363-1.034-.127-1.232-.01-.549.33-.817.927-.698 1.557.135.716.717 1.226 1.558 1.364.863.143 2.101-.147 2.746-1.432.814-1.623.259-2.773-.35-3.453-1.135-1.264-3.24-1.787-4.795-1.188-1.697.652-2.975 1.924-3.506 3.487-.489 1.435-.297 2.938.554 4.344 1.225 2.028 3.562 3.11 6.095 2.824.01 0 .018.003.028.002 1.579-.328 3.105-1.13 4.515-2.403zm-13.722-1.474c.957 1.11 1.947 2.257 3.505 3.039.205.103.412.197.618.284a6.554 6.554 0 0 1-1.698-1.868c-.612-1.014-.92-2.103-.921-3.186a.366.366 0 0 1-.11-.136c-.418-.915-1.187-1.614-2.24-2.034-.368 1.071-.347 2.108.067 3.02.263.286.52.581.779.881zm48.84-4.858c1.195-.024 2.315-.489 3.269-1.346-2-1.192-4.363-.978-6.628.093.998.843 2.153 1.282 3.36 1.253zm-9.236 9.503c.513 0 .932-.42.932-.938a.937.937 0 0 0-.932-.938.936.936 0 0 0-.933.938c0 .518.418.938.933.938zm-4.18-3.19a6.556 6.556 0 0 1-1.702 1.871c.209-.087.417-.183.625-.287 1.558-.782 2.547-1.93 3.505-3.04.24-.277.477-.552.72-.819.006-.016.005-.032.01-.047.42-.917.441-1.959.073-3.034-1.052.42-1.822 1.118-2.24 2.034-.018.037-.044.067-.07.096.007 1.095-.3 2.2-.92 3.226zm-11.852-.516c.182.185.368.363.557.535 1.409 1.274 2.937 2.075 4.519 2.403.007.001.014-.002.022-.001 2.527.284 4.87-.796 6.096-2.825.85-1.407 1.043-2.91.554-4.346-.532-1.563-1.81-2.833-3.505-3.484-1.554-.598-3.661-.077-4.796 1.187-.609.68-1.164 1.83-.348 3.453.644 1.285 1.878 1.575 2.744 1.432.84-.138 1.423-.648 1.558-1.364.12-.63-.149-1.226-.698-1.556-.198-.118-.71-.354-1.232.009a.383.383 0 0 1-.536-.098.39.39 0 0 1 .097-.54c.617-.43 1.391-.444 2.066-.037a2.247 2.247 0 0 1 1.061 2.367c-.195 1.034-1.035 1.794-2.192 1.985-1.02.168-2.447-.131-3.32-1.446-.941.7-1.824 1.484-2.647 2.326zm-2.652 1.914a24.607 24.607 0 0 1 1.587-1.914 18.026 18.026 0 0 1-1.659-2.163l-1.445 1.99 1.517 2.087zM49.8 81.958a24.43 24.43 0 0 1 1.588 1.913l1.517-2.087-1.446-1.99a17.74 17.74 0 0 1-1.659 2.164zm2.721-4a20.26 20.26 0 0 1-.62 1.13l1.482 2.038 1.48-2.038a19.937 19.937 0 0 1-.62-1.13 2.4 2.4 0 0 1-.86.162 2.4 2.4 0 0 1-.862-.162zm2.528-2.292c0-.924-.747-1.676-1.667-1.676s-1.665.752-1.665 1.676c0 .926.746 1.678 1.665 1.678.92 0 1.667-.753 1.667-1.678zm-.15 8.865l-1.516-2.09-1.518 2.089c.552.79 1.062 1.611 1.519 2.46.455-.849.965-1.669 1.516-2.46zm2.446 3.366c-.018 1.401.372 2.687 1.155 3.764.783 1.081 1.884 1.849 3.221 2.258l-4.376-6.022zm3.886 1.76c-.802-1.102-1.934-1.879-3.308-2.281l4.457 6.136c.038-1.437-.351-2.755-1.15-3.855zm20.3-49.655c-.346.796-.648 1.61-.905 2.437.257.069.512.143.76.224 3.151 1.03 5.327 3.02 6.347 5.728l2.596 5.698a1.69 1.69 0 0 1 1.938.79c.229.397.289.859.17 1.3a1.689 1.689 0 0 1-.793 1.04c-.787.46-1.876.16-2.327-.626a1.723 1.723 0 0 1 .336-2.129l-1.276-2.796c.067 1.813-.447 3.332-.907 4.675-.696 2.027-1.297 3.78.096 6.11.546.87 1.372 1.306 2.217 1.155.8-.143 1.435-.788 1.618-1.643.112-.522.04-1.017-.202-1.39a1.372 1.372 0 0 0-.872-.601c-.304-.064-.85-.056-1.056.727a.716.716 0 0 0 .116.551c.102.136.208.137.24.138.215.004.384.18.38.395-.002.214-.16.41-.392.38a1.06 1.06 0 0 1-.843-.447c-.253-.338-.352-.828-.246-1.218.258-.975 1.028-1.479 1.958-1.286a2.137 2.137 0 0 1 1.363.937c.353.55.464 1.251.309 1.977-.251 1.165-1.129 2.046-2.237 2.244-1.162.208-2.286-.358-3.01-1.512-.647-1.085-.91-2.06-.95-2.98-.51 1.659-.779 3.377-.751 4.994 1.528.485 2.758 1.457 3.469 2.757.736 1.341.89 2.962.432 4.563a.386.386 0 0 1-.478.267.385.385 0 0 1-.138-.076c-.037-.006-.074-.011-.108-.03-4.315-2.166-4.743-8.158-2.966-13.333a5.514 5.514 0 0 1-1.88.582.391.391 0 0 1-.425-.304c-.24-1.132-.145-2.223.258-3.156-.19.059-.385.11-.584.15-1.837.362-3.802-.173-5.39-1.47-1.522-1.245-2.234-3.71-1.623-5.61.471-1.462 1.598-2.347 3.178-2.533 0-.01-.003-.02-.002-.03.134-1.232.376-2.453.707-3.651a17.656 17.656 0 0 0-4.592-.339c-.012.086-.019.17-.042.255a2.433 2.433 0 0 1-1.137 1.488c-.37.216-.791.33-1.216.33-.87 0-1.679-.47-2.114-1.227a2.465 2.465 0 0 1 .892-3.35c.372-.214.793-.33 1.22-.33.303 0 .599.062.875.17a17.94 17.94 0 0 0 2-4.163 23.11 23.11 0 0 1-3.496-1.21c-.01-.004-.018-.012-.026-.018-.952 1.284-2.277 1.824-3.768 1.503-1.944-.418-3.71-2.27-4.02-4.22-.324-2.031.198-4.01 1.429-5.427.122-.143.254-.275.389-.403-.987-.125-1.956-.589-2.793-1.35a.389.389 0 0 1-.05-.522 5.498 5.498 0 0 1 1.576-1.433c-5.42-.992-10.498-4.383-10.204-9.287a.37.37 0 0 1 .03-.112.385.385 0 0 1 .473-.44c1.607.405 2.925 1.349 3.71 2.659.766 1.271.988 2.831.639 4.406 1.345.811 2.916 1.425 4.553 1.814-.704-.488-1.349-1.179-1.911-2.199-.635-1.215-.56-2.478.197-3.384a2.754 2.754 0 0 1 2.124-.975c.306 0 .62.05.927.148.703.227 1.252.673 1.547 1.256.261.516.306 1.105.126 1.655-.296.908-1.114 1.329-2.087 1.064-.388-.103-.758-.434-.924-.823a1.073 1.073 0 0 1 .036-.96.386.386 0 1 1 .675.376c-.017.031-.068.123-.001.28.079.188.273.34.412.377.781.21 1.059-.258 1.156-.556a1.376 1.376 0 0 0-.08-1.06c-.201-.398-.59-.707-1.096-.87-.825-.267-1.7-.039-2.223.587-.55.657-.591 1.599-.11 2.517 1.306 2.37 3.114 2.722 5.207 3.13 1.388.27 2.956.582 4.486 1.55l-1.794-2.543c-.736.226-1.606-.086-1.998-.768a1.721 1.721 0 0 1 .623-2.34 1.7 1.7 0 0 1 .851-.23c.607 0 1.173.328 1.476.857a1.704 1.704 0 0 1-.29 2.08l3.654 5.176c1.798 2.239 2.413 5.115 1.73 8.357-.055.258-.117.516-.187.775a23.78 23.78 0 0 0 2.549.43l.946-2.15a7.579 7.579 0 0 1-.174-.524 11.038 11.038 0 0 1-.418-1.437c-.394-1.867-.09-3.511.18-4.962.149-.813.29-1.581.312-2.34.057-1.77-.507-3.26-1.547-4.09-.612-.49-1.322-.676-1.95-.509-1.115.19-1.667 1.253-1.64 2.161.01.342.149 1.468 1.475 1.607.295.015.834-.073.924-.88a.717.717 0 0 0-.2-.528c-.12-.12-.224-.107-.258-.102a.384.384 0 0 1-.432-.334.388.388 0 0 1 .331-.435c.33-.046.65.069.901.317.3.297.47.768.424 1.17-.113 1.004-.797 1.623-1.752 1.565-1.294-.135-2.144-1.06-2.183-2.357-.038-1.236.737-2.687 2.247-2.94.03-.01.06-.012.091-.019-6.828-4.635-14.776-7.082-23.075-7.082-8.286 0-16.2 2.432-23.014 7.041.12.014.239.035.356.067 1.474.246 2.249 1.697 2.211 2.933-.04 1.297-.89 2.222-2.166 2.356-.948.052-1.658-.558-1.769-1.566-.046-.402.124-.872.425-1.168.25-.249.569-.363.9-.317a.39.39 0 0 1 .332.435.392.392 0 0 1-.434.334c-.035-.005-.137-.017-.258.1a.72.72 0 0 0-.199.529c.09.809.63.903.941.88 1.309-.138 1.447-1.264 1.457-1.606.028-.908-.525-1.971-1.602-2.153-.662-.175-1.375.01-1.988.501-1.04.83-1.603 2.32-1.547 4.088.022.76.164 1.53.314 2.342.268 1.451.573 3.095.179 4.962-.105.498-.253.975-.42 1.44a8.293 8.293 0 0 1-.171.52l.944 2.15a24.007 24.007 0 0 0 2.55-.429c-.07-.259-.133-.517-.187-.775-.682-3.232-.071-6.099 1.714-8.334l3.67-5.199a1.713 1.713 0 0 1 1.187-2.937c.296 0 .591.08.85.23a1.723 1.723 0 0 1 .624 2.34c-.393.683-1.263.995-1.999.768l-1.796 2.544c1.53-.969 3.098-1.28 4.488-1.551 2.093-.408 3.9-.76 5.211-3.137.477-.911.437-1.852-.113-2.51-.523-.626-1.398-.856-2.224-.587-.507.163-.895.472-1.096.87a1.382 1.382 0 0 0-.081 1.06c.098.297.375.767 1.155.557a.71.71 0 0 0 .415-.379c.066-.156.015-.247-.003-.278a.39.39 0 0 1 .15-.527.385.385 0 0 1 .526.15c.162.293.173.634.036.96-.164.389-.537.72-.925.824-.97.26-1.79-.156-2.088-1.065a2.152 2.152 0 0 1 .128-1.655c.294-.583.844-1.029 1.546-1.256.307-.1.62-.148.928-.148.818 0 1.595.344 2.123.975.758.906.834 2.17.202 3.377-.564 1.024-1.212 1.717-1.917 2.207 1.637-.389 3.21-1.004 4.554-1.815-.35-1.574-.126-3.133.639-4.406.786-1.31 2.105-2.254 3.712-2.658a.386.386 0 0 1 .473.44c.014.035.027.071.03.111.293 4.904-4.784 8.295-10.205 9.287.585.347 1.12.83 1.575 1.433.12.16.1.386-.049.522-.837.761-1.807 1.225-2.793 1.35.135.128.267.26.39.403 1.23 1.418 1.75 3.396 1.428 5.427-.31 1.949-2.076 3.802-4.02 4.22-1.488.32-2.816-.218-3.767-1.503-.01.006-.017.015-.027.019a23.124 23.124 0 0 1-3.496 1.21c.303.935.706 1.87 1.192 2.784a.392.392 0 0 1 .074.143c.227.417.474.828.734 1.234.277-.107.572-.169.876-.169a2.434 2.434 0 0 1 2.354 1.819 2.451 2.451 0 0 1-2.357 3.088c-.425 0-.848-.114-1.217-.33a2.436 2.436 0 0 1-1.137-1.488c-.023-.084-.03-.17-.043-.254a18.965 18.965 0 0 0-1.465-.022.373.373 0 0 1-.108.004c-1.039.033-2.053.15-3.017.356.33 1.199.571 2.42.706 3.65.002.011-.002.021-.002.031 1.581.186 2.709 1.07 3.178 2.533.612 1.901-.1 4.367-1.623 5.61-1.587 1.297-3.55 1.832-5.39 1.47a5.532 5.532 0 0 1-.583-.151c.403.934.499 2.025.258 3.157a.393.393 0 0 1-.425.304 5.512 5.512 0 0 1-1.88-.582c1.777 5.175 1.35 11.167-2.965 13.334a.35.35 0 0 1-.11.03.378.378 0 0 1-.138.075.387.387 0 0 1-.478-.267c-.456-1.6-.303-3.222.433-4.563.711-1.3 1.942-2.272 3.469-2.757.029-1.615-.241-3.332-.75-4.991-.039.917-.302 1.89-.947 2.97-.73 1.161-1.856 1.724-3.014 1.52-1.109-.2-1.987-1.08-2.237-2.245-.155-.726-.045-1.428.31-1.977a2.132 2.132 0 0 1 1.36-.937c.936-.196 1.701.312 1.961 1.288.104.39.006.878-.247 1.216a1.064 1.064 0 0 1-.844.447h-.006a.384.384 0 0 1-.385-.38.384.384 0 0 1 .378-.395c.034 0 .14-.002.24-.138a.716.716 0 0 0 .119-.55c-.208-.782-.753-.794-1.058-.728-.36.076-.67.289-.87.6-.243.374-.316.869-.204 1.39.183.856.818 1.501 1.618 1.644.84.151 1.67-.284 2.222-1.163 1.388-2.323.787-4.075.093-6.102-.462-1.343-.977-2.863-.909-4.676l-1.275 2.799c.583.53.744 1.415.335 2.127-.45.787-1.541 1.083-2.325.627a1.715 1.715 0 0 1-.625-2.34 1.707 1.707 0 0 1 1.477-.857c.155 0 .312.023.461.066l2.596-5.698c1.02-2.708 3.197-4.697 6.348-5.728.248-.081.502-.155.76-.224a24.078 24.078 0 0 0-.905-2.437l-2.313.252c-.005.007-.006.017-.011.024-.43.6-.942 1.173-1.522 1.697-1.415 1.28-2.844 1.799-4.228 2.3-.738.267-1.434.52-2.095.877-1.55.843-2.594 2.154-2.795 3.507l-.004.037c.001.023.009.044.005.068-.012.11-.019.22-.032.331-.002.6.183 1.129.535 1.488.705.854 1.813.82 2.557.357.291-.182 1.201-.874.64-2.137-.133-.265-.475-.69-1.22-.364a.72.72 0 0 0-.355.437c-.043.164.021.248.042.275a.39.39 0 0 1-.072.544.384.384 0 0 1-.54-.07 1.078 1.078 0 0 1-.176-.944c.105-.41.424-.794.794-.954.922-.405 1.795-.114 2.223.743.543 1.22.173 2.442-.93 3.13-1.028.64-2.572.674-3.534-.498-.044-.045-.083-.095-.122-.143-.52 8.144 1.365 16.198 5.511 23.422 4.112 7.163 10.102 12.806 17.4 16.44a2.759 2.759 0 0 1-.213-.528c-.517-1.391.284-2.718 1.35-3.293 1.144-.618 2.38-.328 3.149.738.533.816.348 1.722-.462 2.325a1.48 1.48 0 0 1-1.219.214 1.069 1.069 0 0 1-.723-.626.388.388 0 0 1 .207-.506.385.385 0 0 1 .505.209c.013.033.054.13.217.175a.713.713 0 0 0 .554-.09c.65-.483.459-.997.286-1.26-.796-1.104-1.846-.66-2.15-.496-.77.416-1.355 1.365-.98 2.372.188.684.748 1.253 1.508 1.555 1.218.482 2.74.249 4.178-.641.643-.399 1.234-.906 1.859-1.443 1.115-.96 2.378-2.046 4.182-2.637a10.622 10.622 0 0 1 2.253-.48l1.37-1.885a24.256 24.256 0 0 0-1.645-2.003c-.188.19-.38.372-.573.548-2.465 2.23-5.265 3.13-8.107 2.665l-6.208-.588a1.685 1.685 0 0 1-1.646 1.292 1.71 1.71 0 0 1-1.703-1.713 1.706 1.706 0 0 1 1.703-1.712c.817 0 1.502.583 1.665 1.356l3.047.288c-1.595-.848-2.646-2.055-3.573-3.13-1.398-1.618-2.605-2.997-5.308-2.97-1.023.04-1.812.547-2.103 1.353-.277.768-.04 1.644.605 2.232.394.358.862.538 1.299.519.368-.02.706-.183.953-.46.208-.233.472-.712-.1-1.284a.704.704 0 0 0-.531-.173c-.168.02-.223.111-.24.141a.385.385 0 0 1-.529.132.389.389 0 0 1-.132-.532c.172-.287.458-.467.807-.51.417-.051.889.107 1.172.394.711.713.762 1.636.128 2.35a2.13 2.13 0 0 1-1.488.717c-.65.04-1.308-.22-1.856-.72-.88-.799-1.198-2.005-.814-3.07.402-1.113 1.45-1.81 2.806-1.864 1.26-.028 2.237.234 3.055.666-1.176-1.275-2.526-2.374-3.934-3.16-1.182 1.09-2.638 1.664-4.112 1.648-1.522-.03-2.995-.707-4.147-1.905a.39.39 0 0 1 .01-.55.363.363 0 0 1 .134-.082c.024-.03.047-.06.08-.082a6.457 6.457 0 0 1 3.636-1.083c3.263 0 6.761 2.197 9.328 5.174a5.576 5.576 0 0 1 .44-1.934.385.385 0 0 1 .474-.218c1.095.356 1.986.985 2.589 1.803a5.69 5.69 0 0 1 .162-.585c.605-1.78 2.049-3.225 3.96-3.96a4.629 4.629 0 0 1 1.656-.29c1.477-.001 3.03.615 3.987 1.683 1.021 1.14 1.22 2.562.59 4.033.01.005.02.007.03.013a23.218 23.218 0 0 1 2.788 2.441 17.897 17.897 0 0 0 2.582-3.82 2.457 2.457 0 0 1-.906-1.908 2.448 2.448 0 0 1 2.437-2.452c1.344 0 2.438 1.1 2.438 2.452 0 .77-.354 1.457-.907 1.907a17.827 17.827 0 0 0 2.583 3.82 23.27 23.27 0 0 1 2.79-2.44c.008-.006.02-.008.029-.013-.63-1.47-.433-2.893.59-4.033.956-1.068 2.508-1.684 3.985-1.684.578 0 1.142.094 1.657.291 1.91.734 3.354 2.178 3.96 3.959.06.179.108.36.15.541.603-.797 1.484-1.409 2.56-1.758a.385.385 0 0 1 .474.219c.293.696.442 1.403.446 2.086 2.579-3.055 6.146-5.327 9.464-5.327 1.271 0 2.506.333 3.634 1.083.034.023.058.053.082.082a.368.368 0 0 1 .133.083.391.391 0 0 1 .01.549c-1.152 1.198-2.623 1.875-4.146 1.905-1.45.016-2.93-.557-4.112-1.648-1.366.763-2.676 1.819-3.826 3.045.766-.36 1.68-.572 2.836-.551 1.365.054 2.414.75 2.815 1.864.384 1.066.065 2.271-.812 3.07-.548.499-1.21.75-1.856.72a2.133 2.133 0 0 1-1.489-.717c-.633-.713-.583-1.636.128-2.35a1.476 1.476 0 0 1 1.17-.394c.35.043.637.224.808.51a.385.385 0 1 1-.661.4c-.017-.029-.071-.12-.239-.14a.707.707 0 0 0-.532.17c-.57.575-.307 1.053-.097 1.287.244.277.583.44.953.46.445.024.903-.162 1.296-.52.646-.587.884-1.464.607-2.231-.292-.807-1.081-1.313-2.114-1.354-2.68-.034-3.9 1.352-5.298 2.97-.926 1.075-1.98 2.285-3.578 3.134l3.082-.292a1.71 1.71 0 0 1 1.666-1.357c.939.001 1.704.77 1.704 1.714S75 86.438 74.06 86.439a1.705 1.705 0 0 1-1.646-1.292l-6.3.595c-2.822.442-5.6-.46-8.044-2.673-.195-.176-.386-.359-.576-.549a23.861 23.861 0 0 0-1.643 2.005l1.38 1.898c.084.014.167.035.25.052a10.84 10.84 0 0 1 1.733.414c1.805.59 3.068 1.677 4.183 2.636.625.538 1.215 1.045 1.858 1.444 1.493.933 3.057 1.188 4.291.699.025-.01.049-.022.074-.033.69-.295 1.18-.806 1.343-1.415.394-1.064-.246-2.077-1.042-2.507-.299-.161-1.336-.604-2.12.48-.162.25-.353.763.297 1.246a.702.702 0 0 0 .554.09c.164-.045.204-.142.216-.174a.385.385 0 1 1 .712.296c-.126.31-.383.531-.721.626-.403.112-.895.027-1.22-.214-.81-.602-.995-1.508-.472-2.31.763-1.06 1.985-1.337 3.12-.723 1.083.584 1.945 1.985 1.41 3.428-.024.09-.056.177-.09.264 7.428-3.625 13.515-9.315 17.686-16.58 4.091-7.13 5.958-15.13 5.461-23.266-.067.088-.14.173-.217.252-.937 1.146-2.483 1.112-3.51.471-1.104-.687-1.472-1.91-.938-3.112.435-.874 1.31-1.164 2.232-.759.37.16.689.543.794.954.088.342.025.676-.178.943a.383.383 0 0 1-.541.07.389.389 0 0 1-.07-.544c.021-.027.086-.11.043-.275a.717.717 0 0 0-.355-.437c-.737-.324-1.088.098-1.229.38-.552 1.247.357 1.94.648 2.121.742.462 1.85.497 2.532-.332.495-.507.705-1.279.585-2.092-.193-1.301-1.155-2.511-2.641-3.318-.664-.362-1.396-.622-2.17-.897-1.385-.492-2.952-1.049-4.363-2.326a10.689 10.689 0 0 1-1.522-1.697c-.006-.007-.006-.017-.012-.024l-2.313-.252zm11.022.417c-1.02-.96-2.232-1.535-3.555-1.678-1.32-.142-2.624.167-3.815.878l7.37.8zm-3.914 1.703c1.353.143 2.683-.182 3.893-.925l-7.511-.816c1.033.996 2.268 1.595 3.618 1.741zM20.454 31.724a24.033 24.033 0 0 1 3.437 4.1c1.016.05 2.037.03 3.052-.049l-.865-1.971c-1.77-.746-3.135-2.037-3.849-3.664-.743-1.687-.76-3.65-.043-5.529a.38.38 0 0 1 .204-.215.383.383 0 0 1 .295-.008c1.828.715 3.239 2.01 3.994 3.646-.063-.427-.138-.849-.215-1.265-.157-.843-.303-1.64-.326-2.46-.064-2.014.605-3.734 1.836-4.719.04-.032.084-.055.125-.084a.39.39 0 0 1 .11-.14c7.29-5.436 15.954-8.31 25.054-8.31 8.9 0 17.404 2.759 24.599 7.977.338.124.67.31.978.557 1.232.985 1.902 2.705 1.838 4.72-.023.819-.17 1.616-.327 2.46-.077.417-.151.839-.215 1.267.755-1.638 2.166-2.933 3.994-3.649a.39.39 0 0 1 .296.008.389.389 0 0 1 .204.215c.716 1.878.7 3.842-.043 5.53-.715 1.626-2.08 2.917-3.85 3.663l-.865 1.971c1.016.08 2.036.1 3.053.05a23.969 23.969 0 0 1 3.437-4.101c-.485-1.975 1.012-3.23 2.34-4.338.197-.163.39-.324.576-.487.865-.758 1.325-1.7 1.26-2.583-.038-.538-.28-1.001-.647-1.239-.567-.44-1.258-.26-1.661.137-.155.153-.62.706-.1 1.41.192.232.44.25.731.036a.384.384 0 0 1 .539.082.389.389 0 0 1-.083.542c-.71.525-1.411.285-1.793-.183-.59-.795-.527-1.731.143-2.413C78.964 12.87 66.509 7.247 53.433 7.247c-13.087 0-25.556 5.635-34.26 15.47.644.679.701 1.6.131 2.37-.478.585-1.182.658-1.805.198a.39.39 0 0 1-.083-.543.385.385 0 0 1 .539-.083c.29.214.54.196.741-.05.51-.689.044-1.243-.11-1.395-.404-.397-1.091-.579-1.634-.156-.395.257-.636.719-.675 1.258-.064.883.396 1.825 1.262 2.583.185.163.38.324.575.488 1.33 1.108 2.825 2.362 2.34 4.337zm63.975 3.318l11.58-6.762c-1.571-.327-4.479.233-7.574 2.666a22.513 22.513 0 0 0-4.006 4.096zm11.998-6.109l-11.474 6.699a22.302 22.302 0 0 0 5.357-1.418c3.944-1.602 5.7-3.805 6.117-5.28zM93.826 76.97C87.16 88.58 75.86 96.767 62.799 99.463c-.102.626-.468 1.224-1.171 1.511-.578.302-1.337.286-2.048-.06-1.014-.495-1.748-1.566-2.015-2.941-.048-.248-.092-.505-.136-.764-.247-1.463-.482-2.853-1.608-3.434.077.394.146.788.202 1.184.74 5.288-1.056 8.401-2.445 9.204a.386.386 0 0 1-.371.007c-1.682-.894-3.172-4.158-2.464-9.211.056-.397.126-.791.203-1.184-1.127.58-1.363 1.97-1.611 3.432-.044.26-.087.517-.135.766-.267 1.375-1.002 2.446-2.015 2.94-.712.346-1.471.363-2.08.046-.702-.286-1.063-.908-1.148-1.554-13.057-2.698-24.351-10.883-31.015-22.49-6.657-11.598-8.06-25.515-3.867-38.23-.558-.393-.953-1.056-.842-1.874.03-.656.424-1.308 1.077-1.755.55-.375 1.222-.564 1.952-.564.508 0 1.045.093 1.587.28.239.082.48.172.726.264 1.384.515 2.698 1.006 3.761.314-.376-.13-.751-.266-1.12-.416-4.704-1.91-6.77-4.838-6.7-6.751a.389.389 0 0 1 .192-.32c.46-.27 1.165-.45 2.05-.45 1.784 0 4.306.727 7.097 2.922.314.246.619.505.92.768.062-1.27-1.018-2.172-2.153-3.118-.2-.169-.4-.333-.59-.5-1.05-.92-1.606-2.096-1.524-3.226.057-.793.422-1.46 1-1.834.35-.274.742-.391 1.126-.391.319 0 .629.086.91.224C27.398 12.223 40.1 6.47 53.433 6.47c13.328 0 26.02 5.747 34.871 15.77.27-.125.566-.202.87-.202.394 0 .797.12 1.163.407.549.353.914 1.022.972 1.815.08 1.13-.476 2.305-1.526 3.225-.188.166-.388.331-.589.499-1.135.947-2.216 1.848-2.153 3.118.3-.263.604-.521.919-.767 2.792-2.195 5.315-2.921 7.097-2.922.886 0 1.59.18 2.05.45a.385.385 0 0 1 .192.32c.071 1.912-1.995 4.84-6.7 6.75-.368.15-.743.287-1.12.417 1.063.69 2.377.202 3.762-.314.246-.092.487-.183.725-.265a4.905 4.905 0 0 1 1.588-.279c.73 0 1.403.19 1.952.565.653.446 1.047 1.098 1.079 1.788.113.82-.312 1.493-.898 1.88a47.165 47.165 0 0 1-3.861 38.245zm-66.04-7.587a2.05 2.05 0 0 0-2.041-2.056 2.052 2.052 0 0 0-2.044 2.056c0 1.132.917 2.056 2.044 2.056.546 0 1.058-.215 1.444-.603a2.04 2.04 0 0 0 .597-1.453zm.776 0c0 .756-.292 1.469-.825 2.004-.532.536-1.24.83-1.993.831-1.553 0-2.816-1.272-2.819-2.835a2.83 2.83 0 0 1 2.82-2.834 2.83 2.83 0 0 1 2.817 2.834zM55.41 21.512a2.052 2.052 0 0 0-2.042-2.057 2.053 2.053 0 0 0-2.044 2.056c0 1.133.919 2.056 2.044 2.056.547 0 1.06-.214 1.445-.603.386-.388.599-.904.597-1.452zm.776 0a2.827 2.827 0 0 1-2.818 2.834c-1.552 0-2.816-1.272-2.819-2.834a2.83 2.83 0 0 1 2.819-2.835 2.83 2.83 0 0 1 2.818 2.834zm27.183 47.871a2.05 2.05 0 0 0-2.042-2.056 2.053 2.053 0 0 0-2.044 2.056c0 1.132.919 2.056 2.044 2.056.547 0 1.06-.215 1.446-.603a2.04 2.04 0 0 0 .596-1.453zm.776 0c0 .756-.292 1.469-.825 2.004-.533.536-1.24.83-1.993.831-1.553 0-2.816-1.272-2.82-2.835a2.83 2.83 0 0 1 2.82-2.834 2.83 2.83 0 0 1 2.818 2.834zm11.603-27.72c.39-.104.62-.509.514-.903a.73.73 0 0 0-1.402.403.72.72 0 0 0 .888.5zm.59 2.4a.722.722 0 0 0 .546-.874.72.72 0 0 0-.877-.541.738.738 0 0 0-.544.874c.09.384.481.627.875.54zm.199.998a.73.73 0 0 0-.582.843.722.722 0 0 0 .834.588.732.732 0 0 0 .602-.845.727.727 0 0 0-.854-.586zm.403 2.438a.736.736 0 0 0-.633.809.74.74 0 0 0 .808.634.716.716 0 0 0 .64-.81.722.722 0 0 0-.815-.633zm.267 2.457a.742.742 0 0 0-.68.77.733.733 0 0 0 .77.681.724.724 0 0 0 .687-.772.715.715 0 0 0-.777-.679zm.121 2.469a.724.724 0 0 0-.714.73.723.723 0 0 0 .722.723.731.731 0 0 0 .737-.73.731.731 0 0 0-.745-.723zm-.014 2.47a.731.731 0 0 0-.761.689.74.74 0 0 0 .686.764.718.718 0 0 0 .77-.69.723.723 0 0 0-.695-.763zm-.153 2.467a.738.738 0 0 0-.798.646.736.736 0 0 0 .647.8c.4.05.76-.24.802-.646a.719.719 0 0 0-.65-.8zm-.285 2.454a.728.728 0 0 0-.823.609.728.728 0 0 0 1.44.224.729.729 0 0 0-.617-.833zm-.396 2.44a.729.729 0 0 0-.852.571c-.065.391.16.74.553.852.384.11.81-.165.878-.567a.73.73 0 0 0-.58-.857zm-.548 2.409a.725.725 0 0 0-.889.5.724.724 0 0 0 .49.897.732.732 0 0 0 .913-.494.73.73 0 0 0-.514-.903zm-.697 2.37a.743.743 0 0 0-.928.444c-.13.37.068.785.445.926a.72.72 0 0 0 .932-.443.715.715 0 0 0-.449-.928zm-.84 2.322a.731.731 0 0 0-.948.393.743.743 0 0 0 .4.952.711.711 0 0 0 .948-.392.725.725 0 0 0-.4-.953zm-.966 2.273a.721.721 0 0 0-.96.345.74.74 0 0 0 .341.968c.357.178.813.037.976-.337a.735.735 0 0 0-.357-.976zm-1.077 2.22a.725.725 0 0 0-.687 1.28c.352.197.797.07.994-.287a.73.73 0 0 0-.307-.992zm-1.18 2.168a.737.737 0 0 0-1 .245.736.736 0 0 0 .25 1 .722.722 0 0 0 1.002-.245.721.721 0 0 0-.252-1zm-1.29 2.104a.724.724 0 0 0-1.004.186.734.734 0 0 0 .182 1.01.723.723 0 0 0 1.018-.176.73.73 0 0 0-.197-1.02zm-1.42 2.017a.731.731 0 0 0-1.015.126.74.74 0 0 0 .128 1.022.718.718 0 0 0 1.022-.12.726.726 0 0 0-.135-1.028zm-2.555 1.998a.742.742 0 0 0 .07 1.026.714.714 0 0 0 1.027-.059.727.727 0 0 0-.075-1.034.733.733 0 0 0-1.022.067zm-1.642 1.782a.737.737 0 0 0 .01 1.027.717.717 0 0 0 1.03 0 .73.73 0 0 0-.017-1.036.726.726 0 0 0-1.023.009zm-1.74 1.686a.734.734 0 0 0-.049 1.026.72.72 0 0 0 1.03.058.731.731 0 0 0 .038-1.037.725.725 0 0 0-1.02-.047zm-1.833 1.582a.74.74 0 0 0-.103 1.026.725.725 0 0 0 1.119-.92.73.73 0 0 0-1.016-.106zm-1.918 1.48a.742.742 0 0 0-.16 1.017.715.715 0 0 0 1.015.17c.33-.24.4-.696.156-1.022a.732.732 0 0 0-1.011-.165zm-1.995 1.373a.734.734 0 0 0-.217 1.003.72.72 0 0 0 1.006.23.729.729 0 0 0 .21-1.015.725.725 0 0 0-.999-.218zm-2.068 1.258a.735.735 0 0 0-.272.991.723.723 0 0 0 .992.285.73.73 0 0 0 .265-1.004.727.727 0 0 0-.985-.272zm-2.135 1.141a.74.74 0 0 0-.323.977c.173.37.609.518.973.337a.725.725 0 0 0 .32-.986.732.732 0 0 0-.97-.328zm-2.193 1.023a.74.74 0 0 0-.376.956.717.717 0 0 0 .954.391.725.725 0 0 0 .374-.964.732.732 0 0 0-.952-.383zm-2.244.902a.734.734 0 0 0-.43.931c.13.382.55.586.932.447a.73.73 0 0 0 .425-.948.726.726 0 0 0-.927-.43zm-2.292.774a.734.734 0 0 0-.48.908c.11.39.516.61.907.495.39-.118.6-.538.475-.921a.728.728 0 0 0-.902-.482zm-2.33.644a.74.74 0 0 0-.528.882c.09.399.482.64.877.543a.723.723 0 0 0 .527-.892.735.735 0 0 0-.876-.533zm-20.26-.064a.722.722 0 0 0-.876.524.736.736 0 0 0 .523.899.729.729 0 0 0 .88-.545.728.728 0 0 0-.527-.878zm-2.332-.654a.735.735 0 0 0-.904.492.72.72 0 0 0 .48.912.718.718 0 0 0 .904-.492.739.739 0 0 0-.48-.912zm-2.297-.762a.723.723 0 0 0-.925.432.735.735 0 0 0 .428.947.725.725 0 0 0 .932-.451.732.732 0 0 0-.435-.928zm-2.247-.895a.737.737 0 0 0-.95.386.72.72 0 0 0 .377.964.72.72 0 0 0 .953-.394.736.736 0 0 0-.38-.956zm-2.193-1.017a.73.73 0 0 0-.97.33.727.727 0 0 0 .322.983c.36.19.8.032.973-.337a.745.745 0 0 0-.325-.976zm-2.133-1.139a.72.72 0 0 0-.983.266.737.737 0 0 0 .259 1.008.728.728 0 0 0 .995-.287.729.729 0 0 0-.27-.987zm-2.061-1.269a.735.735 0 0 0-1 .217.722.722 0 0 0 .206 1.014.72.72 0 0 0 1.007-.224.737.737 0 0 0-.213-1.007zM28 88.605a.731.731 0 0 0-1.013.164.727.727 0 0 0 .155 1.023.713.713 0 0 0 1.014-.169.745.745 0 0 0-.156-1.018zm-1.926-1.477a.721.721 0 0 0-1.016.11.735.735 0 0 0 .103 1.033.72.72 0 0 0 1.024-.123.734.734 0 0 0-.11-1.02zm-2.867-1.515c-.285.277-.263.787.05 1.046a.722.722 0 0 0 1.027-.076.736.736 0 0 0-.066-1.027c-.304-.253-.716-.231-1.01.057zm-1.727-1.757a.741.741 0 0 0-.031 1.042.723.723 0 0 0 1.035.004.735.735 0 0 0 .013-1.025.717.717 0 0 0-1.017-.021zm-1.627-1.852a.73.73 0 0 0-.086 1.033.707.707 0 0 0 1.023.074.752.752 0 0 0 .083-1.032.727.727 0 0 0-1.02-.075zm-1.526-1.937a.72.72 0 0 0-.136 1.022c.25.324.706.38 1.022.127a.74.74 0 0 0 .134-1.022.736.736 0 0 0-1.02-.127zm-.407-1.837a.73.73 0 0 0-1.003-.186c-.333.221-.439.689-.197 1.018a.725.725 0 0 0 1.018.177.73.73 0 0 0 .182-1.009zm-1.323-2.038a.716.716 0 0 0-.99-.239.737.737 0 0 0-.25 1.01.72.72 0 0 0 1.007.227.734.734 0 0 0 .233-.998zm-1.22-2.107a.728.728 0 0 0-.985-.28.73.73 0 0 0-.29.994.712.712 0 0 0 .986.28.749.749 0 0 0 .289-.994zm-1.114-2.15a.723.723 0 0 0-.96-.346.734.734 0 0 0-.358.975c.177.37.618.52.976.339a.732.732 0 0 0 .342-.968zm-.969-2.224a.732.732 0 0 0-.944-.4.726.726 0 0 0-.408.95.718.718 0 0 0 .954.396.74.74 0 0 0 .398-.946zm-.841-2.277a.736.736 0 0 0-.92-.454.722.722 0 0 0-.462.926c.13.387.546.59.927.451a.742.742 0 0 0 .455-.923zm-1.219-1.426a.735.735 0 0 0 .505-.896.73.73 0 0 0-1.405.393.721.721 0 0 0 .9.503zm-.628-2.39a.731.731 0 0 0 .551-.865.727.727 0 0 0-.859-.555.729.729 0 0 0-.565.868c.088.4.482.646.873.552zm-.495-2.42a.737.737 0 0 0 .6-.833.734.734 0 0 0-.832-.602.72.72 0 0 0-.607.833.718.718 0 0 0 .839.601zm-.363-2.445a.737.737 0 0 0 .647-.798.735.735 0 0 0-.794-.648.72.72 0 0 0-.656.798.72.72 0 0 0 .803.648zm-.224-2.462a.73.73 0 0 0 .688-.76.732.732 0 0 0-.756-.692.726.726 0 0 0-.7.763.725.725 0 0 0 .768.69zm-.089-2.47a.73.73 0 0 0 .727-.72.73.73 0 0 0-.717-.734.727.727 0 1 0-.01 1.454zm.044-2.47a.736.736 0 0 0 .769-.68.738.738 0 0 0-.68-.771.72.72 0 0 0-.777.68.721.721 0 0 0 .688.771zm.178-2.465c.4.04.761-.245.806-.637a.739.739 0 0 0-.634-.807.72.72 0 0 0-.814.635.72.72 0 0 0 .642.809zm.316-2.451a.728.728 0 0 0 .836-.592.733.733 0 0 0-.588-.84.726.726 0 1 0-.248 1.432zm.45-2.43a.73.73 0 0 0 .865-.545.733.733 0 0 0-.542-.872.726.726 0 1 0-.324 1.417zm.579-2.402a.732.732 0 0 0 .895-.495.738.738 0 0 0-.494-.902.716.716 0 0 0-.905.493.72.72 0 0 0 .504.904zm11.084-18.13a.728.728 0 0 0-.015-1.024.728.728 0 0 0-1.035.004.737.737 0 0 0 .03 1.041.72.72 0 0 0 1.02-.02zm1.727-1.704c.287-.27.3-.733.029-1.033a.712.712 0 0 0-1.025-.038.726.726 0 0 0-.029 1.033.73.73 0 0 0 1.025.038zm1.805-1.62a.73.73 0 0 0 .091-1.02.725.725 0 0 0-1.03-.102.732.732 0 0 0-.076 1.037.723.723 0 0 0 1.015.086zm1.894-1.51a.746.746 0 0 0 .143-1.019.713.713 0 0 0-1.018-.153.73.73 0 0 0-.138 1.027.728.728 0 0 0 1.013.146zm1.973-1.401c.327-.214.417-.667.201-1.009a.717.717 0 0 0-1.008-.212.72.72 0 0 0-.196 1.015.736.736 0 0 0 1.003.206zm2.047-1.288a.728.728 0 0 0 .263-.99.728.728 0 0 0-.998-.277.738.738 0 0 0-.251 1.01.72.72 0 0 0 .986.257zm2.123-1.161a.743.743 0 0 0 .314-.98.715.715 0 0 0-.978-.327.729.729 0 0 0-.31.989c.191.357.626.5.974.318zm2.184-1.047a.74.74 0 0 0 .363-.964.718.718 0 0 0-.958-.376.721.721 0 0 0-.362.967c.169.365.596.53.957.373zm2.235-.938a.73.73 0 0 0 .41-.94.725.725 0 0 0-.94-.428.73.73 0 0 0-.406.955.726.726 0 0 0 .936.413zm2.28-.83c.369-.14.556-.51.455-.91a.717.717 0 0 0-.925-.481.732.732 0 0 0-.448.934.727.727 0 0 0 .918.456zm2.304-.662a.723.723 0 0 0 .528-.874.732.732 0 0 0-.882-.548.73.73 0 0 0-.52.9.727.727 0 0 0 .874.522zm2.362-.516a.732.732 0 0 0 .574-.85.723.723 0 0 0-.848-.59.714.714 0 0 0-.574.853c.083.392.462.66.848.587zm2.386-.385c.387-.053.664-.423.619-.826a.715.715 0 0 0-.813-.629.724.724 0 0 0-.62.827c.062.4.425.682.814.628zm2.403-.26a.737.737 0 0 0 .663-.783c-.023-.4-.374-.725-.778-.68a.732.732 0 0 0-.662.798c.04.405.387.701.777.665zm2.418-.134a.724.724 0 0 0 .701-.745.733.733 0 0 0-.745-.721.725.725 0 0 0-.7.763c.02.408.351.708.744.703zm2.423-.011a.73.73 0 0 0 .735-.716.725.725 0 0 0-.71-.75.714.714 0 0 0-.735.718.74.74 0 0 0 .71.748zm2.408.106a.728.728 0 0 0 .779-.665.728.728 0 0 0-.661-.797.727.727 0 0 0-.78.681.73.73 0 0 0 .662.78zm2.4.268a.734.734 0 0 0 .816-.623.724.724 0 0 0-.614-.83.72.72 0 0 0-.818.632c-.048.404.23.76.616.821zm2.381.405a.736.736 0 0 0 .851-.573.722.722 0 0 0-.566-.866.718.718 0 0 0-.851.581.737.737 0 0 0 .566.858zm2.357.54a.73.73 0 0 0 .88-.521.722.722 0 1 0-1.399-.365.732.732 0 0 0 .519.886zm2.321.672a.725.725 0 0 0 .908-.47.722.722 0 1 0-1.376-.442.73.73 0 0 0 .468.912zm2.28.807a.731.731 0 0 0 .934-.423.725.725 0 0 0-.413-.949.718.718 0 0 0-.938.433.74.74 0 0 0 .417.939zm2.233.93a.732.732 0 0 0 .954-.37.722.722 0 0 0-.36-.97c-.37-.166-.8.001-.958.376a.74.74 0 0 0 .364.964zm2.178 1.051c.349.179.781.046.973-.313a.723.723 0 1 0-1.284-.667.735.735 0 0 0 .311.98zm2.118 1.172c.336.203.78.086.99-.26a.73.73 0 0 0-.252-1.006.721.721 0 0 0-.996.273.736.736 0 0 0 .258.993zm2.05 1.29a.732.732 0 0 0 1.003-.207.725.725 0 0 0-.198-1.017.716.716 0 0 0-1.008.215.743.743 0 0 0 .203 1.009zm1.977 1.398a.732.732 0 0 0 1.012-.15.725.725 0 0 0-.142-1.027.714.714 0 0 0-1.015.157.74.74 0 0 0 .145 1.02zm2.916 1.412a.73.73 0 0 0-.084-1.035.72.72 0 0 0-1.025.103.734.734 0 0 0 .092 1.023c.3.254.753.217 1.017-.091zm1.816 1.665a.73.73 0 0 0-.026-1.036.72.72 0 0 0-1.032.045.739.739 0 0 0 .036 1.026.726.726 0 0 0 1.022-.035zm.698 1.744a.742.742 0 0 1 .023-1.029.714.714 0 0 1 1.03.013.732.732 0 0 1-1.053 1.016zM92.981 119.638v9.901c0 .36.206.599.618.721v.313H90.45v-.313c.417-.112.626-.351.626-.72v-11.36c0-.353-.209-.589-.626-.705v-.32h4.502v.32c-.301.107-.451.255-.451.444 0 .15.15.395.45.735l7.448 8.471v-8.945c0-.353-.211-.589-.634-.705v-.32h3.164v.32c-.422.116-.632.352-.632.705v11.36c0 .359.21.598.632.72v.313h-3.593v-.313c.301-.087.452-.218.452-.394 0-.16-.14-.4-.421-.72l-8.386-9.508zm-11.838 6.506l-2.173-4.851-2.071 4.851h4.244zm.76 1.614h-5.68l-.713 1.535c-.108.228-.162.397-.162.51 0 .246.17.416.509.508v.262H72.46v-.262c.276-.049.507-.192.691-.43.116-.14.264-.411.443-.814l3.534-7.883c.2-.451.299-.75.299-.895 0-.242-.163-.39-.487-.443v-.284h4.24v.284c-.316.068-.474.215-.474.443 0 .146.132.498.393 1.055l3.564 7.563c.194.417.351.708.473.872.227.307.492.483.792.532v.262h-3.542v-.262c.325-.078.488-.198.488-.363 0-.054-.089-.272-.264-.655l-.708-1.535zm-20.988 2.24l-4.698-8.189v7.767c0 .359.21.603.633.735v.262h-3.011v-.277c.417-.097.626-.337.626-.72v-9.002c0-.374-.21-.616-.626-.728v-.284h4.29v.284c-.334.097-.501.247-.501.451 0 .132.084.34.252.626l3.146 5.324 2.906-5.355c.14-.26.211-.45.211-.566 0-.199-.162-.359-.487-.48v-.284h4.451v.284c-.417.101-.625.344-.625.728v9.002c0 .359.208.603.625.735v.262h-3.25v-.277c.421-.097.632-.337.632-.72v-7.773l-4.574 8.195zm-20.65-10.436v.284c-.224.049-.387.126-.488.233-.083.087-.138.252-.168.495v5.851c0 1.034.27 1.732.808 2.096.6.412 1.452.619 2.552.619 1.11 0 1.96-.207 2.553-.619.514-.354.77-1.052.77-2.096v-5.85c0-.375-.205-.617-.618-.73v-.283h3.018v.284c-.426.112-.64.354-.64.728v5.7c0 1.373-.21 2.369-.632 2.99-.708 1.032-2.23 1.549-4.568 1.549-1.633 0-2.891-.26-3.774-.779-.97-.572-1.454-1.825-1.454-3.76v-5.7c0-.37-.209-.612-.625-.728v-.284h3.265zm-8.354.626l-1.23 2.525-.247-.117a1.2 1.2 0 0 0 .043-.256c0-.301-.358-.592-1.075-.87a6.432 6.432 0 0 0-1.477-.387c-.373-.05-.85-.074-1.433-.074-.707 0-1.333.09-1.876.27-.785.263-1.177.681-1.177 1.254 0 .399.235.698.705.897.271.112.79.211 1.556.298l1.89.204c1.48.16 2.601.44 3.368.837.96.494 1.44 1.3 1.44 2.415 0 1.343-.587 2.317-1.76 2.923-.897.47-2.083.706-3.556.706-1.44 0-2.723-.25-3.847-.75-.456-.199-.91-.436-1.36-.712-.17-.102-.308-.153-.415-.153-.121 0-.27.068-.443.204l-.233-.139 1.578-2.4.233.132a.839.839 0 0 0-.073.292c0 .291.274.612.822.963.92.593 2.167.89 3.738.89.785 0 1.493-.12 2.123-.358.873-.326 1.309-.825 1.309-1.496 0-.507-.4-.876-1.2-1.11-.353-.101-.954-.197-1.803-.284l-1.95-.202c-1.153-.122-2.033-.355-2.639-.699-.84-.474-1.258-1.216-1.258-2.224 0-1.207.513-2.107 1.541-2.704.834-.484 1.9-.726 3.2-.726 1.052 0 2.14.175 3.265.523.985.306 1.513.458 1.586.458.107 0 .242-.08.407-.24l.248.11zm-20.02 5.163l-2.788-6.01-2.659 6.01h5.448zm.81 1.73H5.664l-.997 2.268c-.104.253-.157.425-.157.517 0 .2.191.33.575.393v.314H1.594v-.313c.282-.043.505-.17.67-.379.14-.17.307-.467.502-.894l4.777-10.61c.127-.276.19-.446.19-.509 0-.184-.165-.315-.495-.393v-.32h3.92v.32c-.32.102-.48.243-.48.422 0 .068.06.228.181.48l5.324 11.28a.909.909 0 0 0 .538.486c.116.05.24.088.37.117v.313h-3.745v-.314c.383-.048.575-.192.575-.43 0-.125-.066-.332-.2-.618l-1.02-2.13z"/>
    </g>
</svg>
